<?xml version="1.0" standalone="no"?>
<!DOCTYPE svg PUBLIC "-//W3C//DTD SVG 1.1//EN" "http://www.w3.org/Graphics/SVG/1.1/DTD/svg11.dtd" >
<svg xmlns="http://www.w3.org/2000/svg">
<metadata>
Created by FontPrep 20130207 at Sat Aug  5 10:05:22 2017
 By Bertrand
Copyright (c) 2013 by The Fontry. All rights reserved.
</metadata>
<defs>
<font id="51a4919b32c9f1657d295f882f7dda1e" horiz-adv-x='1024' >
  <font-face 
    font-family="FTYSPEEDYCASUALNCV"
    font-weight="400"
    font-stretch="normal"
    units-per-em="2048"
    panose-1="0 0 0 0 0 0 0 0 0 0"
    ascent="1536"
    descent="-512"
    x-height="1407"
    cap-height="1438"
    bbox="-311 -578 2260.3 2187.33"
    underline-thickness="102"
    underline-position="-102"
    unicode-range="U+0020-F8FF"
  />
<missing-glyph horiz-adv-x="471" 
 />
    <glyph glyph-name=".notdef" horiz-adv-x="471" 
 />
    <glyph glyph-name=".null" horiz-adv-x="0" 
 />
    <glyph glyph-name="nonmarkingreturn" horiz-adv-x="471" 
 />
    <glyph glyph-name="space" unicode=" " horiz-adv-x="307" 
 />
    <glyph glyph-name="exclam" unicode="!" horiz-adv-x="528" 
d="M255 367q-66 0 -97 32q-8 80 -40.5 371.5t-14.5 452.5t68 198t118 37t102.5 -28.5t44.5 -73.5t4 -100.5t-24 -193.5t-42 -319.5t-18 -345.5q-35 -30 -101 -30zM271 281q69 0 110 -39t41 -105t-52 -110.5t-120 -44.5t-108 39.5t-40 106.5t50 110t119 43z" />
    <glyph glyph-name="quotedbl" unicode="&#x22;" horiz-adv-x="765" 
d="M220.5 1454q86.5 0 115.5 -41q-33 -133 -38 -350t-3 -254q-59 -37 -137 -37q-51 88 -74 316.5t-2 347.5q52 18 138.5 18zM438 1090.5q-4 66.5 -4 168t8 175.5q48 24 135 24t117 -43q-2 -29 -3 -52.5t-4 -52t-8 -67.5t-13.5 -98.5t-21.5 -143t-30 -204.5q-73 -13 -120 -13
q-31 49 -41.5 144.5t-14.5 162z" />
    <glyph glyph-name="numbersign" unicode="#" horiz-adv-x="1046" 
d="M812 498h-25l-132 2q-146 -509 -151 -531q-8 0 -65 -3t-72 42q46 197 131 492h-125q-35 -125 -77.5 -271.5t-72.5 -259.5q-37 -4 -81 3.5t-54 35.5q33 171 129 488q-129 0 -170 14q13 69 51 121q47 10 56 10h106q16 49 32.5 108.5t37.5 122.5h-12h-55l-138 -2
q26 92 61 127q30 10 72.5 11.5t70 3.5t50.5 2q97 305 164 454q94 0 121 -41l-127 -413h120q100 303 166 454q83 0 119 -36l-127 -422q164 0 191 -35q-10 -49 -58 -107q-88 12 -180 9q-10 -35 -24.5 -87.5t-47.5 -150.5q173 0 207 -39q-16 -37 -27.5 -57.5t-39.5 -42.5
q-18 -2 -24 -2zM543 643q14 49 32.5 110.5t36.5 125.5h-125q-16 -53 -34.5 -118t-36.5 -118h127z" />
    <glyph glyph-name="dollar" unicode="$" horiz-adv-x="878" 
d="M580 423q0 92 -86 136q-14 -115 -25 -235q39 4 75 29.5t36 69.5zM305 954q0 -55 27.5 -84.5t75.5 -52.5l26 270q-53 -6 -91 -42t-38 -91zM817 449q0 -125 -101 -219.5t-272 -90.5l-18 -168q-48 -21 -74 0q0 74 4 168q-153 21 -210.5 89.5t-71.5 109.5q12 35 75.5 77
t75.5 48q38 -113 150 -131q1 13 16 276q-70 33 -128 60.5t-126.5 82t-72.5 205.5q-5 151 108.5 251t280.5 100l18 166q23 8 60.5 7t58.5 -14l-21 -163q66 -6 132.5 -36t113.5 -75q-70 -123 -137 -180q-43 63 -129 80l-35 -320q51 -23 177 -84.5t126 -238.5z" />
    <glyph glyph-name="percent" unicode="%" horiz-adv-x="1587" 
d="M362 -31q302 750 691 1520q85 0 163 -10.5t99 -16.5q-399 -716 -750 -1509q-141 0 -203 16zM1243.5 532q-95.5 0 -104.5 -204q-4 -104 21.5 -158.5t73.5 -55.5q87 -2 96 208t-86.5 210zM1232 -25q-144 0 -227 93.5t-78 257.5t88 254t230 90t225 -96t73 -255t-86 -251.5
t-225 -92.5zM385.5 901q68.5 0 77.5 197q4 111 -23.5 164t-72.5 53t-72 -54.5t-31 -153.5t24.5 -152.5t97 -53.5zM353 762q-144 0 -225 93t-74 257t88 253t227 88t228.5 -96t76.5 -254t-91.5 -250t-229.5 -91z" />
    <glyph glyph-name="ampersand" unicode="&#x26;" horiz-adv-x="1236" 
d="M585 1235q-77 0 -116 -64.5t-32 -143.5t52 -136q94 51 145.5 121t48.5 120t-30.5 76.5t-67.5 26.5zM705 305q-144 110 -279 295q-57 -35 -88 -95.5t-27 -138.5t59.5 -116.5t133.5 -38.5q120 9 201 94zM574 1466q168 0 243.5 -87t89.5 -234q15 -236 -264 -426
q98 -141 195 -217q41 63 59 142t29 140q42 -9 104 -62.5t86 -115.5q-12 -75 -47 -156t-49 -104q51 -51 101 -88t104 -78q-44 -93 -142 -162q-73 37 -200 134q-157 -179 -426 -179q-147 -6 -245.5 56.5t-135.5 156.5q-69 175 -6.5 336.5t217.5 257.5q-86 113 -97 254
q-8 197 104 314.5t280 117.5z" />
    <glyph glyph-name="quotesingle" unicode="'" horiz-adv-x="407" 
d="M218 1456q88 0 118 -43q0 -94 -82 -622q-84 -15 -123 -15q-65 107 -60 351.5t11 304.5q48 24 136 24z" />
    <glyph glyph-name="parenleft" unicode="(" horiz-adv-x="651" 
d="M449 -180q-159 168 -273.5 412.5t-114.5 461.5t115.5 472.5t288.5 416.5q116 0 207 -51q-211 -253 -254 -491.5t-43 -342.5q0 -203 75 -423.5t203 -407.5q-76 -47 -204 -47z" />
    <glyph glyph-name="parenright" unicode=")" horiz-adv-x="651" 
d="M203 1583q157 -166 272 -411.5t115 -462.5t-115.5 -472.5t-288.5 -416.5q-115 0 -206 51q212 255 254 492t42 341q0 207 -75.5 427t-202.5 405q76 47 205 47z" />
    <glyph glyph-name="asterisk" unicode="*" horiz-adv-x="784" 
d="M406 985q-94 -107 -162 -199q-20 14 -56 33t-92 80q61 85 203 193l-236 36q-6 53 13.5 116t29.5 81q6 -4 68.5 -27.5t157.5 -76.5l-39 247q47 34 121.5 24.5t97.5 -15.5q-26 -140 -43 -254q99 54 229 96q22 -16 27.5 -96t3.5 -93q-72 -16 -133 -22t-92 -14
q146 -115 223 -213q-94 -83 -164 -93z" />
    <glyph glyph-name="plus" unicode="+" horiz-adv-x="1093" 
d="M560 1251q89 0 112 -32l-17 -375q80 -2 164 -3t150 -5q41 -27 41 -111t-2 -104q-108 6 -359 6q-5 -113 6 -377q-27 -27 -104 -27t-119 27q-10 104 -8 196.5t4 182.5q-92 0 -340 -15q-13 83 -1.5 142t22.5 71q130 17 323 17q10 170 10 381q29 26 118 26z" />
    <glyph glyph-name="comma" unicode="," horiz-adv-x="473" 
d="M247 299q67 0 111.5 -46t44.5 -118q0 -125 -64.5 -196.5t-119.5 -106.5q-37 0 -51 18q27 29 51.5 67t16.5 83q-107 -17 -136.5 41.5t-25.5 120.5t55 99.5t118 37.5z" />
    <glyph glyph-name="hyphen" unicode="-" horiz-adv-x="735" 
d="M121 518q-29 37 -29 140q0 102 88 114q166 15 283 6.5t143 -14.5q27 -33 32 -66.5t5 -94.5t-27 -85q-86 12 -251.5 12t-243.5 -12z" />
    <glyph glyph-name="period" unicode="." horiz-adv-x="471" 
d="M245 281q69 0 111.5 -39t42.5 -105t-53 -110.5t-122 -44.5t-110.5 39.5t-41.5 106.5t52 110t121 43z" />
    <glyph glyph-name="slash" unicode="/" horiz-adv-x="899" 
d="M608 1522q41 0 147.5 -16.5t127.5 -37.5q-145 -269 -320 -667t-342 -910q-146 -10 -174 33q68 327 232.5 807.5t328.5 790.5z" />
    <glyph glyph-name="zero" unicode="0" horiz-adv-x="1091" 
d="M555 1444q113 0 193.5 -24.5t136.5 -96.5q133 -138 144 -325.5t11 -297.5t-26.5 -243t-122.5 -302t-351 -169q-254 0 -371.5 201t-117.5 499q0 568 195.5 663t308.5 95zM336 692q0 -454 210 -454q102 0 158 132t56 365q0 430 -205 430q-94 0 -156.5 -120.5t-62.5 -352.5z
" />
    <glyph glyph-name="one" unicode="1" horiz-adv-x="532" 
d="M154 291q0 195 32 876q-101 7 -135 27q8 16 57.5 123.5t88.5 107.5q25 2 105 2t147 -10q10 -62 10 -124v-97q0 -96 -7.5 -253t-17.5 -378t10 -530q-95 -35 -260 -35q-30 96 -30 291z" />
    <glyph glyph-name="two" unicode="2" horiz-adv-x="933" 
d="M492 1198q-168 0 -347 -233q-55 93 -59 161t2 95q103 160 241 194.5t200 34.5q129 0 230.5 -73t121.5 -191q42 -248 -95 -507q-137 -258 -335 -441q39 4 101 4t169.5 -11t155.5 -41q0 -111 -37 -180q-147 18 -387.5 16t-372.5 -26q-39 71 -39 158q47 59 196 213.5
t260 324.5t118 297t-38 166t-85 39z" />
    <glyph glyph-name="three" unicode="3" horiz-adv-x="960" 
d="M84 1219q44 72 186 149.5t274 77.5q131 0 244 -84.5t117 -239.5q4 -109 -58.5 -216.5t-189.5 -157.5q111 -31 178.5 -123.5t71.5 -208.5q8 -219 -124 -327.5t-343 -108.5q-143 0 -248.5 53t-140.5 139q4 64 44 119.5t77 64.5q91 -139 234 -139q102 0 170.5 51t66.5 152
q-5 127 -95.5 148.5t-132.5 21.5t-75 -6t-82 -11q-35 41 -40 96.5t-1 114.5q207 40 313.5 105t102.5 194q-28 125 -115 125q-149 0 -346 -207q-71 108 -88 218z" />
    <glyph glyph-name="four" unicode="4" horiz-adv-x="1093" 
d="M616 103v227q-251 0 -514 -29q-54 76 -59 201q-4 21 169.5 365t381.5 569q220 13 332 -13q-35 -548 -35 -862q120 -5 160 -20q8 -99 -9 -201q-41 -4 -72.5 -3t-82.5 -3q-5 -199 16 -311q-99 -23 -266 -23q-21 76 -21 103zM338 557q184 11 278 8q0 181 13.5 361t19.5 219
q-139 -213 -214 -368.5t-97 -219.5z" />
    <glyph glyph-name="five" unicode="5" horiz-adv-x="962" 
d="M827 1202q-61 6 -212.5 6t-217.5 -12q-44 -155 -63 -354q72 45 174 45q202 0 308 -104.5t106 -325.5t-129 -346t-335 -125t-293 66.5t-112 109.5q4 132 78 244q71 -106 139.5 -148.5t161.5 -46.5q86 4 147.5 60.5t61.5 157.5t-61 155.5t-163 54.5t-231 -90
q-37 10 -76.5 37.5t-58.5 58.5q5 82 44 379t59 341t68 49q93 10 277 12t300 -9q28 -104 28 -215z" />
    <glyph glyph-name="six" unicode="6" horiz-adv-x="1044" 
d="M723 548q0 181 -188 181q-102 0 -154.5 -76t-52.5 -194q0 -163 67.5 -204.5t114.5 -41.5q109 0 161 77t52 258zM375 881q80 69 236 69q157 0 265.5 -116.5t116.5 -319.5q0 -270 -131 -403t-354 -125q-288 11 -384.5 229t-66.5 515t186.5 546t373 187t290.5 -117
q-11 -123 -43 -226q-110 92 -231 92q-160 0 -206 -122.5t-52 -208.5z" />
    <glyph glyph-name="seven" unicode="7" horiz-adv-x="944" 
d="M31 1178q10 132 61 247q174 -10 339 -4.5t269 9.5t142.5 2t70.5 -29q-16 -145 -125 -391q-234 -532 -321 -987q-63 -27 -147 -37.5t-117 -10.5q-55 146 82 494t195.5 491t82.5 220q-121 -4 -262 -8.5t-270 4.5z" />
    <glyph glyph-name="eight" unicode="8" horiz-adv-x="1032" 
d="M506 821q98 37 155.5 115t45.5 190q-43 110 -157 108q-123 -2 -169 -68t-37 -152q4 -55 52 -115t110 -78zM680 358q0 78 -52.5 137.5t-131.5 86.5q-67 -22 -115.5 -81.5t-47.5 -141.5q1 -83 50 -124.5t123 -38.5t124 43.5t50 118.5zM879 1358.5q0 -15.5 -2 -27.5
q134 -142 106.5 -277.5t-87.5 -213.5t-163 -127q117 -61 174.5 -166t56.5 -203q-2 -177 -132 -270t-310 -97q-326 -7 -395.5 118t-73.5 233t48.5 204.5t150.5 169.5q-149 96 -183 260t58 306q117 176 430 184q132 0 211.5 -24.5t108.5 -43.5q2 -10 2 -25.5z" />
    <glyph glyph-name="nine" unicode="9" horiz-adv-x="1048" 
d="M498 666q96 0 152 70t62 152q9 139 -36.5 223.5t-142.5 88.5t-155.5 -71.5t-63.5 -188.5t41.5 -190.5t142.5 -83.5zM164 70q-4 98 22 231q93 -78 234 -87t213 87.5t76 267.5q-41 -66 -125 -98.5t-168 -24.5q-178 16 -276.5 147.5t-86.5 357.5t140.5 362.5t328.5 132.5
q196 -4 308 -121q100 -104 137 -264.5t29 -335.5q-17 -344 -153.5 -547t-393.5 -188q-183 8 -285 80z" />
    <glyph glyph-name="colon" unicode=":" horiz-adv-x="471" 
d="M245 281q69 0 111.5 -39t42.5 -105t-53 -110.5t-122 -44.5t-110.5 39.5t-41.5 106.5t52 110t121 43zM245 987q69 0 111.5 -38.5t42.5 -104.5t-53 -111t-122 -45t-110.5 40t-41.5 107t52 109.5t121 42.5z" />
    <glyph glyph-name="semicolon" unicode=";" horiz-adv-x="473" 
d="M245 985q69 0 111.5 -38.5t42.5 -104.5t-53 -111t-122 -45t-110.5 40t-41.5 106t52 109.5t121 43.5zM247 293q67 0 110.5 -44t43.5 -116q0 -185 -182 -301q-37 0 -51 18q27 29 51.5 67t16.5 83q-107 -17 -136.5 41.5t-25.5 120.5t55 96.5t118 34.5z" />
    <glyph glyph-name="less" unicode="&#x3c;" horiz-adv-x="933" 
d="M838 327q0 -79 -4.5 -108t-20.5 -45q-46 27 -145 76l-138 78q-66 37 -228.5 126.5t-227.5 139.5l-8 41l-3 51q0 43 4.5 80t38.5 53q367 189 615 375q2 2 2 4t4 6l2 -2l21 17q18 7 43 30q36 -82 36 -221q-45 -72 -181 -153.5t-345 -186.5q255 -140 492 -225l26 -17
q17 -40 17 -119z" />
    <glyph glyph-name="equal" unicode="=" horiz-adv-x="1017" 
d="M928 1026q7 -90 -2 -207q-27 0 -292 11.5t-515 -9.5q-28 28 -25.5 109.5t6.5 101.5q205 6 411.5 6t416.5 -12zM94 562.5q0 74.5 2 92.5q178 7 202 7h260q236 0 362 -11q12 -42 12 -106.5t-17 -100.5q-76 2 -262 10t-534 -10q-25 44 -25 118.5z" />
    <glyph glyph-name="greater" unicode="&#x3e;" horiz-adv-x="933" 
d="M92 291q0 76 10 123l7 35q8 4 14 8t14 8q215 67 492 223q-213 104 -344.5 181t-184.5 151q0 95 37 137l10 41v47l41 -31q2 -2 2 -6q284 -211 631 -387q37 -18 41 -54t4 -86t-10 -87q-23 -23 -65.5 -45.5t-92.5 -52.5l-39 -25q-74 -47 -153.5 -88t-161.5 -86l-55 -35
q-133 -63 -172 -88q-25 41 -25 117z" />
    <glyph glyph-name="question" unicode="?" horiz-adv-x="903" 
d="M335 281q69 0 111.5 -39t42.5 -105t-53 -110.5t-122 -44.5t-110.5 39.5t-41.5 106.5t52 110t121 43zM453 1448q178 0 288.5 -95t110.5 -270q0 -102 -42 -203.5t-161 -185.5q-78 -55 -138 -100t-78 -89t-7 -104q-112 -30 -195 -26q-92 160 2.5 258.5t160.5 152.5
q164 134 163 269q0 57 -38 95t-101 38q-147 0 -279 -174q-105 117 -84 291q171 143 398 143z" />
    <glyph glyph-name="at" unicode="@" horiz-adv-x="1585" 
d="M762 -25q-310 0 -495 158t-185 447q0 364 157.5 540t309 243t346.5 67q281 0 440.5 -139.5t165.5 -440.5q5 -217 -92 -411.5t-301 -194.5q-57 0 -99 30.5t-57 85.5q-51 -68 -121.5 -102.5t-138.5 -34.5q-127 0 -192.5 80t-69.5 201t29 223t89 179t132 122t148 45t110 -39
v29q14 8 64.5 8t140.5 -18q10 -84 -13.5 -322.5t-31.5 -302.5q5 -43 35 -43q95 0 133.5 148t38.5 282q0 211 -106.5 310.5t-317.5 99.5q-156 0 -266.5 -65.5t-181.5 -165t-103.5 -216t-32.5 -223.5q0 -209 140 -335t341 -126t301 96q75 -8 109 -45q-53 -78 -163.5 -124
t-262.5 -46zM856 877q-46 0 -85.5 -38t-77.5 -117.5t-38 -193.5t78 -114q66 0 132.5 85.5t66.5 352.5q-30 25 -76 25z" />
    <glyph glyph-name="A" unicode="A" horiz-adv-x="1052" 
d="M526 1145q-96 -374 -137 -606q115 8 227 4q-57 293 -90 602zM342 297q-30 -91 -39 -281q-18 -6 -140.5 -6t-131.5 45q22 285 159.5 766t180.5 598q108 17 202 17q93 0 152 -25q102 -678 165.5 -945t121.5 -429q-89 -39 -232 -39q-44 27 -67.5 87.5t-53.5 217.5
q-12 2 -94.5 2t-222.5 -8z" />
    <glyph glyph-name="B" unicode="B" horiz-adv-x="1044" 
d="M958 1071q0 -95 -60.5 -186.5t-182.5 -130.5q137 -29 207.5 -124.5t70.5 -225.5q0 -231 -163.5 -327.5t-389.5 -96.5t-288 49t-80 96q20 845 39 1116q-28 81 -37 131q161 68 382 66q222 -2 362 -105t140 -262zM598.5 1185.5q-95.5 38.5 -227.5 12.5q-17 -227 -17 -362
q148 -4 244 51t96 158q0 102 -95.5 140.5zM705 428q0 92 -74 143.5t-189 55.5q-37 0 -98 -9q-14 -277 2 -380q48 -16 142 -16t155.5 57t61.5 149z" />
    <glyph glyph-name="C" unicode="C" horiz-adv-x="958" 
d="M209.5 106q-158.5 126 -158.5 528t139 609q143 199 394 199q167 0 246.5 -92t87.5 -205q-47 -92 -148 -180q-53 151 -109.5 177.5t-72.5 26.5q-116 -16 -182 -184t-66 -404q0 -237 72 -302.5t130 -69.5q109 -8 176 41t107 141q59 -102 78 -221q-113 -190 -377 -190
q-158 0 -316.5 126z" />
    <glyph glyph-name="D" unicode="D" horiz-adv-x="1052" 
d="M436 1440q291 0 418 -189.5t127 -552.5q0 -488 -213 -598t-353 -116t-223 22.5t-106 42.5q-16 291 -3 588t26 602q-27 87 -37 133q71 37 197 52.5t167 15.5zM346 238q27 -8 55 -9q159 0 248.5 176.5t49 442.5t-134 310t-191.5 22q-27 -442 -27 -942z" />
    <glyph glyph-name="E" unicode="E" horiz-adv-x="862" 
d="M735 559q-172 19 -385 -4l-1 -126q-1 -126 9 -181l191 1q191 1 235 -3q27 -74 27 -234q-283 -3 -688 -18q-37 121 -42 181.5t-5 109.5q-8 463 26 899q-20 83 -30 198q87 35 346 46.5t393 -27.5q0 -84 -16.5 -142.5t-22.5 -70.5q-266 37 -399 0q-19 -138 -19 -402l175 4
q175 3 241 -16q0 -143 -35 -215z" />
    <glyph glyph-name="F" unicode="F" horiz-adv-x="864" 
d="M611 795q113 0 163 -23q0 -146 -29 -213q-149 15 -393 -4q-8 -183 6.5 -311.5t18.5 -214.5q-60 -31 -126 -31q-67 0 -96.5 9t-52.5 32q-36 261 -30 523.5t37 625.5q-33 142 -33 196q90 39 377 49.5t360 -36.5q0 -123 -37 -199q-220 27 -395 0q-5 -24 -10.5 -133
t-9 -172.5t-3.5 -108.5q140 11 253 11z" />
    <glyph glyph-name="G" unicode="G" horiz-adv-x="1075" 
d="M584 1444q111 0 223 -69.5t145 -209.5v-2q0 -37 -166 -186q-26 71 -77 129.5t-110 58.5t-108 -48t-96 -167.5t-47 -353.5q0 -383 140.5 -383t202 52t61.5 171q0 68 -26.5 97.5t-129.5 29.5h-24q-23 0 -33 -2q-12 72 -2 158q141 45 279 45q139 0 173 -29q30 -335 -18 -721
q-48 -12 -107 -12t-70.5 7t-15.5 24l-8 41q-103 -92 -278 -92q-221 0 -329 189.5t-112 465.5q0 532 184.5 669.5t348.5 137.5z" />
    <glyph glyph-name="H" unicode="H" horiz-adv-x="1085" 
d="M342 266q0 -133 4 -258q-63 -25 -147 -20.5t-115 10.5q-12 156 -12 336t5 365.5t10 365.5t3 336q81 24 162 24q82 0 102.5 -4t18.5 -28q-6 -158 -9.5 -320t-9.5 -315q180 13 359 4q20 541 18 655q89 27 160 24q72 -3 97.5 -9.5t23.5 -24.5q-16 -338 -30.5 -680t-2.5 -700
q-65 -26 -148 -21.5t-114 10.5q-22 247 -12 504q-97 6 -359 -4q-4 -117 -4 -250z" />
    <glyph glyph-name="I" unicode="I" horiz-adv-x="481" 
d="M328 1438q25 0 48 -4t21 -29q-16 -338 -30.5 -679t-1.5 -699q-65 -26 -151.5 -21.5t-117.5 10.5q-21 235 -10.5 559t19 503t6.5 335q64 25 217 25z" />
    <glyph glyph-name="J" unicode="J" horiz-adv-x="833" 
d="M498 400v331q-2 172 -16.5 341t-14.5 325q59 32 149 28q93 0 146 -43q-12 -80 -1.5 -374t3.5 -505.5t-56 -319.5q-48 -109 -144.5 -157t-181.5 -46q-149 4 -236.5 61t-125.5 139q0 44 27 130t57 132q100 -248 234 -252q70 -2 115 76.5t45 133.5z" />
    <glyph glyph-name="K" unicode="K" horiz-adv-x="1013" 
d="M342 383q0 -158 14 -350q-163 -36 -272 -17q-19 242 -11.5 565.5t10.5 442.5t6 215t3 158q88 42 178 29t109 -27q-2 -41 -5 -101.5t-6 -128t-6.5 -137t-3.5 -125.5q128 212 253.5 350t154.5 160q141 0 238 -63q-23 -33 -184 -228t-261 -356q86 -183 230 -410.5
t186 -253.5q-101 -141 -232 -106q-150 121 -236.5 289t-123.5 241z" />
    <glyph glyph-name="L" unicode="L" horiz-adv-x="823" 
d="M271 1421q67 0 89.5 -5t22.5 -30q4 -221 -13.5 -614t-17.5 -518q284 5 408 -12q20 -77 20 -146.5t-4 -87.5q-133 -2 -281.5 -3t-242.5 -4t-113.5 3t-48.5 27q-18 92 -18 221q0 189 13 580.5t13 562.5q106 26 173 26z" />
    <glyph glyph-name="M" unicode="M" horiz-adv-x="1312" 
d="M1206 611q0 -304 15 -576q-101 -31 -250 -21q-37 273 -37 469q0 197 6 361v18q-92 -148 -285 -655q-6 -12 -20 -14.5t-21 6.5q-79 104 -151 330.5t-96 316.5l-9 22l-4 -24q-14 -136 -14 -319q0 -182 20 -500q-51 -19 -139 -19q-87 0 -131 6q-14 136 -14 302
q0 165 5 299.5t9 261.5t8 253.5t4 282.5q204 26 332 -10q31 -104 82 -281.5t125 -359.5q170 414 328 667q192 0 274 -38q-37 -474 -37 -778z" />
    <glyph glyph-name="N" unicode="N" horiz-adv-x="1048" 
d="M208.5 6q-87.5 0 -116.5 4q-18 162 -18 511.5t12 596.5t25 283q68 20 139.5 18t95.5 -6q106 -303 194.5 -480t149.5 -292q-4 70 -4 329.5t29 436.5q57 16 130 16t132 -4q-14 -311 -22.5 -667.5t18.5 -731.5q-70 -24 -180 -24q-157 174 -280.5 421t-166.5 367
q-19 -355 16 -755q-66 -23 -153.5 -23z" />
    <glyph glyph-name="O" unicode="O" horiz-adv-x="1130" 
d="M604 1415q225 0 350 -173.5t125 -488.5t-138 -544t-392 -229q-255 0 -374.5 200.5t-123.5 497.5q0 323 99.5 485t199 225.5t228.5 65.5q17 -17 26 -39zM395.5 339.5q51.5 -120.5 161.5 -122.5q109 -2 171.5 154.5t62.5 367.5t-44 315.5t-155 108.5q-61 -6 -108.5 -54
t-93.5 -158t-46 -301q0 -190 51.5 -310.5z" />
    <glyph glyph-name="P" unicode="P" horiz-adv-x="1005" 
d="M76 365v160q0 160 33 712q-25 88 -37 137q156 66 367 66t368.5 -119.5t157.5 -358.5t-145.5 -380.5t-362.5 -141.5q-56 0 -105 9q-9 -258 13 -426q-47 -16 -122 -22.5t-141 22.5q-26 102 -26 342zM426 688q272 0 272 275q0 106 -63.5 167.5t-175.5 61.5q-33 0 -78 -10
q-6 -129 -13.5 -284.5t-7.5 -199.5q40 -10 66 -10z" />
    <glyph glyph-name="Q" unicode="Q" horiz-adv-x="1134" 
d="M805 756q0 403 -213 411q-116 -11 -184 -168t-68 -341q0 -185 44 -298.5t116 -132.5q-44 152 -49 283q50 38 131.5 49.5t105.5 11.5q6 -203 17 -270q100 185 100 455zM1083 768q0 -389 -118.5 -535.5t-196.5 -189.5q17 -56 68 -186q-39 -57 -129 -58q-76 48 -140 189
q-392 0 -451 271t-65 409q0 325 99.5 487t199 226.5t228.5 66.5q17 -17 26 -39q225 0 352 -175.5t127 -465.5z" />
    <glyph glyph-name="R" unicode="R" horiz-adv-x="999" 
d="M417 735q41 0 93.5 30t114 98t61.5 151q0 84 -57.5 133t-204.5 49q-23 0 -49 -6q-4 -82 -13.5 -216t-9.5 -235q24 -4 65 -4zM233 -2q-82 0 -135 27q-29 269 -18 618t31 594q-34 99 -39 129q124 72 338 72q384 0 459 -171t75 -311t-90 -245t-233 -152q189 -319 337 -487
q-62 -44 -129 -59t-106 -15q-141 69 -373 502q-9 -182 17 -471q-52 -31 -134 -31z" />
    <glyph glyph-name="S" unicode="S" horiz-adv-x="956" 
d="M444 190q160 0 156 115q-3 93 -111 148t-211.5 97.5t-166 142t-66.5 205.5q-8 213 113.5 357t330.5 183q117 20 199 -2.5t128 -52t68 -93.5t5 -152.5t-47 -156.5q-28 -44 -128 -56t-124 -10q34 75 45 189q6 53 -33 71.5t-88 5.5q-90 -24 -139 -107t-39 -158
q19 -138 202 -221q183 -84 245.5 -137.5t92 -111t31.5 -145.5t-69 -207t-385 -119q-129 0 -227.5 34t-133.5 104q0 141 62 241q53 -82 130.5 -123t159.5 -41z" />
    <glyph glyph-name="T" unicode="T" horiz-adv-x="917" 
d="M66 1415q244 25 476 17.5t310 -13.5q17 -92 12 -229q-57 0 -136 3t-142 -1q-26 -550 8 -1161q-112 -50 -283 -17q-10 152 -10 307.5t3 308t6 295t1 265.5q-131 0 -258 -10q-2 20 -2 97.5t15 137.5z" />
    <glyph glyph-name="U" unicode="U" 
d="M922 25q-72 -31 -159 -21t-101 19q-2 23 -1 57.5t-4 52.5q-27 -59 -92 -100t-137 -45q-333 -15 -348 320t13.5 652t25.5 461q170 12 268 2q0 -139 -11 -268t-28.5 -338t2.5 -426q8 -82 44 -122t82 -41t94 34t81 100q34 380 15 1033q126 26 272 6q0 -226 -13.5 -708
t-2.5 -668z" />
    <glyph glyph-name="V" unicode="V" horiz-adv-x="1056" 
d="M479 354q39 297 150 693q74 250 129 378q68 4 142.5 -6t117.5 -35q-47 -137 -87 -251.5t-71 -212.5q-61 -194 -86 -297t-66 -263t-65 -340q-70 -22 -260 -22q-64 64 -182.5 477.5t-159.5 941.5q132 26 266 4q0 -260 68.5 -601.5t103.5 -465.5z" />
    <glyph glyph-name="W" unicode="W" horiz-adv-x="1517" 
d="M41 1434q190 22 274 -19q0 -225 28 -436t58 -401q81 386 160.5 604.5t97.5 251.5q135 14 209 -29q33 -447 74 -646.5t53 -230.5q27 212 109 525t121 377q159 0 252 -60q-151 -399 -223 -771t-95 -581q-96 -20 -149.5 -17t-79.5 3q-149 312 -228 854q-125 -475 -184 -852
q-138 -15 -231 4q-85 226 -165.5 749.5t-80.5 674.5z" />
    <glyph glyph-name="X" unicode="X" horiz-adv-x="1038" 
d="M1008 63q-88 -45 -240 -45q-53 38 -145.5 221t-130.5 277q-46 -87 -125.5 -282t-100.5 -240q-143 0 -235 47q70 250 286 700q-175 367 -266 664q49 27 127 39t144 2q21 -88 84 -265t88 -231q124 286 235 494q148 0 248 -58q-192 -378 -313 -643q122 -267 344 -680z" />
    <glyph glyph-name="Y" unicode="Y" horiz-adv-x="1136" 
d="M442 35q26 216 19 424q-89 271 -232 545t-194 372q142 68 268 68q20 -37 107.5 -198t189.5 -468q113 372 160 483t82 185q147 0 260 -60q-130 -288 -209.5 -520.5t-136.5 -406.5q-2 -41 -4.5 -184t-22.5 -261q-224 -24 -287 21z" />
    <glyph glyph-name="Z" unicode="Z" horiz-adv-x="993" 
d="M616 1204q-283 15 -495 -14q0 126 49 213q386 48 739 4q74 -88 17.5 -184.5t-76.5 -128.5t-55 -93t-191.5 -335t-218.5 -433q39 0 108.5 1.5t197 -6.5t179.5 -48q0 -111 -26 -168q-263 14 -742 -6q-51 51 -51 156q106 291 565 1042z" />
    <glyph glyph-name="bracketleft" unicode="[" horiz-adv-x="464" 
d="M332 1142v-540q0 -482 6 -686q80 -4 141.5 -1t67.5 5q16 -41 16 -156q-129 -14 -275 -14t-210 8q6 233 4 479t-3.5 664.5t19.5 734.5q68 17 227 17t228 -6q10 -36 10 -172q-102 6 -223 -5q-8 -270 -8 -328z" />
    <glyph glyph-name="backslash" unicode="\" horiz-adv-x="899" 
d="M33 1548q76 52 176 60q138 -221 370.5 -817.5t297.5 -856.5q-15 -36 -103 -46.5t-106 -10.5q-132 452 -352.5 1001t-282.5 670z" />
    <glyph glyph-name="bracketright" unicode="]" horiz-adv-x="464" 
d="M-94 1632q129 21 281 21q151 0 210 -11q-4 -155 -4 -854t-22 -1024q-31 -7 -193 -11.5t-270 1.5q-8 29 -8 42v130q92 -5 223 4q9 304 11.5 663t3.5 487t0 232.5t-1 172.5q-80 4 -143.5 1t-69.5 -5q-16 28 -16 82.5t-2 68.5z" />
    <glyph glyph-name="asciicircum" unicode="^" horiz-adv-x="1198" 
d="M560 1450h112q35 -49 152 -215.5t253 -302.5q-18 -74 -101 -99.5t-108 -25.5q-146 171 -270 364q-125 -192 -287 -368q-53 8 -106 38.5t-82 78.5q33 47 71.5 96t123 156.5t190.5 271.5q41 6 52 6z" />
    <glyph glyph-name="underscore" unicode="_" horiz-adv-x="921" 
d="M870 -92q0 -132 -32 -182q-72 0 -277 11t-489 -9q-39 68 -33 124t33 85q221 38 480 16.5t318 -45.5z" />
    <glyph glyph-name="grave" unicode="`" horiz-adv-x="612" 
d="M68 1878q26 17 129 21t143 -9q75 -75 176 -254q27 -45 39 -69q-64 -15 -160 -6q-108 80 -206 183t-121 134z" />
    <glyph glyph-name="a" unicode="a" horiz-adv-x="1052" 
d="M526 1145q-96 -374 -137 -606q115 8 227 4q-57 293 -90 602zM342 297q-30 -91 -39 -281q-18 -6 -140.5 -6t-131.5 45q22 285 159.5 766t180.5 598q108 17 202 17q93 0 152 -25q102 -678 165.5 -945t121.5 -429q-89 -39 -232 -39q-44 27 -67.5 87.5t-53.5 217.5
q-12 2 -94.5 2t-222.5 -8z" />
    <glyph glyph-name="b" unicode="b" horiz-adv-x="1044" 
d="M958 1071q0 -95 -60.5 -186.5t-182.5 -130.5q137 -29 207.5 -124.5t70.5 -225.5q0 -231 -163.5 -327.5t-389.5 -96.5t-288 49t-80 96q20 845 39 1116q-28 81 -37 131q161 68 382 66q222 -2 362 -105t140 -262zM598.5 1185.5q-95.5 38.5 -227.5 12.5q-17 -227 -17 -362
q148 -4 244 51t96 158q0 102 -95.5 140.5zM705 428q0 92 -74 143.5t-189 55.5q-37 0 -98 -9q-14 -277 2 -380q48 -16 142 -16t155.5 57t61.5 149z" />
    <glyph glyph-name="c" unicode="c" horiz-adv-x="958" 
d="M209.5 106q-158.5 126 -158.5 528t139 609q143 199 394 199q167 0 246.5 -92t87.5 -205q-47 -92 -148 -180q-53 151 -109.5 177.5t-72.5 26.5q-116 -16 -182 -184t-66 -404q0 -237 72 -302.5t130 -69.5q109 -8 176 41t107 141q59 -102 78 -221q-113 -190 -377 -190
q-158 0 -316.5 126z" />
    <glyph glyph-name="d" unicode="d" horiz-adv-x="1052" 
d="M436 1440q291 0 418 -189.5t127 -552.5q0 -488 -213 -598t-353 -116t-223 22.5t-106 42.5q-16 291 -3 588t26 602q-27 87 -37 133q71 37 197 52.5t167 15.5zM346 238q27 -8 55 -9q159 0 248.5 176.5t49 442.5t-134 310t-191.5 22q-27 -442 -27 -942z" />
    <glyph glyph-name="e" unicode="e" horiz-adv-x="862" 
d="M735 559q-172 19 -385 -4l-1 -126q-1 -126 9 -181l191 1q191 1 235 -3q27 -74 27 -234q-283 -3 -688 -18q-37 121 -42 181.5t-5 109.5q-8 463 26 899q-20 83 -30 198q87 35 346 46.5t393 -27.5q0 -84 -16.5 -142.5t-22.5 -70.5q-266 37 -399 0q-19 -138 -19 -402l175 4
q175 3 241 -16q0 -143 -35 -215z" />
    <glyph glyph-name="f" unicode="f" horiz-adv-x="864" 
d="M611 795q113 0 163 -23q0 -146 -29 -213q-149 15 -393 -4q-8 -183 6.5 -311.5t18.5 -214.5q-60 -31 -126 -31q-67 0 -96.5 9t-52.5 32q-36 261 -30 523.5t37 625.5q-33 142 -33 196q90 39 377 49.5t360 -36.5q0 -123 -37 -199q-220 27 -395 0q-5 -24 -10.5 -133
t-9 -172.5t-3.5 -108.5q140 11 253 11z" />
    <glyph glyph-name="g" unicode="g" horiz-adv-x="1075" 
d="M584 1444q111 0 223 -69.5t145 -209.5v-2q0 -37 -166 -186q-26 71 -77 129.5t-110 58.5t-108 -48t-96 -167.5t-47 -353.5q0 -383 140.5 -383t202 52t61.5 171q0 68 -26.5 97.5t-129.5 29.5h-24q-23 0 -33 -2q-12 72 -2 158q141 45 279 45q139 0 173 -29q30 -335 -18 -721
q-48 -12 -107 -12t-70.5 7t-15.5 24l-8 41q-103 -92 -278 -92q-221 0 -329 189.5t-112 465.5q0 532 184.5 669.5t348.5 137.5z" />
    <glyph glyph-name="h" unicode="h" horiz-adv-x="1085" 
d="M342 266q0 -133 4 -258q-63 -25 -147 -20.5t-115 10.5q-12 156 -12 336t5 365.5t10 365.5t3 336q81 24 162 24q82 0 102.5 -4t18.5 -28q-6 -158 -9.5 -320t-9.5 -315q180 13 359 4q20 541 18 655q89 27 160 24q72 -3 97.5 -9.5t23.5 -24.5q-16 -338 -30.5 -680t-2.5 -700
q-65 -26 -148 -21.5t-114 10.5q-22 247 -12 504q-97 6 -359 -4q-4 -117 -4 -250z" />
    <glyph glyph-name="i" unicode="i" horiz-adv-x="481" 
d="M328 1438q25 0 48 -4t21 -29q-16 -338 -30.5 -679t-1.5 -699q-65 -26 -151.5 -21.5t-117.5 10.5q-21 235 -10.5 559t19 503t6.5 335q64 25 217 25z" />
    <glyph glyph-name="j" unicode="j" horiz-adv-x="833" 
d="M498 400v331q-2 172 -16.5 341t-14.5 325q59 32 149 28q93 0 146 -43q-12 -80 -1.5 -374t3.5 -505.5t-56 -319.5q-48 -109 -144.5 -157t-181.5 -46q-149 4 -236.5 61t-125.5 139q0 44 27 130t57 132q100 -248 234 -252q70 -2 115 76.5t45 133.5z" />
    <glyph glyph-name="k" unicode="k" horiz-adv-x="1013" 
d="M342 383q0 -158 14 -350q-163 -36 -272 -17q-19 242 -11.5 565.5t10.5 442.5t6 215t3 158q88 42 178 29t109 -27q-2 -41 -5 -101.5t-6 -128t-6.5 -137t-3.5 -125.5q128 212 253.5 350t154.5 160q141 0 238 -63q-23 -33 -184 -228t-261 -356q86 -183 230 -410.5
t186 -253.5q-101 -141 -232 -106q-150 121 -236.5 289t-123.5 241z" />
    <glyph glyph-name="l" unicode="l" horiz-adv-x="823" 
d="M271 1421q67 0 89.5 -5t22.5 -30q4 -221 -13.5 -614t-17.5 -518q284 5 408 -12q20 -77 20 -146.5t-4 -87.5q-133 -2 -281.5 -3t-242.5 -4t-113.5 3t-48.5 27q-18 92 -18 221q0 189 13 580.5t13 562.5q106 26 173 26z" />
    <glyph glyph-name="m" unicode="m" horiz-adv-x="1312" 
d="M1206 611q0 -304 15 -576q-101 -31 -250 -21q-37 273 -37 469q0 197 6 361v18q-92 -148 -285 -655q-6 -12 -20 -14.5t-21 6.5q-79 104 -151 330.5t-96 316.5l-9 22l-4 -24q-14 -136 -14 -319q0 -182 20 -500q-51 -19 -139 -19q-87 0 -131 6q-14 136 -14 302
q0 165 5 299.5t9 261.5t8 253.5t4 282.5q204 26 332 -10q31 -104 82 -281.5t125 -359.5q170 414 328 667q192 0 274 -38q-37 -474 -37 -778z" />
    <glyph glyph-name="n" unicode="n" horiz-adv-x="1048" 
d="M208.5 6q-87.5 0 -116.5 4q-18 162 -18 511.5t12 596.5t25 283q68 20 139.5 18t95.5 -6q106 -303 194.5 -480t149.5 -292q-4 70 -4 329.5t29 436.5q57 16 130 16t132 -4q-14 -311 -22.5 -667.5t18.5 -731.5q-70 -24 -180 -24q-157 174 -280.5 421t-166.5 367
q-19 -355 16 -755q-66 -23 -153.5 -23z" />
    <glyph glyph-name="o" unicode="o" horiz-adv-x="1130" 
d="M604 1415q225 0 350 -173.5t125 -488.5t-138 -544t-392 -229q-255 0 -374.5 200.5t-123.5 497.5q0 323 99.5 485t199 225.5t228.5 65.5q17 -17 26 -39zM395.5 339.5q51.5 -120.5 161.5 -122.5q109 -2 171.5 154.5t62.5 367.5t-44 315.5t-155 108.5q-61 -6 -108.5 -54
t-93.5 -158t-46 -301q0 -190 51.5 -310.5z" />
    <glyph glyph-name="p" unicode="p" horiz-adv-x="1005" 
d="M76 365v160q0 160 33 712q-25 88 -37 137q156 66 367 66t368.5 -119.5t157.5 -358.5t-145.5 -380.5t-362.5 -141.5q-56 0 -105 9q-9 -258 13 -426q-47 -16 -122 -22.5t-141 22.5q-26 102 -26 342zM426 688q272 0 272 275q0 106 -63.5 167.5t-175.5 61.5q-33 0 -78 -10
q-6 -129 -13.5 -284.5t-7.5 -199.5q40 -10 66 -10z" />
    <glyph glyph-name="q" unicode="q" horiz-adv-x="1134" 
d="M805 756q0 403 -213 411q-116 -11 -184 -168t-68 -341q0 -185 44 -298.5t116 -132.5q-44 152 -49 283q50 38 131.5 49.5t105.5 11.5q6 -203 17 -270q100 185 100 455zM1083 768q0 -389 -118.5 -535.5t-196.5 -189.5q17 -56 68 -186q-39 -57 -129 -58q-76 48 -140 189
q-392 0 -451 271t-65 409q0 325 99.5 487t199 226.5t228.5 66.5q17 -17 26 -39q225 0 352 -175.5t127 -465.5z" />
    <glyph glyph-name="r" unicode="r" horiz-adv-x="999" 
d="M417 735q41 0 93.5 30t114 98t61.5 151q0 84 -57.5 133t-204.5 49q-23 0 -49 -6q-4 -82 -13.5 -216t-9.5 -235q24 -4 65 -4zM233 -2q-82 0 -135 27q-29 269 -18 618t31 594q-34 99 -39 129q124 72 338 72q384 0 459 -171t75 -311t-90 -245t-233 -152q189 -319 337 -487
q-62 -44 -129 -59t-106 -15q-141 69 -373 502q-9 -182 17 -471q-52 -31 -134 -31z" />
    <glyph glyph-name="s" unicode="s" horiz-adv-x="956" 
d="M444 190q160 0 156 115q-3 93 -111 148t-211.5 97.5t-166 142t-66.5 205.5q-8 213 113.5 357t330.5 183q117 20 199 -2.5t128 -52t68 -93.5t5 -152.5t-47 -156.5q-28 -44 -128 -56t-124 -10q34 75 45 189q6 53 -33 71.5t-88 5.5q-90 -24 -139 -107t-39 -158
q19 -138 202 -221q183 -84 245.5 -137.5t92 -111t31.5 -145.5t-69 -207t-385 -119q-129 0 -227.5 34t-133.5 104q0 141 62 241q53 -82 130.5 -123t159.5 -41z" />
    <glyph glyph-name="t" unicode="t" horiz-adv-x="917" 
d="M66 1415q244 25 476 17.5t310 -13.5q17 -92 12 -229q-57 0 -136 3t-142 -1q-26 -550 8 -1161q-112 -50 -283 -17q-10 152 -10 307.5t3 308t6 295t1 265.5q-131 0 -258 -10q-2 20 -2 97.5t15 137.5z" />
    <glyph glyph-name="u" unicode="u" 
d="M922 25q-72 -31 -159 -21t-101 19q-2 23 -1 57.5t-4 52.5q-27 -59 -92 -100t-137 -45q-333 -15 -348 320t13.5 652t25.5 461q170 12 268 2q0 -139 -11 -268t-28.5 -338t2.5 -426q8 -82 44 -122t82 -41t94 34t81 100q34 380 15 1033q126 26 272 6q0 -226 -13.5 -708
t-2.5 -668z" />
    <glyph glyph-name="v" unicode="v" horiz-adv-x="1056" 
d="M479 354q39 297 150 693q74 250 129 378q68 4 142.5 -6t117.5 -35q-47 -137 -87 -251.5t-71 -212.5q-61 -194 -86 -297t-66 -263t-65 -340q-70 -22 -260 -22q-64 64 -182.5 477.5t-159.5 941.5q132 26 266 4q0 -260 68.5 -601.5t103.5 -465.5z" />
    <glyph glyph-name="w" unicode="w" horiz-adv-x="1517" 
d="M41 1434q190 22 274 -19q0 -225 28 -436t58 -401q81 386 160.5 604.5t97.5 251.5q135 14 209 -29q33 -447 74 -646.5t53 -230.5q27 212 109 525t121 377q159 0 252 -60q-151 -399 -223 -771t-95 -581q-96 -20 -149.5 -17t-79.5 3q-149 312 -228 854q-125 -475 -184 -852
q-138 -15 -231 4q-85 226 -165.5 749.5t-80.5 674.5z" />
    <glyph glyph-name="x" unicode="x" horiz-adv-x="1038" 
d="M1008 63q-88 -45 -240 -45q-53 38 -145.5 221t-130.5 277q-46 -87 -125.5 -282t-100.5 -240q-143 0 -235 47q70 250 286 700q-175 367 -266 664q49 27 127 39t144 2q21 -88 84 -265t88 -231q124 286 235 494q148 0 248 -58q-192 -378 -313 -643q122 -267 344 -680z" />
    <glyph glyph-name="y" unicode="y" horiz-adv-x="1136" 
d="M442 35q26 216 19 424q-89 271 -232 545t-194 372q142 68 268 68q20 -37 107.5 -198t189.5 -468q113 372 160 483t82 185q147 0 260 -60q-130 -288 -209.5 -520.5t-136.5 -406.5q-2 -41 -4.5 -184t-22.5 -261q-224 -24 -287 21z" />
    <glyph glyph-name="z" unicode="z" horiz-adv-x="993" 
d="M616 1204q-283 15 -495 -14q0 126 49 213q386 48 739 4q74 -88 17.5 -184.5t-76.5 -128.5t-55 -93t-191.5 -335t-218.5 -433q39 0 108.5 1.5t197 -6.5t179.5 -48q0 -111 -26 -168q-263 14 -742 -6q-51 51 -51 156q106 291 565 1042z" />
    <glyph glyph-name="braceleft" unicode="{" horiz-adv-x="722" 
d="M270 1221q0 233 125 347.5t346 78.5q18 -16 29.5 -50t1.5 -81q-81 18 -149 -33q-81 -68 -59 -249t20 -235q-4 -104 -64.5 -186t-159.5 -117q100 -16 164 -118t64 -228q0 -37 -5 -90t-11 -148.5t38 -179t176 -61.5q14 -41 6 -70.5t-24 -60.5q-125 -23 -217 -2.5t-145 59.5
q-141 118 -126 336.5t15 303.5t-43 135.5t-160 45.5q-28 14 -30 66t30 84q111 4 153 44t47 102.5t-8.5 142.5t-13.5 164z" />
    <glyph glyph-name="bar" unicode="|" horiz-adv-x="540" 
d="M385 467q0 -642 -6 -954q-82 -36 -152.5 -28.5t-81.5 15.5q-22 359 -22 1098.5t6 927.5q23 10 144 10t145 -8q-33 -419 -33 -1061z" />
    <glyph glyph-name="braceright" unicode="}" horiz-adv-x="724" 
d="M455 186q0 -233 -125 -347.5t-346 -78.5q-18 16 -29.5 50t-1.5 81q81 -18 149 33q81 68 59 249t-20 235q4 104 64.5 186t159.5 117q-100 16 -164 118t-64 228q0 37 5 90t11 148.5t-38 179t-176 61.5q-14 41 -6 70.5t24 60.5q125 23 217 2.5t145 -59.5
q141 -118 126 -337.5t-15 -303.5t43 -134.5t160 -46.5q28 -14 30 -67.5t-30 -81.5q-111 -4 -153 -44t-47 -102.5t8.5 -142.5t13.5 -164z" />
    <glyph glyph-name="asciitilde" unicode="~" horiz-adv-x="1030" 
d="M254 524q-35 -10 -98.5 -10t-81.5 6q-4 78 4 151t48 131q81 118 225 118t245 -134q42 -61 98 -61q57 0 80.5 58t9.5 128q65 32 168 15q19 -198 -59.5 -307t-216.5 -109q-72 0 -114 26.5t-72.5 60.5t-59.5 64.5t-70 36.5q-82 0 -106 -69q-17 -50 0 -105z" />
    <glyph glyph-name="Zcaron" horiz-adv-x="993" 
d="M616 1204q-283 15 -495 -14q0 126 49 213q378 47 739 4q74 -88 -15 -240q-24 -41 -44 -73q-32 -52 -134 -231q-278 -486 -331 -630q39 0 109 1q301 4 376 -54q0 -111 -26 -168q-263 14 -742 -6q-49 49 -51 156q106 291 565 1042zM530 1718q104 104 164 183
q122 -10 174 -37q-63 -100 -260 -314q-82 -6 -164 0q-87 91 -164 195q-78 104 -90 127q55 23 162 31q37 -41 84 -89z" />
    <glyph glyph-name="Zcaron" unicode="&#x17d;" horiz-adv-x="993" 
d="M616 1204q-283 15 -495 -14q0 126 49 213q378 47 739 4q74 -88 -15 -240q-24 -41 -44 -73q-32 -52 -134 -231q-278 -486 -331 -630q39 0 109 1q301 4 376 -54q0 -111 -26 -168q-263 14 -742 -6q-49 49 -51 156q106 291 565 1042zM530 1718q104 104 164 183
q122 -10 174 -37q-63 -100 -260 -314q-82 -6 -164 0q-87 91 -164 195q-78 104 -90 127q55 23 162 31q37 -41 84 -89z" />
    <glyph glyph-name="zcaron" horiz-adv-x="815" 
d="M444 1298q104 104 164 183q122 -10 174 -37q-63 -100 -260 -314q-82 -6 -164 0q-105 110 -173 205t-81 117q62 26 162 31q37 -41 84 -89zM450 12q-124 0 -374 -10q-41 46 -45 119q39 117 147.5 283.5t253.5 383.5q-160 6 -317 -10q-28 59 -39 185q175 41 391.5 36.5
t282.5 -12.5l2 -47q30 -45 30 -94q5 -23 -32 -72q-117 -160 -208 -293t-151 -262q100 0 184 -7t152 -36q6 -77 -22 -170q-131 6 -255 6z" />
    <glyph glyph-name="zcaron" unicode="&#x17e;" horiz-adv-x="815" 
d="M444 1298q104 104 164 183q122 -10 174 -37q-63 -100 -260 -314q-82 -6 -164 0q-105 110 -173 205t-81 117q62 26 162 31q37 -41 84 -89zM450 12q-124 0 -374 -10q-41 46 -45 119q39 117 147.5 283.5t253.5 383.5q-160 6 -317 -10q-28 59 -39 185q175 41 391.5 36.5
t282.5 -12.5l2 -47q30 -45 30 -94q5 -23 -32 -72q-117 -160 -208 -293t-151 -262q100 0 184 -7t152 -36q6 -77 -22 -170q-131 6 -255 6z" />
    <glyph glyph-name="uni00A0" unicode="&#xa0;" horiz-adv-x="153" 
 />
    <glyph glyph-name="exclamdown" unicode="&#xa1;" horiz-adv-x="528" 
d="M289 868q67 0 98 -32q8 -80 39.5 -365t14.5 -452.5t-67 -204.5t-118 -37t-102.5 28.5t-45 73.5t-4.5 100.5t24 193.5t42.5 319.5t17.5 345.5q34 30 101 30zM123 1102q0 66 51 109.5t120 40.5t108.5 -40.5t39.5 -87.5q0 -85 -50.5 -129.5t-119.5 -40.5q-68 4 -108.5 43
t-40.5 105z" />
    <glyph glyph-name="cent" unicode="&#xa2;" horiz-adv-x="837" 
d="M428 981q-55 -25 -89 -95q-70 -146 -25 -312q22 -77 75 -113q5 85 39 520zM371 -29q0 131 8 289q-141 27 -226 133t-90 260q-13 361 206 489q75 44 182 50l28 274q25 10 61 12t54 -12l-31 -278q85 -10 143 -55t78 -99q-54 -95 -127 -147q-48 69 -116 92l-54 -539
q101 18 147 129q9 25 15 35q49 -40 79 -64t58 -55q-18 -85 -102 -156t-215 -75l-25 -283q-46 -23 -62 -10q-5 4 -11 10z" />
    <glyph glyph-name="sterling" unicode="&#xa3;" horiz-adv-x="1067" 
d="M471 797q58 4 163.5 4t168.5 -13q44 -19 59 -117t-8 -112q-133 36 -348 21q0 -120 -30 -215t-48 -127q72 20 146.5 15t119.5 -10t88 -7q131 -6 209 55q6 -37 6 -88t-25.5 -130t-144.5 -83q-80 -3 -212.5 19t-235 22t-283.5 -43q125 200 141.5 353t8.5 218l-31 -2l-125 -6
q-34 11 -36 75.5t16 137.5l139 14q-146 337 -24.5 508.5t407.5 167.5q174 -8 258 -69.5t108 -102.5q-7 -95 -106 -211q-41 68 -130 109.5t-167 25.5q-118 -23 -114.5 -163t30.5 -246z" />
    <glyph glyph-name="currency" unicode="&#xa4;" horiz-adv-x="1067" 
d="M418 580q312 0 393 -9q0 -51 -13.5 -102t-19.5 -59q-84 2 -167 4t-179 2q43 -195 184 -207q166 -11 217.5 65t69.5 117q59 -102 78 -221q-113 -190 -383 -190t-353 171t-100 261l-71 -2q-27 82 -4 163l59 2q-2 59 0 121l-63 -2q-15 15 -15 74.5t15 89.5l73 2
q40 420 215.5 501t288.5 81q186 0 274 -83.5t93 -191.5q-46 -91 -148 -182q-45 109 -92 149t-113 37q-171 -24 -219 -309q240 0 428 -8q-9 -89 -30 -162l-414 8q-4 -50 -4 -120z" />
    <glyph glyph-name="yen" unicode="&#xa5;" horiz-adv-x="1136" 
d="M180 266q0 62 2 78l279 6v121q-177 0 -256 -6q-28 28 -25.5 95t6.5 85l211 4q-85 206 -203 427.5t-159 299.5q142 68 268 68q20 -37 102 -181t195 -464q123 395 242 647q147 0 260 -60q-154 -335 -291 -739q143 -3 219 -8q7 -77 -2 -176l-274 6v-43q0 -43 -2 -78
q96 -2 168.5 -3t101.5 -5q12 -36 12 -89t-16 -85l-275 6q-3 -67 -14 -158q-224 -24 -287 21q10 69 13 137l-250 -6q-25 38 -25 100z" />
    <glyph glyph-name="brokenbar" unicode="&#xa6;" horiz-adv-x="540" 
d="M273 1536q121 0 145 -8q-19 -221 -29 -858q-21 -6 -38 -6h-108q-91 0 -120 -2q-4 473 6 864q23 10 144 10zM255 369q90 0 132 -7q-2 -279 -3 -488.5t-5 -360.5q-82 -36 -152.5 -28.5t-81.5 15.5q-11 189 -20 865q40 4 130 4z" />
    <glyph glyph-name="section" unicode="&#xa7;" horiz-adv-x="985" 
d="M651 407q0 26 -23.5 47t-55 39.5t-64.5 34t-49 23.5q-45 -25 -82 -65t-37 -89q0 -29 55.5 -62.5t87.5 -43.5q60 0 99 22.5t54 45t15 48.5zM102 874q0 102 77 176t171 109q171 64 293 66q121 2 200.5 -19t49.5 -144.5t-64 -168.5q-51 0 -97 23.5t-56 33.5q35 60 28 77
q-12 32 -114 13q-103 -18 -180 -67q-37 -23 -45.5 -57.5t30.5 -72.5t92.5 -62.5t109.5 -48t113.5 -50.5t106.5 -70q86 -74 86 -168q0 -158 -225 -231q155 -80 183 -142.5t29.5 -137.5t-79.5 -140q-53 -43 -143.5 -65t-171.5 -24q-138 -5 -243 15.5t-134 57.5t-14 101t53 83
q85 -47 127 -59q32 -21 180.5 -21t148.5 60q0 31 -39.5 60t-131 72.5t-180.5 89.5t-135 100t-46 128t51 140.5t143 113.5q-174 103 -174 229z" />
    <glyph glyph-name="dieresis" unicode="&#xa8;" horiz-adv-x="921" 
d="M255 1847q69 0 112 -38.5t43 -104.5t-53.5 -111t-122.5 -45t-110.5 40t-41.5 107t52 109.5t121 42.5zM685 1847q69 0 112 -38.5t43 -104.5t-54 -111t-122 -45t-110 40t-42 107t52 109.5t121 42.5z" />
    <glyph glyph-name="copyright" unicode="&#xa9;" horiz-adv-x="1626" 
d="M517.5 1073q118.5 127 329.5 127t279 -117.5t78 -193.5h-133q-16 82 -79.5 132t-144.5 50t-134.5 -25.5t-89 -69.5t-54 -103.5t-18.5 -162t79.5 -201.5t209.5 -99q94 0 156.5 52t74.5 138h135q-28 -145 -129 -232t-253 -87q-84 0 -165 35.5t-170.5 131t-89.5 297
t118.5 328.5zM340 1138q-127 -130 -127 -398t173 -445.5t427 -177.5t427 177.5t173 445.5t-173 445t-426 177q-126 0 -236.5 -47t-237.5 -177zM814 1489q153 0 289 -56.5t238.5 -155.5t163 -236.5t60.5 -300.5t-60.5 -301t-163 -238.5t-238.5 -156.5t-289 -56t-289 56
t-239.5 156.5t-164 239t-60.5 300.5t60.5 300t164 237t239.5 155.5t289 56.5z" />
    <glyph glyph-name="ordfeminine" unicode="&#xaa;" horiz-adv-x="868" 
d="M549 653q-85 -92 -210 -92t-193 81.5t-68 177.5t32.5 153t86.5 102q105 78 286 78h21q20 0 35 -2q12 180 -78 186q-66 0 -116 -54t-64 -85q-43 23 -88.5 60.5t-65.5 72.5q143 182 358 187q119 2 193 -53t86 -153q14 -112 8 -343t19 -330q-31 -23 -86.5 -44.5
t-106.5 -21.5q-28 18 -49 80zM477 1012q-70 0 -124 -43t-50 -117q0 -29 22.5 -62.5t51.5 -33.5q53 2 103 34.5t55 94.5v121q-29 6 -58 6z" />
    <glyph glyph-name="guillemotleft" unicode="&#xab;" horiz-adv-x="1153" 
d="M563 642q0 12 10 67q222 252 418 508q74 -127 74 -281q-56 -90 -146 -189.5t-122 -136.5q33 -37 70.5 -75.5t99.5 -104t104 -143.5q0 -151 -72 -283q-137 176 -245.5 299t-190.5 219v120zM84 570v122q115 115 426 510q78 -121 82 -278q-49 -86 -146.5 -183.5
t-134.5 -136.5q202 -202 281 -319q4 -175 -66 -287q-263 325 -436 514q-6 50 -6 58z" />
    <glyph glyph-name="logicalnot" unicode="&#xac;" horiz-adv-x="1208" 
d="M1126 636v-355q0 -44 -8 -68q-108 -10 -209 -10q-24 48 -24 422q-106 7 -308 0t-302.5 -4.5t-192.5 18.5q4 18 15 94.5t30 120.5q159 -9 381 -2l272 2q271 2 336 -10q10 -175 10 -208z" />
    <glyph glyph-name="uni00AD" unicode="&#xad;" horiz-adv-x="927" 
d="M778 543q-203 9 -674 4q-23 70 -10.5 129t29 87t48.5 29t87 2t122.5 2t235.5 -2t195 -6q29 -29 22.5 -135t-55.5 -110z" />
    <glyph glyph-name="uni00AD" unicode="&#x2212;" horiz-adv-x="927" 
d="M778 543q-203 9 -674 4q-23 70 -10.5 129t29 87t48.5 29t87 2t122.5 2t235.5 -2t195 -6q29 -29 22.5 -135t-55.5 -110z" />
    <glyph glyph-name="registered" unicode="&#xae;" horiz-adv-x="1626" 
d="M813 788q103 0 139.5 18.5t54 47.5t17.5 77q0 82 -53.5 110t-134.5 28h-181v-281h158zM655 684v-377h-127v867h326q150 0 223.5 -59.5t73.5 -188.5q-7 -212 -217 -238l244 -381h-146l-227 377h-150zM211 740q0 -269 174.5 -446t428.5 -177t426.5 177.5t172.5 445.5
t-173 445t-426 177q-254 0 -428.5 -176.5t-174.5 -445.5zM814 1489q153 0 289 -56.5t238.5 -155.5t163 -236.5t60.5 -300.5t-60.5 -301t-163 -238.5t-238.5 -156.5t-289 -56t-289 56t-239.5 156.5t-164 239t-60.5 300.5t60.5 300t164 237t239.5 155.5t289 56.5z" />
    <glyph glyph-name="macron" unicode="&#xaf;" horiz-adv-x="921" 
d="M539 1571q-182 0 -422 -6q-44 19 -36.5 85.5t17.5 86.5q388 14 532 8t179 -6q20 -23 19 -75t-17 -97q-90 4 -272 4z" />
    <glyph glyph-name="degree" unicode="&#xb0;" horiz-adv-x="628" 
d="M515 1052.5q-83 -75.5 -196 -75.5t-187.5 71.5t-74.5 174.5v14q8 110 86 180t199 69t188.5 -73t67.5 -179q0 -106 -83 -181.5zM416 1234q0 34 -20 60.5t-70 26.5t-74.5 -32.5t-20.5 -66.5q9 -76 76 -83h19q39 0 64.5 30.5t25.5 64.5z" />
    <glyph glyph-name="plusminus" unicode="&#xb1;" horiz-adv-x="1093" 
d="M560 1255q89 0 112 -32l-17 -373q39 0 84 -1t128.5 -3t121.5 -4q22 -30 24 -113.5t-16 -110.5q-117 13 -348 13q-5 -113 4 -316q283 -10 340 -32q0 -144 -37 -191q-423 24 -835 2q-35 102 0 203q92 13 307 18q-6 85 0 314q-94 0 -342 -15q-15 95 -4.5 151t20.5 69
q122 16 330 16q10 170 10 379q29 26 118 26z" />
    <glyph glyph-name="twosuperior" unicode="&#xb2;" horiz-adv-x="821" 
d="M739 645q16 -72 2 -137.5t-22 -75.5q-177 22 -637 2q-33 63 -29 127q409 412 471 604q25 68 0.5 104t-66.5 38q-72 3 -140.5 -49t-108.5 -115q-86 48 -125 141q78 123 197 176.5t238 48.5q119 -4 186 -80t63 -172q-7 -164 -104.5 -309t-247.5 -293q27 2 131.5 2
t191.5 -12z" />
    <glyph glyph-name="threesuperior" unicode="&#xb3;" horiz-adv-x="839" 
d="M479 1505q144 0 221.5 -66.5t77.5 -189.5q0 -86 -51 -155.5t-119 -104.5q74 -29 118 -99.5t44 -151.5q0 -160 -105.5 -242t-278.5 -82t-240.5 53t-84.5 86q2 41 22.5 92t47.5 80q41 -41 96 -77t131 -36t129.5 33t53.5 96t-46 92t-102 29l-166 -4q-33 31 -32.5 78t6.5 92
q183 35 237 57.5t80.5 52t32.5 76.5q0 35 -23.5 65t-52.5 30q-70 0 -148.5 -35t-136.5 -105q-65 70 -77 164q48 73 165 122.5t201 49.5z" />
    <glyph glyph-name="acute" unicode="&#xb4;" horiz-adv-x="612" 
d="M555 1878q-64 -86 -256 -257q-45 -40 -72 -60q-97 -9 -159 6q45 94 119 197q73 104 96 126q30 10 136 9q105 0 136 -21z" />
    <glyph glyph-name="mu" unicode="&#xb5;" horiz-adv-x="925" 
d="M426.5 195q63.5 0 130.5 67q-2 57 -2 308t39 419q122 22 179.5 5t70.5 -27q-35 -339 -13 -901q-43 -23 -88 -42.5t-104 -23.5q-26 33 -41 98q-26 -79 -91 -105t-103.5 -26t-67.5 15q-1 -70 6 -463q-74 -24 -131 -11t-85 29.5t-28 44.5q4 147 -5 404t-12 445t23 515
q82 49 161 40t110 -19q-33 -229 -31 -431t8 -250q11 -91 74.5 -91z" />
    <glyph glyph-name="mu" unicode="&#x3bc;" horiz-adv-x="925" 
d="M426.5 195q63.5 0 130.5 67q-2 57 -2 308t39 419q122 22 179.5 5t70.5 -27q-35 -339 -13 -901q-43 -23 -88 -42.5t-104 -23.5q-26 33 -41 98q-26 -79 -91 -105t-103.5 -26t-67.5 15q-1 -70 6 -463q-74 -24 -131 -11t-85 29.5t-28 44.5q4 147 -5 404t-12 445t23 515
q82 49 161 40t110 -19q-33 -229 -31 -431t8 -250q11 -91 74.5 -91z" />
    <glyph glyph-name="paragraph" unicode="&#xb6;" horiz-adv-x="1226" 
d="M866 258v143q0 143 56 635q-23 4 -53.5 9.5t-90.5 5.5q0 -116 -18 -223q-40 -230 -38 -589.5t40 -504.5q-52 -27 -180 -27q-76 156 -62 643q-73 -29 -160 -24q-154 8 -216 111t-62 259q0 290 159 409.5t478 119.5q332 -16 426 -88q-14 -176 -56 -587.5t33 -805.5
q-48 -27 -180 -27q-76 104 -76 541z" />
    <glyph glyph-name="periodcentered" unicode="&#xb7;" horiz-adv-x="471" 
d="M245 895q69 0 111 -39q42 -38 43 -104q0 -66 -53 -111t-122 -45q-68 0 -110 40t-42 106t52 110q52 43 121 43z" />
    <glyph glyph-name="cedilla" unicode="&#xb8;" horiz-adv-x="677" 
d="M398 -119q61 0 110 -48.5t49 -114.5q0 -115 -81.5 -181.5t-194.5 -66.5q-161 0 -224 90l43 82q18 -14 61.5 -31t83.5 -17t78.5 26t38.5 67q0 128 -186 88l-53 45q23 46 81 112t75 82q67 13 124 0q-41 -51 -98 -145q32 12 93 12z" />
    <glyph glyph-name="onesuperior" unicode="&#xb9;" horiz-adv-x="460" 
d="M288.5 1493q51.5 0 98.5 -6q4 -96 1 -227.5t-6 -272.5t-3 -282.5t10 -258.5q-151 -40 -235 3q-13 196 -1.5 455t17.5 386q-80 13 -109 27q44 79 117 164q59 12 110.5 12z" />
    <glyph glyph-name="ordmasculine" unicode="&#xba;" horiz-adv-x="890" 
d="M459 1499q190 7 271.5 -130t86.5 -331q7 -321 -132 -402t-235 -84q-175 -6 -271.5 122.5t-100.5 310.5q-8 234 87 378.5t255 154.5q21 -5 39 -19zM354 818q32 -73 93 -72q60 1 97.5 87.5t33.5 215.5t-36 200.5t-81 69.5t-78 -36t-50 -103t-16 -179t37 -183z" />
    <glyph glyph-name="guillemotright" unicode="&#xbb;" horiz-adv-x="1153" 
d="M590 646v-124q-295 -338 -436 -518q-72 132 -72 283q42 78 104 143.5t100 104t70 75.5q-98 104 -171.5 196.5t-96.5 129.5q0 152 74 281q246 -317 418 -508q10 -55 10 -63zM1069 595q0 -5 -2 -27.5t-4 -55.5q-192 -209 -436 -514q-70 112 -66 287q79 117 281 319
q-37 39 -134.5 136.5t-146.5 183.5q4 157 82 278q311 -395 426 -510v-97z" />
    <glyph glyph-name="onequarter" unicode="&#xbc;" horiz-adv-x="1755" 
d="M1311 162.5q0 83.5 -2 109.5q-205 0 -404 -24q-28 82 -43 158q84 201 387 671q133 45 348 8q-42 -326 -51 -612q109 -4 148 -24q0 -110 -47 -170h-115q-4 -63 -5 -128t-11 -133q-82 -16 -191 -16q-14 77 -14 160.5zM1130 463q90 8 183 8q15 243 30 397
q-137 -243 -213 -405zM348 -16q168 525 359.5 964.5t302.5 620.5q47 0 105.5 -15.5t88.5 -37.5q-77 -138 -291 -606t-391 -971q-84 0 -174 45zM288.5 1493q51.5 0 98.5 -6q4 -96 1 -228.5t-6 -274.5t-3 -284.5t10 -259.5q-150 -40 -235 2q-13 199 -1.5 460t17.5 388
q-80 13 -109 27q44 79 117 164q59 12 110.5 12z" />
    <glyph glyph-name="onehalf" unicode="&#xbd;" horiz-adv-x="1765" 
d="M348 -16q168 525 359.5 964.5t302.5 620.5q47 0 105.5 -15.5t88.5 -37.5q-77 -138 -291 -606t-391 -971q-84 0 -174 45zM1462 838q0 23 -15 41t-44 18q-78 0 -136.5 -53t-109.5 -133q-100 54 -137 129q154 264 424 264q125 0 192.5 -70.5t67.5 -177.5q0 -250 -330 -627
q182 14 320 4q21 -64 8.5 -133t-21.5 -82q-208 20 -634 -18q-35 58 -35 121q242 272 346 450.5t104 266.5zM288.5 1493q51.5 0 98.5 -6q4 -96 1 -228.5t-6 -274.5t-3 -284.5t10 -259.5q-150 -40 -235 2q-13 199 -1.5 460t17.5 388q-80 13 -109 27q44 79 117 164
q59 12 110.5 12z" />
    <glyph glyph-name="threequarters" unicode="&#xbe;" horiz-adv-x="2041" 
d="M1597 165q0 81 -2 107q-205 0 -403 -24q-28 82 -43 158q84 201 387 671q133 45 348 8q-42 -326 -51 -612q111 -4 147 -24q0 -113 -47 -170h-114q-4 -63 -5.5 -128t-11.5 -133q-82 -16 -190 -16q-15 82 -15 163zM480 1513q146 0 222 -67t76 -189q0 -86 -51 -155.5
t-119 -104.5q74 -29 118 -99.5t44 -151.5q0 -160 -105.5 -242t-278.5 -82t-240.5 53t-84.5 86q2 41 22.5 90t47.5 78q41 -41 96 -77t131 -36t129.5 35t53.5 99t-46 92t-102 28l-166 -4q-33 31 -32.5 78t6.5 92q183 35 237 57.5t80.5 52.5t32.5 77q0 35 -23.5 64.5
t-55.5 29.5q-59 0 -143 -39.5t-147 -95.5q-63 68 -78 170q45 56 169 108.5t207 52.5zM633 -16q168 525 358.5 962t302.5 623q47 0 105.5 -15.5t89.5 -37.5q-77 -138 -291 -606t-391 -971q-84 0 -174 45zM1417 463q90 8 182 8q13 218 31 397q-145 -259 -213 -405z" />
    <glyph glyph-name="questiondown" unicode="&#xbf;" horiz-adv-x="903" 
d="M562 944q-69 0 -111.5 39t-42.5 105t53 110.5t122 44.5t110.5 -40.5t41.5 -106.5t-52 -109t-121 -43zM444 -223q-178 0 -288.5 95t-110.5 269q0 102 42 203.5t161 185.5q78 55 138 100.5t78 89.5t7 103q115 31 195 27q92 -160 -2 -259t-160 -153q-164 -134 -164 -268
q0 -57 38 -95t110 -38t144.5 51t125.5 123q105 -117 84 -291q-171 -143 -398 -143z" />
    <glyph glyph-name="Agrave" unicode="&#xc0;" horiz-adv-x="1052" 
d="M526 1145q-96 -374 -137 -606q115 8 227 4q-12 59 -43 258q-32 200 -47 344zM342 297q-30 -91 -39 -281q-19 -6 -127 -6q-136 0 -145 45q27 350 287 1206q32 101 53 158q108 17 204 17q95 0 150 -25q98 -649 163 -930q66 -282 124 -444q-89 -39 -232 -39q-45 27 -68 91
q-24 64 -53 214q-12 2 -94 2q-83 0 -223 -8zM137 1878q26 17 129 21t144 -9q65 -65 176 -254q27 -45 39 -69q-64 -15 -160 -6q-108 80 -261 240q-44 46 -67 77z" />
    <glyph glyph-name="Aacute" unicode="&#xc1;" horiz-adv-x="1052" 
d="M526 1145q-96 -374 -137 -606q115 8 227 4q-12 59 -43 258q-32 200 -47 344zM342 297q-30 -91 -39 -281q-19 -6 -127 -6q-136 0 -145 45q27 350 287 1206q32 101 53 158q108 17 204 17q95 0 150 -25q98 -649 163 -930q66 -282 124 -444q-89 -39 -232 -39q-45 27 -68 91
q-24 64 -53 214q-12 2 -94 2q-83 0 -223 -8zM948 1878q-64 -86 -256 -257q-45 -40 -71 -60q-98 -10 -160 6q16 33 93 156q77 122 122 167q30 10 136 9q105 0 136 -21z" />
    <glyph glyph-name="Acircumflex" unicode="&#xc2;" horiz-adv-x="1052" 
d="M526 1145q-96 -374 -137 -606q115 8 227 4q-12 59 -43 258q-32 200 -47 344zM342 297q-30 -91 -39 -281q-19 -6 -127 -6q-136 0 -145 45q27 350 287 1206q32 101 53 158q108 17 204 17q95 0 150 -25q98 -649 163 -930q66 -282 124 -444q-89 -39 -232 -39q-45 27 -68 91
q-24 64 -53 214q-12 2 -94 2q-83 0 -223 -8zM709 1524q-48 56 -164 182q-123 -123 -178 -184q-103 5 -162 30q15 30 93 132q77 102 161 190q82 6 164 0q195 -211 235 -277q15 -22 25 -36q-52 -27 -174 -37z" />
    <glyph glyph-name="Atilde" unicode="&#xc3;" horiz-adv-x="1052" 
d="M526 1145q-96 -374 -137 -606q115 8 227 4q-12 59 -43 258q-32 200 -47 344zM342 297q-30 -91 -39 -281q-19 -6 -127 -6q-136 0 -145 45q27 350 287 1206q32 101 53 158q108 17 204 17q95 0 150 -25q98 -649 163 -930q66 -282 124 -444q-89 -39 -232 -39q-45 27 -68 91
q-24 64 -53 214q-12 2 -94 2q-83 0 -223 -8zM464 1644q-40 40 -51 39q-50 0 -79 -65q-14 -31 -27 -84q-87 0 -129 20q-4 10 -4 20v21q4 119 70 194t159 75t187 -107q57 -64 115 -53q35 6 49 47t4 102q12 1 30 5q51 10 115 2q17 -48 17 -98q-1 -106 -43 -156
q-63 -76 -181 -76q-117 0 -232 114z" />
    <glyph glyph-name="Adieresis" unicode="&#xc4;" horiz-adv-x="1052" 
d="M526 1145q-96 -374 -137 -606q115 8 227 4q-12 59 -43 258q-32 200 -47 344zM342 297q-30 -91 -39 -281q-19 -6 -127 -6q-136 0 -145 45q27 350 287 1206q32 101 53 158q108 17 204 17q95 0 150 -25q98 -649 163 -930q66 -282 124 -444q-89 -39 -232 -39q-45 27 -68 91
q-24 64 -53 214q-12 2 -94 2q-83 0 -223 -8zM174 1695q0 67 52 109t121 43q69 0 112 -39q43 -38 43 -104t-53 -111t-122 -45t-111 40t-42 107zM604 1695q0 67 52 109t121 43q69 0 112 -39q43 -38 43 -104t-53 -111t-122 -45t-111 40t-42 107z" />
    <glyph glyph-name="Aring" unicode="&#xc5;" horiz-adv-x="1052" 
d="M526 1145q-96 -374 -137 -606q115 8 227 4q-12 59 -43 258q-32 200 -47 344zM342 297q-30 -91 -39 -281q-19 -6 -127 -6q-136 0 -145 45q27 350 287 1206q32 101 53 158q108 17 204 17q95 0 150 -25q98 -649 163 -930q66 -282 124 -444q-89 -39 -232 -39q-45 27 -68 91
q-24 64 -53 214q-12 2 -94 2q-83 0 -223 -8zM328 1747v12q6 90 69 147q65 56 163 55t153 -59t55 -146t-66 -148t-159 -61t-154 58t-61 142zM621 1756q1 28 -17 50t-58 21q-40 0 -60 -26t-17 -56q11 -65 73 -65q38 0 58 24t21 52z" />
    <glyph glyph-name="AE" unicode="&#xc6;" horiz-adv-x="1517" 
d="M498 539q119 8 231 4q5 333 23 602q-150 -334 -254 -606zM403 297q-36 -64 -92 -285q-18 -6 -147 -6t-129 45q38 149 231 593t369 753q63 19 269 23.5t339 3t223 -22.5q0 -85 -15 -142t-21 -69q-149 21 -260 16.5t-142 -10.5q-18 -130 -18 -410l175 4q175 3 240 -16
q0 -141 -34 -215q-172 19 -385 -4l-1 -126q-1 -126 9 -181l190 1q190 1 236 -3q31 -85 26 -234q-280 -3 -686 -18q-34 34 -44.5 94t-10.5 215q-12 2 -97 2t-225 -8z" />
    <glyph glyph-name="Ccedilla" unicode="&#xc7;" horiz-adv-x="958" 
d="M644 -119q61 0 110 -48.5t49 -114.5q0 -115 -81.5 -181.5t-195.5 -66.5q-160 0 -223 90l43 82q18 -14 61 -31t83 -17t79 26t39 67q0 128 -186 88l-53 45q26 58 125 162q-145 10 -294 133.5t-149 522.5q0 398 139 605q143 199 394 199q167 0 246.5 -92t87.5 -205
q-47 -92 -148 -180q-53 151 -109.5 177.5t-72.5 26.5q-116 -16 -182 -184t-66 -404q0 -237 72 -302.5t130 -69.5q109 -8 176 41t107 141q59 -102 78 -221q-91 -153 -274 -182q-16 -23 -36 -51.5t-42 -67.5q32 12 93 12z" />
    <glyph glyph-name="Egrave" unicode="&#xc8;" horiz-adv-x="862" 
d="M735 559q-171 19 -385 -4l-2 -154q0 -98 10 -153l229 2q153 0 197 -4q27 -74 27 -234q-283 -3 -688 -18q-37 121 -42 181q-5 61 -5 110q-8 463 26 899q-20 83 -30 198q90 36 351 46t388 -27q-1 -90 -17 -145q-16 -56 -22 -68q-266 37 -399 0q-19 -138 -19 -402l208 7
q142 0 208 -19q0 -143 -35 -215zM76 1878q26 17 129 21t143 -9q75 -75 176 -254q27 -45 39 -69q-63 -15 -160 -6q-95 71 -261 240q-43 46 -66 77z" />
    <glyph glyph-name="Eacute" unicode="&#xc9;" horiz-adv-x="862" 
d="M735 559q-171 19 -385 -4l-2 -154q0 -98 10 -153l229 2q153 0 197 -4q27 -74 27 -234q-283 -3 -688 -18q-37 121 -42 181q-5 61 -5 110q-8 463 26 899q-20 83 -30 198q90 36 351 46t388 -27q-1 -90 -17 -145q-16 -56 -22 -68q-266 37 -399 0q-19 -138 -19 -402l208 7
q142 0 208 -19q0 -143 -35 -215zM844 1878q-64 -86 -256 -257q-45 -40 -72 -60q-96 -9 -160 6q43 89 118 195t97 128q30 10 136 9q106 0 137 -21z" />
    <glyph glyph-name="Ecircumflex" unicode="&#xca;" horiz-adv-x="862" 
d="M735 559q-171 19 -385 -4l-2 -154q0 -98 10 -153l229 2q153 0 197 -4q27 -74 27 -234q-283 -3 -688 -18q-37 121 -42 181q-5 61 -5 110q-8 463 26 899q-20 83 -30 198q90 36 351 46t388 -27q-1 -90 -17 -145q-16 -56 -22 -68q-266 37 -399 0q-19 -138 -19 -402l208 7
q142 0 208 -19q0 -143 -35 -215zM438 1706q-122 -122 -178 -184q-103 5 -162 30q33 63 123 171t131 151q82 6 164 0q198 -214 236 -277q14 -22 24 -36q-52 -27 -174 -37q-103 121 -164 182z" />
    <glyph glyph-name="Edieresis" unicode="&#xcb;" horiz-adv-x="862" 
d="M735 559q-171 19 -385 -4l-2 -154q0 -98 10 -153l229 2q153 0 197 -4q27 -74 27 -234q-283 -3 -688 -18q-37 121 -42 181q-5 61 -5 110q-8 463 26 899q-20 83 -30 198q90 36 351 46t388 -27q-1 -90 -17 -145q-16 -56 -22 -68q-266 37 -399 0q-19 -138 -19 -402l208 7
q142 0 208 -19q0 -143 -35 -215zM61 1695q1 67 53 109t121 43q69 0 111 -39q42 -38 43 -104q0 -66 -53 -111t-122 -45t-111 40t-42 107zM644 1548q-68 0 -110 40t-42 107t52 109t121 43q69 0 111 -39q42 -38 43 -104q0 -66 -53 -111t-122 -45z" />
    <glyph glyph-name="Igrave" unicode="&#xcc;" horiz-adv-x="481" 
d="M328 1438q24 0 48 -4t21 -29q-16 -338 -30 -679t-2 -699q-65 -26 -200 -19q-38 2 -69 8q-21 235 -11 559q11 324 19 503t7 335q64 25 217 25zM-145 1878q26 17 129 21t143 -9q75 -75 176 -254q27 -45 39 -69q-64 -15 -160 -6q-108 80 -206 183t-121 134z" />
    <glyph glyph-name="Iacute" unicode="&#xcd;" horiz-adv-x="481" 
d="M328 1438q24 0 48 -4t21 -29q-16 -338 -30 -679t-2 -699q-65 -26 -200 -19q-38 2 -69 8q-21 235 -11 559q11 324 19 503t7 335q64 25 217 25zM655 1878q-40 -54 -151 -161t-176 -156q-96 -9 -160 6q16 33 93 156q77 122 122 167q30 10 136 9q105 0 136 -21z" />
    <glyph glyph-name="Icircumflex" unicode="&#xce;" horiz-adv-x="481" 
d="M328 1438q24 0 48 -4t21 -29q-16 -338 -30 -679t-2 -699q-65 -26 -200 -19q-38 2 -69 8q-21 235 -11 559q11 324 19 503t7 335q64 25 217 25zM258 1706q-122 -122 -178 -184q-103 5 -162 30q15 30 93 132q77 102 161 190q82 6 164 0q195 -211 235 -277q15 -22 25 -36
q-52 -27 -174 -37q-103 121 -164 182z" />
    <glyph glyph-name="Idieresis" unicode="&#xcf;" horiz-adv-x="481" 
d="M328 1438q24 0 48 -4t21 -29q-16 -338 -30 -679t-2 -699q-65 -26 -200 -19q-38 2 -69 8q-21 235 -11 559q11 324 19 503t7 335q64 25 217 25zM-127 1695q0 67 52 109t121 43q69 0 112 -39q43 -38 43 -104q1 -66 -53 -111t-122 -45t-111 40q-42 40 -42 107zM303 1695
q0 67 52 109t121 43q69 0 112 -39q43 -38 43 -104t-53 -111t-122 -45t-111 40t-42 107z" />
    <glyph glyph-name="Eth" unicode="&#xd0;" horiz-adv-x="1091" 
d="M582 795q36 -33 36 -109t-24 -96q-62 8 -197 8q-2 -92 -2 -114v-246q27 -8 56 -9q158 0 247.5 176.5t49 442.5t-134 310t-191.5 22q-12 -184 -19 -375q122 0 179 -10zM485 1440q291 0 418 -189.5t127 -552.5q0 -488 -213 -598t-353 -116t-223 22.5t-106 42.5
q-8 135 -8 271.5t4 275.5l-68 -2q-18 18 -18 83t5 83q9 33 52 39l35 2l21 438q-27 87 -37 133q71 37 197 52.5t167 15.5z" />
    <glyph glyph-name="Ntilde" unicode="&#xd1;" horiz-adv-x="1048" 
d="M208 6q-87 0 -116 4q-18 162 -18 404q0 457 12 704t25 283q68 20 139 18q72 -2 96 -6q127 -363 344 -772q-4 70 -4 175q0 428 29 591q57 16 130 16t132 -4q-15 -311 -23 -667t19 -732q-70 -24 -180 -24q-90 99 -185 261q-179 302 -262 527q-19 -355 16 -755
q-67 -23 -154 -23zM458 1644q-40 40 -51 39q-50 0 -79 -65q-14 -31 -27 -84q-89 0 -129 20q-4 10 -4 20v21q4 119 70 194t159 75t187 -107q30 -35 62 -46q77 -27 102 40q14 41 4 102q12 1 30 5q51 10 115 2q18 -48 17 -98q-2 -109 -44 -156q-63 -76 -180 -76t-232 114z" />
    <glyph glyph-name="Ograve" unicode="&#xd2;" horiz-adv-x="1130" 
d="M578 1454q17 -17 26 -39q226 0 351 -176q126 -176 124 -461q0 -340 -132 -559q-145 -241 -399 -240t-381 215q-112 187 -116 484q0 322 138 547q139 225 389 229zM344 653q0 -301 114 -401q40 -35 98 -36q110 -2 176 164q57 142 58 356t-43 318t-155 109q-60 -6 -108 -54
t-78 -121q-62 -146 -62 -335zM164 1878q26 17 129 21t143 -9q75 -75 176 -254q27 -45 39 -69q-64 -15 -159 -6q-99 73 -262 240q-43 46 -66 77z" />
    <glyph glyph-name="Oacute" unicode="&#xd3;" horiz-adv-x="1130" 
d="M578 1454q17 -17 26 -39q226 0 351 -176q126 -176 124 -461q0 -340 -132 -559q-145 -241 -399 -240t-381 215q-112 187 -116 484q0 322 138 547q139 225 389 229zM344 653q0 -301 114 -401q40 -35 98 -36q110 -2 176 164q57 142 58 356t-43 318t-155 109q-60 -6 -108 -54
t-78 -121q-62 -146 -62 -335zM973 1878q-64 -86 -256 -257q-45 -40 -72 -60q-96 -9 -160 6q43 89 118 195t97 128q30 10 136 9q106 0 137 -21z" />
    <glyph glyph-name="Ocircumflex" unicode="&#xd4;" horiz-adv-x="1130" 
d="M578 1454q17 -17 26 -39q226 0 351 -176q126 -176 124 -461q0 -340 -132 -559q-145 -241 -399 -240t-381 215q-112 187 -116 484q0 322 138 547q139 225 389 229zM344 653q0 -301 114 -401q40 -35 98 -36q110 -2 176 164q57 142 58 356t-43 318t-155 109q-60 -6 -108 -54
t-78 -121q-62 -146 -62 -335zM586 1706q-122 -122 -178 -184q-103 5 -162 30q15 30 93 132q77 102 161 190q82 6 164 0q195 -211 235 -277q15 -22 25 -36q-52 -27 -174 -37q-48 56 -164 182z" />
    <glyph glyph-name="Otilde" unicode="&#xd5;" horiz-adv-x="1130" 
d="M578 1454q17 -17 26 -39q226 0 351 -176q126 -176 124 -461q0 -340 -132 -559q-145 -241 -399 -240t-381 215q-112 187 -116 484q0 322 138 547q139 225 389 229zM344 653q0 -301 114 -401q40 -35 98 -36q110 -2 176 164q57 142 58 356t-43 318t-155 109q-60 -6 -108 -54
t-78 -121q-62 -146 -62 -335zM495 1644q-39 40 -51 39q-49 0 -79 -65q-14 -31 -27 -84q-89 0 -129 20q-4 10 -4 20v21q4 119 69 194q66 75 160 75t187 -107q31 -35 63 -46q78 -27 100 40q14 41 4 102q12 1 30 5q52 10 116 2q18 -48 17 -98q-2 -109 -44 -156
q-63 -76 -180 -76t-232 114z" />
    <glyph glyph-name="Odieresis" unicode="&#xd6;" horiz-adv-x="1130" 
d="M578 1454q17 -17 26 -39q226 0 351 -176q126 -176 124 -461q0 -340 -132 -559q-145 -241 -399 -240t-381 215q-112 187 -116 484q0 322 138 547q139 225 389 229zM344 653q0 -301 114 -401q40 -35 98 -36q110 -2 176 164q57 142 58 356t-43 318t-155 109q-60 -6 -108 -54
t-78 -121q-62 -146 -62 -335zM357 1548q-69 0 -111 40t-41 107q0 67 52 109t121 43q70 0 112 -39q42 -38 42 -104t-53 -111t-122 -45zM963 1704q1 -66 -53 -111t-123 -45t-111 40t-41 107q0 67 52 109t121 43q69 0 112 -39q43 -38 43 -104z" />
    <glyph glyph-name="multiply" unicode="&#xd7;" horiz-adv-x="1110" 
d="M877 244q-137 148 -310 309q-104 -109 -174.5 -180.5t-124.5 -136.5q-61 5 -105 72t-52 89q73 91 165.5 179t133.5 129q-277 230 -299.5 265.5t-24.5 45.5q80 90 158 114q192 -158 319 -278q75 81 96 102l209 209q42 -4 95 -62t61 -97q-24 -28 -68.5 -70.5t-96.5 -94
t-138 -132.5q127 -121 207 -206t88 -145q-104 -99 -139 -112z" />
    <glyph glyph-name="Oslash" unicode="&#xd8;" horiz-adv-x="1136" 
d="M555 215q114 0 177 155.5t63 354.5t-43 322q-141 -434 -256 -816q32 -16 59 -16zM588 1163q-44 0 -85.5 -35.5t-90 -120t-62.5 -214.5q-20 -199 4.5 -311.5t46.5 -155.5l252 823q-22 14 -65 14zM51 664q0 304 86 468t187.5 241t253.5 81q14 -14 26 -39q72 0 123 -14
q60 123 76 147q55 -8 115 -37l-66 -168q114 -67 172.5 -221t58.5 -334q0 -356 -139.5 -581t-396.5 -225q-66 0 -123 14q-31 -103 -51 -141q-70 0 -103 30q7 63 39 156q-116 74 -187 245t-71 378z" />
    <glyph glyph-name="Ugrave" unicode="&#xd9;" 
d="M922 25q-72 -31 -211 -15q-35 4 -49 13q-2 23 -2 57t-3 53q-27 -59 -93 -100t-136 -45q-333 -15 -351 395q-11 250 17 580t25 458q170 12 268 2q1 -145 -21 -397t-25 -378t7 -232t46 -147q36 -40 82 -41t94 34t81 100q34 380 15 1033q128 27 272 6q0 -223 -14 -707
q-13 -483 -2 -669zM129 1878q26 17 129 21t143 -9q68 -68 177 -254q27 -45 38 -69q-64 -15 -159 -6q-108 80 -261 240q-44 46 -67 77z" />
    <glyph glyph-name="Uacute" unicode="&#xda;" 
d="M922 25q-72 -31 -211 -15q-35 4 -49 13q-2 23 -2 57t-3 53q-27 -59 -93 -100t-136 -45q-333 -15 -351 395q-11 250 17 580t25 458q170 12 268 2q1 -145 -21 -397t-25 -378t7 -232t46 -147q36 -40 82 -41t94 34t81 100q34 380 15 1033q128 27 272 6q0 -223 -14 -707
q-13 -483 -2 -669zM932 1878q-64 -86 -256 -257q-45 -40 -72 -60q-96 -9 -160 6q43 89 118 195t97 128q30 10 136 9q106 0 137 -21z" />
    <glyph glyph-name="Ucircumflex" unicode="&#xdb;" 
d="M922 25q-72 -31 -211 -15q-35 4 -49 13q-2 23 -2 57t-3 53q-27 -59 -93 -100t-136 -45q-333 -15 -351 395q-11 250 17 580t25 458q170 12 268 2q1 -145 -21 -397t-25 -378t7 -232t46 -147q36 -40 82 -41t94 34t81 100q34 380 15 1033q128 27 272 6q0 -223 -14 -707
q-13 -483 -2 -669zM530 1706q-122 -122 -178 -184q-103 5 -162 30q58 111 254 322q82 6 164 0q198 -214 236 -277q14 -22 24 -36q-52 -27 -174 -37q-104 122 -164 182z" />
    <glyph glyph-name="Udieresis" unicode="&#xdc;" 
d="M922 25q-72 -31 -211 -15q-35 4 -49 13q-2 23 -2 57t-3 53q-27 -59 -93 -100t-136 -45q-333 -15 -351 395q-11 250 17 580t25 458q170 12 268 2q1 -145 -21 -397t-25 -378t7 -232t46 -147q36 -40 82 -41t94 34t81 100q34 380 15 1033q128 27 272 6q0 -223 -14 -707
q-13 -483 -2 -669zM304 1548q-68 0 -110 40t-42 107t52 109t121 43q69 0 111 -39q42 -38 43 -104q0 -66 -53 -111t-122 -45zM734 1548q-68 0 -110 40t-42 107t52 109t121 43q69 0 111 -39q42 -38 43 -104q0 -66 -53 -111t-122 -45z" />
    <glyph glyph-name="Yacute" unicode="&#xdd;" horiz-adv-x="1136" 
d="M442 35q26 216 19 424q-95 287 -314 701q-61 118 -112 216q80 38 159 53t109 15q140 -259 199 -404t98 -262q113 372 160 483t82 185q147 0 260 -60q-130 -288 -210 -520q-79 -233 -136 -407q-2 -41 -4 -183t-23 -262q-224 -24 -287 21zM1006 1878q-64 -86 -256 -257
q-45 -40 -72 -60q-96 -9 -160 6q16 33 93 156q77 122 122 167q30 10 136 9q106 0 137 -21z" />
    <glyph glyph-name="Thorn" unicode="&#xde;" horiz-adv-x="999" 
d="M96 1138q0 151 -8 275q105 41 264 27q31 -63 25 -232q233 55 358 -41t173 -194.5t48 -229.5q0 -262 -175 -393.5t-445 -87.5q-1 -41 12 -242q-117 -53 -264 7q-12 85 -12 275t12 437.5t12 398.5zM682 744q0 135 -94 205t-223 18q-6 -117 -13.5 -247t-7.5 -220
q129 -34 204 16.5t104.5 105t29.5 122.5z" />
    <glyph glyph-name="Thorn" unicode="&#x3f7;" horiz-adv-x="999" 
d="M96 1138q0 151 -8 275q105 41 264 27q31 -63 25 -232q233 55 358 -41t173 -194.5t48 -229.5q0 -262 -175 -393.5t-445 -87.5q-1 -41 12 -242q-117 -53 -264 7q-12 85 -12 275t12 437.5t12 398.5zM682 744q0 135 -94 205t-223 18q-6 -117 -13.5 -247t-7.5 -220
q129 -34 204 16.5t104.5 105t29.5 122.5z" />
    <glyph glyph-name="germandbls" unicode="&#xdf;" horiz-adv-x="1126" 
d="M224 0q-87 0 -138 35q-10 115 -10 466t6 498q20 441 459 441q143 0 246.5 -78t103.5 -221q0 -96 -50 -181q-50 -86 -86 -138t-36 -74t7 -42t58 -50t176 -101.5t125 -253.5q0 -153 -102 -238.5t-248 -85.5t-216 46.5t-91 80.5q6 77 47 128t53 59q58 -123 166 -123
q51 0 91 30t40 78t-37.5 81.5t-81.5 59.5t-153 87.5t-109 193.5q0 47 30 100.5t64.5 108t64.5 106.5t30 101t-29.5 80t-93.5 31q-117 0 -143.5 -147.5t-26.5 -478.5q0 -332 16 -572q-45 -27 -132 -27z" />
    <glyph glyph-name="agrave" unicode="&#xe0;" horiz-adv-x="1052" 
d="M526 1145q-96 -374 -137 -606q115 8 227 4q-12 59 -43 258q-32 200 -47 344zM342 297q-30 -91 -39 -281q-19 -6 -127 -6q-136 0 -145 45q27 350 287 1206q32 101 53 158q108 17 204 17q95 0 150 -25q98 -649 163 -930q66 -282 124 -444q-89 -39 -232 -39q-45 27 -68 91
q-24 64 -53 214q-12 2 -94 2q-83 0 -223 -8zM137 1878q26 17 129 21t144 -9q65 -65 176 -254q27 -45 39 -69q-64 -15 -160 -6q-108 80 -261 240q-44 46 -67 77z" />
    <glyph glyph-name="aacute" unicode="&#xe1;" horiz-adv-x="1052" 
d="M526 1145q-96 -374 -137 -606q115 8 227 4q-12 59 -43 258q-32 200 -47 344zM342 297q-30 -91 -39 -281q-19 -6 -127 -6q-136 0 -145 45q27 350 287 1206q32 101 53 158q108 17 204 17q95 0 150 -25q98 -649 163 -930q66 -282 124 -444q-89 -39 -232 -39q-45 27 -68 91
q-24 64 -53 214q-12 2 -94 2q-83 0 -223 -8zM948 1878q-64 -86 -256 -257q-45 -40 -71 -60q-98 -10 -160 6q16 33 93 156q77 122 122 167q30 10 136 9q105 0 136 -21z" />
    <glyph glyph-name="acircumflex" unicode="&#xe2;" horiz-adv-x="1052" 
d="M526 1145q-96 -374 -137 -606q115 8 227 4q-12 59 -43 258q-32 200 -47 344zM342 297q-30 -91 -39 -281q-19 -6 -127 -6q-136 0 -145 45q27 350 287 1206q32 101 53 158q108 17 204 17q95 0 150 -25q98 -649 163 -930q66 -282 124 -444q-89 -39 -232 -39q-45 27 -68 91
q-24 64 -53 214q-12 2 -94 2q-83 0 -223 -8zM709 1524q-48 56 -164 182q-123 -123 -178 -184q-103 5 -162 30q15 30 93 132q77 102 161 190q82 6 164 0q195 -211 235 -277q15 -22 25 -36q-52 -27 -174 -37z" />
    <glyph glyph-name="atilde" unicode="&#xe3;" horiz-adv-x="1052" 
d="M526 1145q-96 -374 -137 -606q115 8 227 4q-12 59 -43 258q-32 200 -47 344zM342 297q-30 -91 -39 -281q-19 -6 -127 -6q-136 0 -145 45q27 350 287 1206q32 101 53 158q108 17 204 17q95 0 150 -25q98 -649 163 -930q66 -282 124 -444q-89 -39 -232 -39q-45 27 -68 91
q-24 64 -53 214q-12 2 -94 2q-83 0 -223 -8zM464 1644q-40 40 -51 39q-50 0 -79 -65q-14 -31 -27 -84q-87 0 -129 20q-4 10 -4 20v21q4 119 70 194t159 75t187 -107q57 -64 115 -53q35 6 49 47t4 102q12 1 30 5q51 10 115 2q17 -48 17 -98q-1 -106 -43 -156
q-63 -76 -181 -76q-117 0 -232 114z" />
    <glyph glyph-name="adieresis" unicode="&#xe4;" horiz-adv-x="1052" 
d="M526 1145q-96 -374 -137 -606q115 8 227 4q-12 59 -43 258q-32 200 -47 344zM342 297q-30 -91 -39 -281q-19 -6 -127 -6q-136 0 -145 45q27 350 287 1206q32 101 53 158q108 17 204 17q95 0 150 -25q98 -649 163 -930q66 -282 124 -444q-89 -39 -232 -39q-45 27 -68 91
q-24 64 -53 214q-12 2 -94 2q-83 0 -223 -8zM174 1695q0 67 52 109t121 43q69 0 112 -39q43 -38 43 -104t-53 -111t-122 -45t-111 40t-42 107zM604 1695q0 67 52 109t121 43q69 0 112 -39q43 -38 43 -104t-53 -111t-122 -45t-111 40t-42 107z" />
    <glyph glyph-name="aring" unicode="&#xe5;" horiz-adv-x="1052" 
d="M526 1145q-96 -374 -137 -606q115 8 227 4q-12 59 -43 258q-32 200 -47 344zM342 297q-30 -91 -39 -281q-19 -6 -127 -6q-136 0 -145 45q27 350 287 1206q32 101 53 158q108 17 204 17q95 0 150 -25q98 -649 163 -930q66 -282 124 -444q-89 -39 -232 -39q-45 27 -68 91
q-24 64 -53 214q-12 2 -94 2q-83 0 -223 -8zM328 1747v12q6 90 69 147q65 56 163 55t153 -59t55 -146t-66 -148t-159 -61t-154 58t-61 142zM621 1756q1 28 -17 50t-58 21q-40 0 -60 -26t-17 -56q11 -65 73 -65q38 0 58 24t21 52z" />
    <glyph glyph-name="ae" unicode="&#xe6;" horiz-adv-x="1517" 
d="M498 539q119 8 231 4q5 333 23 602q-150 -334 -254 -606zM403 297q-36 -64 -92 -285q-18 -6 -147 -6t-129 45q38 149 231 593t369 753q63 19 269 23.5t339 3t223 -22.5q0 -85 -15 -142t-21 -69q-149 21 -260 16.5t-142 -10.5q-18 -130 -18 -410l175 4q175 3 240 -16
q0 -141 -34 -215q-172 19 -385 -4l-1 -126q-1 -126 9 -181l190 1q190 1 236 -3q31 -85 26 -234q-280 -3 -686 -18q-34 34 -44.5 94t-10.5 215q-12 2 -97 2t-225 -8z" />
    <glyph glyph-name="ccedilla" unicode="&#xe7;" horiz-adv-x="958" 
d="M644 -119q61 0 110 -48.5t49 -114.5q0 -115 -81.5 -181.5t-195.5 -66.5q-160 0 -223 90l43 82q18 -14 61 -31t83 -17t79 26t39 67q0 128 -186 88l-53 45q26 58 125 162q-145 10 -294 133.5t-149 522.5q0 398 139 605q143 199 394 199q167 0 246.5 -92t87.5 -205
q-47 -92 -148 -180q-53 151 -109.5 177.5t-72.5 26.5q-116 -16 -182 -184t-66 -404q0 -237 72 -302.5t130 -69.5q109 -8 176 41t107 141q59 -102 78 -221q-91 -153 -274 -182q-16 -23 -36 -51.5t-42 -67.5q32 12 93 12z" />
    <glyph glyph-name="egrave" unicode="&#xe8;" horiz-adv-x="862" 
d="M735 559q-171 19 -385 -4l-2 -154q0 -98 10 -153l229 2q153 0 197 -4q27 -74 27 -234q-283 -3 -688 -18q-37 121 -42 181q-5 61 -5 110q-8 463 26 899q-20 83 -30 198q90 36 351 46t388 -27q-1 -90 -17 -145q-16 -56 -22 -68q-266 37 -399 0q-19 -138 -19 -402l208 7
q142 0 208 -19q0 -143 -35 -215zM76 1878q26 17 129 21t143 -9q75 -75 176 -254q27 -45 39 -69q-63 -15 -160 -6q-95 71 -261 240q-43 46 -66 77z" />
    <glyph glyph-name="eacute" unicode="&#xe9;" horiz-adv-x="862" 
d="M735 559q-171 19 -385 -4l-2 -154q0 -98 10 -153l229 2q153 0 197 -4q27 -74 27 -234q-283 -3 -688 -18q-37 121 -42 181q-5 61 -5 110q-8 463 26 899q-20 83 -30 198q90 36 351 46t388 -27q-1 -90 -17 -145q-16 -56 -22 -68q-266 37 -399 0q-19 -138 -19 -402l208 7
q142 0 208 -19q0 -143 -35 -215zM844 1878q-64 -86 -256 -257q-45 -40 -72 -60q-96 -9 -160 6q43 89 118 195t97 128q30 10 136 9q106 0 137 -21z" />
    <glyph glyph-name="ecircumflex" unicode="&#xea;" horiz-adv-x="862" 
d="M735 559q-171 19 -385 -4l-2 -154q0 -98 10 -153l229 2q153 0 197 -4q27 -74 27 -234q-283 -3 -688 -18q-37 121 -42 181q-5 61 -5 110q-8 463 26 899q-20 83 -30 198q90 36 351 46t388 -27q-1 -90 -17 -145q-16 -56 -22 -68q-266 37 -399 0q-19 -138 -19 -402l208 7
q142 0 208 -19q0 -143 -35 -215zM438 1706q-122 -122 -178 -184q-103 5 -162 30q33 63 123 171t131 151q82 6 164 0q198 -214 236 -277q14 -22 24 -36q-52 -27 -174 -37q-103 121 -164 182z" />
    <glyph glyph-name="edieresis" unicode="&#xeb;" horiz-adv-x="862" 
d="M735 559q-171 19 -385 -4l-2 -154q0 -98 10 -153l229 2q153 0 197 -4q27 -74 27 -234q-283 -3 -688 -18q-37 121 -42 181q-5 61 -5 110q-8 463 26 899q-20 83 -30 198q90 36 351 46t388 -27q-1 -90 -17 -145q-16 -56 -22 -68q-266 37 -399 0q-19 -138 -19 -402l208 7
q142 0 208 -19q0 -143 -35 -215zM61 1695q1 67 53 109t121 43q69 0 111 -39q42 -38 43 -104q0 -66 -53 -111t-122 -45t-111 40t-42 107zM644 1548q-68 0 -110 40t-42 107t52 109t121 43q69 0 111 -39q42 -38 43 -104q0 -66 -53 -111t-122 -45z" />
    <glyph glyph-name="igrave" unicode="&#xec;" horiz-adv-x="481" 
d="M328 1438q24 0 48 -4t21 -29q-16 -338 -30 -679t-2 -699q-65 -26 -200 -19q-38 2 -69 8q-21 235 -11 559q11 324 19 503t7 335q64 25 217 25zM-145 1878q26 17 129 21t143 -9q75 -75 176 -254q27 -45 39 -69q-64 -15 -160 -6q-108 80 -206 183t-121 134z" />
    <glyph glyph-name="iacute" unicode="&#xed;" horiz-adv-x="481" 
d="M328 1438q24 0 48 -4t21 -29q-16 -338 -30 -679t-2 -699q-65 -26 -200 -19q-38 2 -69 8q-21 235 -11 559q11 324 19 503t7 335q64 25 217 25zM655 1878q-40 -54 -151 -161t-176 -156q-96 -9 -160 6q16 33 93 156q77 122 122 167q30 10 136 9q105 0 136 -21z" />
    <glyph glyph-name="icircumflex" unicode="&#xee;" horiz-adv-x="481" 
d="M328 1438q24 0 48 -4t21 -29q-16 -338 -30 -679t-2 -699q-65 -26 -200 -19q-38 2 -69 8q-21 235 -11 559q11 324 19 503t7 335q64 25 217 25zM258 1706q-122 -122 -178 -184q-103 5 -162 30q15 30 93 132q77 102 161 190q82 6 164 0q195 -211 235 -277q15 -22 25 -36
q-52 -27 -174 -37q-103 121 -164 182z" />
    <glyph glyph-name="idieresis" unicode="&#xef;" horiz-adv-x="481" 
d="M328 1438q24 0 48 -4t21 -29q-16 -338 -30 -679t-2 -699q-65 -26 -200 -19q-38 2 -69 8q-21 235 -11 559q11 324 19 503t7 335q64 25 217 25zM-127 1695q0 67 52 109t121 43q69 0 112 -39q43 -38 43 -104q1 -66 -53 -111t-122 -45t-111 40q-42 40 -42 107zM303 1695
q0 67 52 109t121 43q69 0 112 -39q43 -38 43 -104t-53 -111t-122 -45t-111 40t-42 107z" />
    <glyph glyph-name="eth" unicode="&#xf0;" horiz-adv-x="1091" 
d="M582 795q36 -33 36 -109t-24 -96q-62 8 -197 8q-2 -92 -2 -114v-246q27 -8 56 -9q158 0 247.5 176.5t49 442.5t-134 310t-191.5 22q-12 -184 -19 -375q122 0 179 -10zM485 1440q291 0 418 -189.5t127 -552.5q0 -488 -213 -598t-353 -116t-223 22.5t-106 42.5
q-8 135 -8 271.5t4 275.5l-68 -2q-18 18 -18 83t5 83q9 33 52 39l35 2l21 438q-27 87 -37 133q71 37 197 52.5t167 15.5z" />
    <glyph glyph-name="ntilde" unicode="&#xf1;" horiz-adv-x="1048" 
d="M208 6q-87 0 -116 4q-18 162 -18 404q0 457 12 704t25 283q68 20 139 18q72 -2 96 -6q127 -363 344 -772q-4 70 -4 175q0 428 29 591q57 16 130 16t132 -4q-15 -311 -23 -667t19 -732q-70 -24 -180 -24q-90 99 -185 261q-179 302 -262 527q-19 -355 16 -755
q-67 -23 -154 -23zM458 1644q-40 40 -51 39q-50 0 -79 -65q-14 -31 -27 -84q-89 0 -129 20q-4 10 -4 20v21q4 119 70 194t159 75t187 -107q30 -35 62 -46q77 -27 102 40q14 41 4 102q12 1 30 5q51 10 115 2q18 -48 17 -98q-2 -109 -44 -156q-63 -76 -180 -76t-232 114z" />
    <glyph glyph-name="ograve" unicode="&#xf2;" horiz-adv-x="1130" 
d="M578 1454q17 -17 26 -39q226 0 351 -176q126 -176 124 -461q0 -340 -132 -559q-145 -241 -399 -240t-381 215q-112 187 -116 484q0 322 138 547q139 225 389 229zM344 653q0 -301 114 -401q40 -35 98 -36q110 -2 176 164q57 142 58 356t-43 318t-155 109q-60 -6 -108 -54
t-78 -121q-62 -146 -62 -335zM164 1878q26 17 129 21t143 -9q75 -75 176 -254q27 -45 39 -69q-64 -15 -159 -6q-99 73 -262 240q-43 46 -66 77z" />
    <glyph glyph-name="oacute" unicode="&#xf3;" horiz-adv-x="1130" 
d="M578 1454q17 -17 26 -39q226 0 351 -176q126 -176 124 -461q0 -340 -132 -559q-145 -241 -399 -240t-381 215q-112 187 -116 484q0 322 138 547q139 225 389 229zM344 653q0 -301 114 -401q40 -35 98 -36q110 -2 176 164q57 142 58 356t-43 318t-155 109q-60 -6 -108 -54
t-78 -121q-62 -146 -62 -335zM973 1878q-64 -86 -256 -257q-45 -40 -72 -60q-96 -9 -160 6q43 89 118 195t97 128q30 10 136 9q106 0 137 -21z" />
    <glyph glyph-name="ocircumflex" unicode="&#xf4;" horiz-adv-x="1130" 
d="M578 1454q17 -17 26 -39q226 0 351 -176q126 -176 124 -461q0 -340 -132 -559q-145 -241 -399 -240t-381 215q-112 187 -116 484q0 322 138 547q139 225 389 229zM344 653q0 -301 114 -401q40 -35 98 -36q110 -2 176 164q57 142 58 356t-43 318t-155 109q-60 -6 -108 -54
t-78 -121q-62 -146 -62 -335zM586 1706q-122 -122 -178 -184q-103 5 -162 30q15 30 93 132q77 102 161 190q82 6 164 0q195 -211 235 -277q15 -22 25 -36q-52 -27 -174 -37q-48 56 -164 182z" />
    <glyph glyph-name="otilde" unicode="&#xf5;" horiz-adv-x="1130" 
d="M578 1454q17 -17 26 -39q226 0 351 -176q126 -176 124 -461q0 -340 -132 -559q-145 -241 -399 -240t-381 215q-112 187 -116 484q0 322 138 547q139 225 389 229zM344 653q0 -301 114 -401q40 -35 98 -36q110 -2 176 164q57 142 58 356t-43 318t-155 109q-60 -6 -108 -54
t-78 -121q-62 -146 -62 -335zM495 1644q-39 40 -51 39q-49 0 -79 -65q-14 -31 -27 -84q-89 0 -129 20q-4 10 -4 20v21q4 119 69 194q66 75 160 75t187 -107q31 -35 63 -46q78 -27 100 40q14 41 4 102q12 1 30 5q52 10 116 2q18 -48 17 -98q-2 -109 -44 -156
q-63 -76 -180 -76t-232 114z" />
    <glyph glyph-name="odieresis" unicode="&#xf6;" horiz-adv-x="1130" 
d="M578 1454q17 -17 26 -39q226 0 351 -176q126 -176 124 -461q0 -340 -132 -559q-145 -241 -399 -240t-381 215q-112 187 -116 484q0 322 138 547q139 225 389 229zM344 653q0 -301 114 -401q40 -35 98 -36q110 -2 176 164q57 142 58 356t-43 318t-155 109q-60 -6 -108 -54
t-78 -121q-62 -146 -62 -335zM357 1548q-69 0 -111 40t-41 107q0 67 52 109t121 43q70 0 112 -39q42 -38 42 -104t-53 -111t-122 -45zM963 1704q1 -66 -53 -111t-123 -45t-111 40t-41 107q0 67 52 109t121 43q69 0 112 -39q43 -38 43 -104z" />
    <glyph glyph-name="divide" unicode="&#xf7;" horiz-adv-x="1093" 
d="M977 811q30 -4 34.5 -80t-12.5 -135q-401 33 -888 0q-36 47 -19 122t27 89q183 18 476.5 18t381.5 -14zM558 1221q71 0 114 -40t43 -104t-51.5 -110.5t-121.5 -46.5t-112.5 42t-42.5 106t50 108.5t121 44.5zM558 512q71 0 114 -40t43 -104t-51.5 -110.5t-121.5 -46.5
t-112.5 41.5t-42.5 105.5t50 109t121 45z" />
    <glyph glyph-name="oslash" unicode="&#xf8;" horiz-adv-x="1136" 
d="M555 215q114 0 177 155.5t63 354.5t-43 322q-141 -434 -256 -816q32 -16 59 -16zM588 1163q-44 0 -85.5 -35.5t-90 -120t-62.5 -214.5q-20 -199 4.5 -311.5t46.5 -155.5l252 823q-22 14 -65 14zM51 664q0 304 86 468t187.5 241t253.5 81q14 -14 26 -39q72 0 123 -14
q60 123 76 147q55 -8 115 -37l-66 -168q114 -67 172.5 -221t58.5 -334q0 -356 -139.5 -581t-396.5 -225q-66 0 -123 14q-31 -103 -51 -141q-70 0 -103 30q7 63 39 156q-116 74 -187 245t-71 378z" />
    <glyph glyph-name="ugrave" unicode="&#xf9;" 
d="M922 25q-72 -31 -211 -15q-35 4 -49 13q-2 23 -2 57t-3 53q-27 -59 -93 -100t-136 -45q-333 -15 -351 395q-11 250 17 580t25 458q170 12 268 2q1 -145 -21 -397t-25 -378t7 -232t46 -147q36 -40 82 -41t94 34t81 100q34 380 15 1033q128 27 272 6q0 -223 -14 -707
q-13 -483 -2 -669zM129 1878q26 17 129 21t143 -9q68 -68 177 -254q27 -45 38 -69q-64 -15 -159 -6q-108 80 -261 240q-44 46 -67 77z" />
    <glyph glyph-name="uacute" unicode="&#xfa;" 
d="M922 25q-72 -31 -211 -15q-35 4 -49 13q-2 23 -2 57t-3 53q-27 -59 -93 -100t-136 -45q-333 -15 -351 395q-11 250 17 580t25 458q170 12 268 2q1 -145 -21 -397t-25 -378t7 -232t46 -147q36 -40 82 -41t94 34t81 100q34 380 15 1033q128 27 272 6q0 -223 -14 -707
q-13 -483 -2 -669zM932 1878q-64 -86 -256 -257q-45 -40 -72 -60q-96 -9 -160 6q43 89 118 195t97 128q30 10 136 9q106 0 137 -21z" />
    <glyph glyph-name="ucircumflex" unicode="&#xfb;" 
d="M922 25q-72 -31 -211 -15q-35 4 -49 13q-2 23 -2 57t-3 53q-27 -59 -93 -100t-136 -45q-333 -15 -351 395q-11 250 17 580t25 458q170 12 268 2q1 -145 -21 -397t-25 -378t7 -232t46 -147q36 -40 82 -41t94 34t81 100q34 380 15 1033q128 27 272 6q0 -223 -14 -707
q-13 -483 -2 -669zM530 1706q-122 -122 -178 -184q-103 5 -162 30q58 111 254 322q82 6 164 0q198 -214 236 -277q14 -22 24 -36q-52 -27 -174 -37q-104 122 -164 182z" />
    <glyph glyph-name="udieresis" unicode="&#xfc;" 
d="M922 25q-72 -31 -211 -15q-35 4 -49 13q-2 23 -2 57t-3 53q-27 -59 -93 -100t-136 -45q-333 -15 -351 395q-11 250 17 580t25 458q170 12 268 2q1 -145 -21 -397t-25 -378t7 -232t46 -147q36 -40 82 -41t94 34t81 100q34 380 15 1033q128 27 272 6q0 -223 -14 -707
q-13 -483 -2 -669zM304 1548q-68 0 -110 40t-42 107t52 109t121 43q69 0 111 -39q42 -38 43 -104q0 -66 -53 -111t-122 -45zM734 1548q-68 0 -110 40t-42 107t52 109t121 43q69 0 111 -39q42 -38 43 -104q0 -66 -53 -111t-122 -45z" />
    <glyph glyph-name="yacute" unicode="&#xfd;" horiz-adv-x="1136" 
d="M442 35q26 216 19 424q-95 287 -314 701q-61 118 -112 216q80 38 159 53t109 15q140 -259 199 -404t98 -262q113 372 160 483t82 185q147 0 260 -60q-130 -288 -210 -520q-79 -233 -136 -407q-2 -41 -4 -183t-23 -262q-224 -24 -287 21zM1006 1878q-64 -86 -256 -257
q-45 -40 -72 -60q-96 -9 -160 6q16 33 93 156q77 122 122 167q30 10 136 9q106 0 137 -21z" />
    <glyph glyph-name="thorn" unicode="&#xfe;" horiz-adv-x="999" 
d="M96 1138q0 151 -8 275q105 41 264 27q31 -63 25 -232q233 55 358 -41t173 -194.5t48 -229.5q0 -262 -175 -393.5t-445 -87.5q-1 -41 12 -242q-117 -53 -264 7q-12 85 -12 275t12 437.5t12 398.5zM682 744q0 135 -94 205t-223 18q-6 -117 -13.5 -247t-7.5 -220
q129 -34 204 16.5t104.5 105t29.5 122.5z" />
    <glyph glyph-name="ydieresis" unicode="&#xff;" horiz-adv-x="1136" 
d="M442 35q26 216 19 424q-95 287 -314 701q-61 118 -112 216q80 38 159 53t109 15q140 -259 199 -404t98 -262q113 372 160 483t82 185q147 0 260 -60q-130 -288 -210 -520q-79 -233 -136 -407q-2 -41 -4 -183t-23 -262q-224 -24 -287 21zM190 1695q0 67 52 109t122 43
q70 0 112 -39q42 -38 42 -104t-53 -111t-122 -45t-111 40t-42 107zM773 1548q-69 0 -111 40t-41 107q0 67 52 109t121 43q70 0 112 -39q42 -38 42 -104t-53 -111t-122 -45z" />
    <glyph glyph-name="Amacron" unicode="&#x100;" horiz-adv-x="1052" 
d="M526 1145q-96 -374 -137 -606q115 8 227 4q-12 59 -43 258q-32 200 -47 344zM342 297q-30 -91 -39 -281q-19 -6 -127 -6q-136 0 -145 45q27 350 287 1206q32 101 53 158q108 17 204 17q95 0 150 -25q98 -649 163 -930q66 -282 124 -444q-89 -39 -232 -39q-45 27 -68 91
q-24 64 -53 214q-12 2 -94 2q-83 0 -223 -8zM614 1569q-181 0 -424 -6q-43 18 -31 125q3 27 13 47q388 14 532 8t179 -6q20 -23 19 -75t-17 -97q-90 4 -271 4z" />
    <glyph glyph-name="amacron" unicode="&#x101;" horiz-adv-x="1052" 
d="M526 1145q-96 -374 -137 -606q115 8 227 4q-12 59 -43 258q-32 200 -47 344zM342 297q-30 -91 -39 -281q-19 -6 -127 -6q-136 0 -145 45q27 350 287 1206q32 101 53 158q108 17 204 17q95 0 150 -25q98 -649 163 -930q66 -282 124 -444q-89 -39 -232 -39q-45 27 -68 91
q-24 64 -53 214q-12 2 -94 2q-83 0 -223 -8zM614 1569q-181 0 -424 -6q-43 18 -31 125q3 27 13 47q388 14 532 8t179 -6q20 -23 19 -75t-17 -97q-90 4 -271 4z" />
    <glyph glyph-name="Abreve" unicode="&#x102;" horiz-adv-x="974" 
d="M526 1145q-96 -374 -137 -606q115 8 227 4q-12 59 -43 258q-32 200 -47 344zM342 297q-30 -91 -39 -281q-19 -6 -127 -6q-136 0 -145 45q27 350 287 1206q32 101 53 158q108 17 204 17q95 0 150 -25q98 -649 163 -930q66 -282 124 -444q-89 -39 -232 -39q-45 27 -68 91
q-24 64 -53 214q-12 2 -94 2q-83 0 -223 -8zM670 1843q122 13 192 -6q4 -142 -94 -211t-250 -72q-232 0 -304 158q-24 53 -21 125q73 17 198 6q2 -78 40 -117q37 -38 99 -38t101 40t39 115z" />
    <glyph glyph-name="abreve" unicode="&#x103;" horiz-adv-x="974" 
d="M526 1145q-96 -374 -137 -606q115 8 227 4q-12 59 -43 258q-32 200 -47 344zM342 297q-30 -91 -39 -281q-19 -6 -127 -6q-136 0 -145 45q27 350 287 1206q32 101 53 158q108 17 204 17q95 0 150 -25q98 -649 163 -930q66 -282 124 -444q-89 -39 -232 -39q-45 27 -68 91
q-24 64 -53 214q-12 2 -94 2q-83 0 -223 -8zM670 1843q122 13 192 -6q4 -142 -94 -211t-250 -72q-232 0 -304 158q-24 53 -21 125q73 17 198 6q2 -78 40 -117q37 -38 99 -38t101 40t39 115z" />
    <glyph glyph-name="Aogonek" unicode="&#x104;" horiz-adv-x="1052" 
d="M526 1145q-96 -374 -137 -606q115 8 227 4q-57 293 -90 602zM571 -248q0 164 185 266q-31 31 -51.5 93.5t-45.5 191.5q-12 2 -94.5 2t-222.5 -8q-30 -91 -39 -281q-18 -6 -140.5 -6t-131.5 45q22 285 159.5 766t180.5 598q108 17 202 17q93 0 152 -25q20 -127 85.5 -550
t203.5 -828q-45 -8 -97.5 -36t-80.5 -60q-61 -71 -55 -137q5 -66 33 -86.5t64.5 -16.5t73.5 25.5t60 50.5l39 -117q-35 -55 -102 -87t-125 -33q-114 -2 -183.5 52.5t-69.5 163.5z" />
    <glyph glyph-name="aogonek" unicode="&#x105;" horiz-adv-x="1052" 
d="M526 1145q-96 -374 -137 -606q115 8 227 4q-57 293 -90 602zM571 -248q0 164 185 266q-31 31 -51.5 93.5t-45.5 191.5q-12 2 -94.5 2t-222.5 -8q-30 -91 -39 -281q-18 -6 -140.5 -6t-131.5 45q22 285 159.5 766t180.5 598q108 17 202 17q93 0 152 -25q20 -127 85.5 -550
t203.5 -828q-45 -8 -97.5 -36t-80.5 -60q-61 -71 -55 -137q5 -66 33 -86.5t64.5 -16.5t73.5 25.5t60 50.5l39 -117q-35 -55 -102 -87t-125 -33q-114 -2 -183.5 52.5t-69.5 163.5z" />
    <glyph glyph-name="Cacute" unicode="&#x106;" horiz-adv-x="958" 
d="M254 71q-202 161 -203 561q0 400 139 611q143 199 394 199q165 0 258 -105q68 -79 76 -192q-44 -87 -148 -180q-53 150 -142 193q-24 11 -40 11q-115 -16 -182 -182q-66 -166 -66 -405t109 -336q37 -33 94 -37q161 -11 240 106q24 35 42 76q59 -103 78 -221
q-113 -190 -377 -190q-158 0 -272 91zM977 1878q-64 -86 -256 -257q-45 -40 -72 -60q-96 -9 -160 6q43 89 118 195t98 128q30 10 136 9q105 0 136 -21z" />
    <glyph glyph-name="cacute" unicode="&#x107;" horiz-adv-x="958" 
d="M254 71q-202 161 -203 561q0 400 139 611q143 199 394 199q165 0 258 -105q68 -79 76 -192q-44 -87 -148 -180q-53 150 -142 193q-24 11 -40 11q-115 -16 -182 -182q-66 -166 -66 -405t109 -336q37 -33 94 -37q161 -11 240 106q24 35 42 76q59 -103 78 -221
q-113 -190 -377 -190q-158 0 -272 91zM977 1878q-64 -86 -256 -257q-45 -40 -72 -60q-96 -9 -160 6q43 89 118 195t98 128q30 10 136 9q105 0 136 -21z" />
    <glyph glyph-name="Ccircumflex" unicode="&#x108;" horiz-adv-x="958" 
d="M254 71q-202 161 -203 561q0 400 139 611q143 199 394 199q165 0 258 -105q68 -79 76 -192q-44 -87 -148 -180q-53 150 -142 193q-24 11 -40 11q-115 -16 -182 -182q-66 -166 -66 -405t109 -336q37 -33 94 -37q161 -11 240 106q24 35 42 76q59 -103 78 -221
q-113 -190 -377 -190q-158 0 -272 91zM555 1706q-123 -123 -178 -184q-103 5 -162 30q15 30 93 132q77 102 161 190q82 6 164 0q195 -211 235 -277q15 -22 25 -36q-52 -27 -174 -37q-103 121 -164 182z" />
    <glyph glyph-name="ccircumflex" unicode="&#x109;" horiz-adv-x="958" 
d="M254 71q-202 161 -203 561q0 400 139 611q143 199 394 199q165 0 258 -105q68 -79 76 -192q-44 -87 -148 -180q-53 150 -142 193q-24 11 -40 11q-115 -16 -182 -182q-66 -166 -66 -405t109 -336q37 -33 94 -37q161 -11 240 106q24 35 42 76q59 -103 78 -221
q-113 -190 -377 -190q-158 0 -272 91zM555 1706q-123 -123 -178 -184q-103 5 -162 30q15 30 93 132q77 102 161 190q82 6 164 0q195 -211 235 -277q15 -22 25 -36q-52 -27 -174 -37q-103 121 -164 182z" />
    <glyph glyph-name="Cdotaccent" unicode="&#x10a;" horiz-adv-x="958" 
d="M254 71q-202 161 -203 561q0 400 139 611q143 199 394 199q165 0 258 -105q68 -79 76 -192q-44 -87 -148 -180q-53 150 -142 193q-24 11 -40 11q-115 -16 -182 -182q-66 -166 -66 -405t109 -336q37 -33 94 -37q161 -11 240 106q24 35 42 76q59 -103 78 -221
q-113 -190 -377 -190q-158 0 -272 91zM395 1699q0 67 52 109t121 43q69 0 112 -39q43 -38 43 -104t-53 -111t-122 -45t-111 40t-42 107z" />
    <glyph glyph-name="cdotaccent" unicode="&#x10b;" horiz-adv-x="958" 
d="M254 71q-202 161 -203 561q0 400 139 611q143 199 394 199q165 0 258 -105q68 -79 76 -192q-44 -87 -148 -180q-53 150 -142 193q-24 11 -40 11q-115 -16 -182 -182q-66 -166 -66 -405t109 -336q37 -33 94 -37q161 -11 240 106q24 35 42 76q59 -103 78 -221
q-113 -190 -377 -190q-158 0 -272 91zM395 1699q0 67 52 109t121 43q69 0 112 -39q43 -38 43 -104t-53 -111t-122 -45t-111 40t-42 107z" />
    <glyph glyph-name="Ccaron" unicode="&#x10c;" horiz-adv-x="958" 
d="M254 71q-202 161 -203 561q0 400 139 611q143 199 394 199q165 0 258 -105q68 -79 76 -192q-44 -87 -148 -180q-53 150 -142 193q-24 11 -40 11q-115 -16 -182 -182q-66 -166 -66 -405t109 -336q37 -33 94 -37q161 -11 240 106q24 35 42 76q59 -103 78 -221
q-113 -190 -377 -190q-158 0 -272 91zM561 1718q104 104 164 183q122 -10 174 -37q-63 -100 -260 -314q-82 -6 -164 0q-89 93 -165 195t-89 127q55 23 162 31q37 -41 84 -89z" />
    <glyph glyph-name="ccaron" unicode="&#x10d;" horiz-adv-x="958" 
d="M254 71q-202 161 -203 561q0 400 139 611q143 199 394 199q165 0 258 -105q68 -79 76 -192q-44 -87 -148 -180q-53 150 -142 193q-24 11 -40 11q-115 -16 -182 -182q-66 -166 -66 -405t109 -336q37 -33 94 -37q161 -11 240 106q24 35 42 76q59 -103 78 -221
q-113 -190 -377 -190q-158 0 -272 91zM561 1718q104 104 164 183q122 -10 174 -37q-63 -100 -260 -314q-82 -6 -164 0q-89 93 -165 195t-89 127q55 23 162 31q37 -41 84 -89z" />
    <glyph glyph-name="Dcaron" unicode="&#x10e;" horiz-adv-x="1042" 
d="M436 1440q291 0 418 -190t127 -552q0 -485 -315 -651q-111 -57 -252 -63t-269 39q-36 12 -59 26q-16 291 -3 588t26 602q-26 84 -37 133q68 35 270 62q53 6 94 6zM346 238q27 -8 55 -9q159 0 241 161q98 194 46 523q-30 201 -152 258q-65 31 -163 9q-27 -442 -27 -942z
M506 1718q104 104 164 183q122 -10 174 -37q-57 -91 -260 -314q-82 -6 -164 0q-106 111 -174 205t-80 117q55 23 162 31q37 -41 84 -89z" />
    <glyph glyph-name="dcaron" unicode="&#x10f;" horiz-adv-x="1042" 
d="M436 1440q291 0 418 -190t127 -552q0 -485 -315 -651q-111 -57 -252 -63t-269 39q-36 12 -59 26q-16 291 -3 588t26 602q-26 84 -37 133q68 35 270 62q53 6 94 6zM346 238q27 -8 55 -9q159 0 241 161q98 194 46 523q-30 201 -152 258q-65 31 -163 9q-27 -442 -27 -942z
M506 1718q104 104 164 183q122 -10 174 -37q-57 -91 -260 -314q-82 -6 -164 0q-106 111 -174 205t-80 117q55 23 162 31q37 -41 84 -89z" />
    <glyph glyph-name="Dcroat" unicode="&#x110;" horiz-adv-x="1107" 
d="M395 489v-251q27 -8 56 -9q157 0 256 180.5t53.5 442t-143 306t-195.5 22.5q-6 -92 -10 -182.5t-9 -186.5q165 0 215 -10q17 -34 17 -103.5t-14 -101.5q-20 2 -78 4t-89.5 3t-56.5 1q-2 -92 -2 -115zM485 1440q293 0 424 -184.5t131 -557.5q0 -311 -146 -507t-450 -207
q-120 -6 -203 22.5t-106 42.5q-8 135 -8 274.5t4 278.5l-72 -2q-11 11 -16 90t8 111l86 4l21 434q-27 87 -37 133q71 37 197 52.5t167 15.5z" />
    <glyph glyph-name="dcroat" unicode="&#x111;" horiz-adv-x="1107" 
d="M395 489v-251q27 -8 56 -9q157 0 256 180.5t53.5 442t-143 306t-195.5 22.5q-6 -92 -10 -182.5t-9 -186.5q165 0 215 -10q17 -34 17 -103.5t-14 -101.5q-20 2 -78 4t-89.5 3t-56.5 1q-2 -92 -2 -115zM485 1440q293 0 424 -184.5t131 -557.5q0 -311 -146 -507t-450 -207
q-120 -6 -203 22.5t-106 42.5q-8 135 -8 274.5t4 278.5l-72 -2q-11 11 -16 90t8 111l86 4l21 434q-27 87 -37 133q71 37 197 52.5t167 15.5z" />
    <glyph glyph-name="Emacron" unicode="&#x112;" horiz-adv-x="862" 
d="M735 559q-171 19 -385 -4l-2 -154q0 -98 10 -153l229 2q153 0 197 -4q27 -74 27 -234q-283 -3 -688 -18q-37 121 -42 181q-5 61 -5 110q-8 463 26 899q-20 83 -30 198q90 36 351 46t388 -27q-1 -90 -17 -145q-16 -56 -22 -68q-266 37 -399 0q-19 -138 -19 -402l208 7
q142 0 208 -19q0 -143 -35 -215zM522 1569q-181 0 -424 -6q-43 18 -31 125q3 27 13 47q385 13 531 8q145 -6 180 -6q20 -23 19 -75t-17 -97q-90 4 -271 4z" />
    <glyph glyph-name="emacron" unicode="&#x113;" horiz-adv-x="862" 
d="M735 559q-171 19 -385 -4l-2 -154q0 -98 10 -153l229 2q153 0 197 -4q27 -74 27 -234q-283 -3 -688 -18q-37 121 -42 181q-5 61 -5 110q-8 463 26 899q-20 83 -30 198q90 36 351 46t388 -27q-1 -90 -17 -145q-16 -56 -22 -68q-266 37 -399 0q-19 -138 -19 -402l208 7
q142 0 208 -19q0 -143 -35 -215zM522 1569q-181 0 -424 -6q-43 18 -31 125q3 27 13 47q385 13 531 8q145 -6 180 -6q20 -23 19 -75t-17 -97q-90 4 -271 4z" />
    <glyph glyph-name="Ebreve" unicode="&#x114;" horiz-adv-x="862" 
d="M735 559q-171 19 -385 -4l-2 -154q0 -98 10 -153l229 2q153 0 197 -4q27 -74 27 -234q-283 -3 -688 -18q-37 121 -42 181q-5 61 -5 110q-8 463 26 899q-20 83 -30 198q90 36 351 46t388 -27q-1 -90 -17 -145q-16 -56 -22 -68q-266 37 -399 0q-19 -138 -19 -402l208 7
q142 0 208 -19q0 -143 -35 -215zM592 1843q122 13 192 -6q4 -142 -94 -211t-250 -72q-232 0 -304 158q-24 53 -21 125q73 17 198 6q2 -78 40 -117q38 -38 100 -38q63 0 101 40t38 115z" />
    <glyph glyph-name="ebreve" unicode="&#x115;" horiz-adv-x="862" 
d="M735 559q-171 19 -385 -4l-2 -154q0 -98 10 -153l229 2q153 0 197 -4q27 -74 27 -234q-283 -3 -688 -18q-37 121 -42 181q-5 61 -5 110q-8 463 26 899q-20 83 -30 198q90 36 351 46t388 -27q-1 -90 -17 -145q-16 -56 -22 -68q-266 37 -399 0q-19 -138 -19 -402l208 7
q142 0 208 -19q0 -143 -35 -215zM592 1843q122 13 192 -6q4 -142 -94 -211t-250 -72q-232 0 -304 158q-24 53 -21 125q73 17 198 6q2 -78 40 -117q38 -38 100 -38q63 0 101 40t38 115z" />
    <glyph glyph-name="Edotaccent" unicode="&#x116;" horiz-adv-x="862" 
d="M735 559q-171 19 -385 -4l-2 -154q0 -98 10 -153l229 2q153 0 197 -4q27 -74 27 -234q-283 -3 -688 -18q-37 121 -42 181q-5 61 -5 110q-8 463 26 899q-20 83 -30 198q90 36 351 46t388 -27q-1 -90 -17 -145q-16 -56 -22 -68q-266 37 -399 0q-19 -138 -19 -402l208 7
q142 0 208 -19q0 -143 -35 -215zM623 1708q1 -66 -53 -111t-123 -45t-111 40t-41 107q0 67 52 109t121 43q69 0 112 -39q43 -38 43 -104z" />
    <glyph glyph-name="edotaccent" unicode="&#x117;" horiz-adv-x="862" 
d="M735 559q-171 19 -385 -4l-2 -154q0 -98 10 -153l229 2q153 0 197 -4q27 -74 27 -234q-283 -3 -688 -18q-37 121 -42 181q-5 61 -5 110q-8 463 26 899q-20 83 -30 198q90 36 351 46t388 -27q-1 -90 -17 -145q-16 -56 -22 -68q-266 37 -399 0q-19 -138 -19 -402l208 7
q142 0 208 -19q0 -143 -35 -215zM623 1708q1 -66 -53 -111t-123 -45t-111 40t-41 107q0 67 52 109t121 43q69 0 112 -39q43 -38 43 -104z" />
    <glyph glyph-name="Eogonek" unicode="&#x118;" horiz-adv-x="862" 
d="M632 -479q-112 0 -179.5 53.5t-67.5 157.5t55.5 171.5t130.5 104.5l-448 -14q-37 121 -42 181.5t-5 109.5q-8 463 26 899q-20 83 -30 198q87 35 346 46.5t393 -27.5q0 -84 -16.5 -142.5t-22.5 -70.5q-266 37 -399 0q-19 -138 -19 -402l175 4q175 3 241 -16
q0 -143 -35 -215q-172 19 -385 -4l-1 -126q-1 -126 9 -181l191 1q191 1 235 -3q27 -74 27 -234q-139 -31 -181 -107.5t-37 -130.5t32.5 -75t64.5 -16.5t74 26t59 49.5l39 -116q-35 -57 -103.5 -89t-126.5 -32z" />
    <glyph glyph-name="eogonek" unicode="&#x119;" horiz-adv-x="862" 
d="M632 -479q-112 0 -179.5 53.5t-67.5 157.5t55.5 171.5t130.5 104.5l-448 -14q-37 121 -42 181.5t-5 109.5q-8 463 26 899q-20 83 -30 198q87 35 346 46.5t393 -27.5q0 -84 -16.5 -142.5t-22.5 -70.5q-266 37 -399 0q-19 -138 -19 -402l175 4q175 3 241 -16
q0 -143 -35 -215q-172 19 -385 -4l-1 -126q-1 -126 9 -181l191 1q191 1 235 -3q27 -74 27 -234q-139 -31 -181 -107.5t-37 -130.5t32.5 -75t64.5 -16.5t74 26t59 49.5l39 -116q-35 -57 -103.5 -89t-126.5 -32z" />
    <glyph glyph-name="Ecaron" unicode="&#x11a;" horiz-adv-x="862" 
d="M735 559q-171 19 -385 -4l-2 -154q0 -98 10 -153l229 2q153 0 197 -4q27 -74 27 -234q-283 -3 -688 -18q-37 121 -42 181q-5 61 -5 110q-8 463 26 899q-20 83 -30 198q90 36 351 46t388 -27q-1 -90 -17 -145q-16 -56 -22 -68q-266 37 -399 0q-19 -138 -19 -402l208 7
q142 0 208 -19q0 -143 -35 -215zM457 1718q91 91 164 183q122 -10 174 -37q-57 -91 -260 -314q-82 -6 -164 0q-106 111 -174 205t-80 117q55 23 162 31q65 -72 178 -185z" />
    <glyph glyph-name="ecaron" unicode="&#x11b;" horiz-adv-x="862" 
d="M735 559q-171 19 -385 -4l-2 -154q0 -98 10 -153l229 2q153 0 197 -4q27 -74 27 -234q-283 -3 -688 -18q-37 121 -42 181q-5 61 -5 110q-8 463 26 899q-20 83 -30 198q90 36 351 46t388 -27q-1 -90 -17 -145q-16 -56 -22 -68q-266 37 -399 0q-19 -138 -19 -402l208 7
q142 0 208 -19q0 -143 -35 -215zM457 1718q91 91 164 183q122 -10 174 -37q-57 -91 -260 -314q-82 -6 -164 0q-106 111 -174 205t-80 117q55 23 162 31q65 -72 178 -185z" />
    <glyph glyph-name="Gcircumflex" unicode="&#x11c;" horiz-adv-x="1075" 
d="M584 1444q111 0 223 -70t145 -209v-2q0 -37 -166 -186q-27 74 -63 115q-65 73 -124 73t-107 -48q-140 -139 -142 -521q-2 -383 185 -383q94 0 155 52t62 171q0 70 -18 89q-37 38 -138 38h-33q-14 0 -24 -2q-12 72 -2 158q141 45 279 45q139 0 173 -29q30 -335 -18 -721
q-48 -12 -107 -12t-70 7t-16 24l-8 41q-103 -92 -278 -92q-222 0 -337 204q-100 176 -104 451q0 532 265 730q103 77 268 77zM569 1706q-123 -123 -178 -184q-103 5 -162 30q33 63 123 171t131 151q82 6 164 0q198 -214 236 -277q14 -22 24 -36q-52 -27 -174 -37
q-103 121 -164 182z" />
    <glyph glyph-name="gcircumflex" unicode="&#x11d;" horiz-adv-x="1075" 
d="M584 1444q111 0 223 -70t145 -209v-2q0 -37 -166 -186q-27 74 -63 115q-65 73 -124 73t-107 -48q-140 -139 -142 -521q-2 -383 185 -383q94 0 155 52t62 171q0 70 -18 89q-37 38 -138 38h-33q-14 0 -24 -2q-12 72 -2 158q141 45 279 45q139 0 173 -29q30 -335 -18 -721
q-48 -12 -107 -12t-70 7t-16 24l-8 41q-103 -92 -278 -92q-222 0 -337 204q-100 176 -104 451q0 532 265 730q103 77 268 77zM569 1706q-123 -123 -178 -184q-103 5 -162 30q33 63 123 171t131 151q82 6 164 0q198 -214 236 -277q14 -22 24 -36q-52 -27 -174 -37
q-103 121 -164 182z" />
    <glyph glyph-name="Gbreve" unicode="&#x11e;" horiz-adv-x="1075" 
d="M584 1444q111 0 223 -70t145 -209v-2q0 -37 -166 -186q-27 74 -63 115q-65 73 -124 73t-107 -48q-140 -139 -142 -521q-2 -383 185 -383q94 0 155 52t62 171q0 70 -18 89q-37 38 -138 38h-33q-14 0 -24 -2q-12 72 -2 158q141 45 279 45q139 0 173 -29q30 -335 -18 -721
q-48 -12 -107 -12t-70 7t-16 24l-8 41q-103 -92 -278 -92q-222 0 -337 204q-100 176 -104 451q0 532 265 730q103 77 268 77zM698 1843q123 13 193 -6q4 -140 -94 -211q-98 -70 -248 -71q-149 -1 -240 71t-88 211q72 17 199 6q2 -78 40 -117q38 -38 100 -38t100 40t38 115z
" />
    <glyph glyph-name="gbreve" unicode="&#x11f;" horiz-adv-x="1075" 
d="M584 1444q111 0 223 -70t145 -209v-2q0 -37 -166 -186q-27 74 -63 115q-65 73 -124 73t-107 -48q-140 -139 -142 -521q-2 -383 185 -383q94 0 155 52t62 171q0 70 -18 89q-37 38 -138 38h-33q-14 0 -24 -2q-12 72 -2 158q141 45 279 45q139 0 173 -29q30 -335 -18 -721
q-48 -12 -107 -12t-70 7t-16 24l-8 41q-103 -92 -278 -92q-222 0 -337 204q-100 176 -104 451q0 532 265 730q103 77 268 77zM698 1843q123 13 193 -6q4 -140 -94 -211q-98 -70 -248 -71q-149 -1 -240 71t-88 211q72 17 199 6q2 -78 40 -117q38 -38 100 -38t100 40t38 115z
" />
    <glyph glyph-name="Gdotaccent" unicode="&#x120;" horiz-adv-x="1075" 
d="M584 1444q111 0 223 -70t145 -209v-2q0 -37 -166 -186q-27 74 -63 115q-65 73 -124 73t-107 -48q-140 -139 -142 -521q-2 -383 185 -383q94 0 155 52t62 171q0 70 -18 89q-37 38 -138 38h-33q-14 0 -24 -2q-12 72 -2 158q141 45 279 45q139 0 173 -29q30 -335 -18 -721
q-48 -12 -107 -12t-70 7t-16 24l-8 41q-103 -92 -278 -92q-222 0 -337 204q-100 176 -104 451q0 532 265 730q103 77 268 77zM399 1699q0 67 52 109t121 43q69 0 112 -39q43 -38 43 -104t-53 -111t-122 -45t-111 40t-42 107z" />
    <glyph glyph-name="gdotaccent" unicode="&#x121;" horiz-adv-x="1075" 
d="M584 1444q111 0 223 -70t145 -209v-2q0 -37 -166 -186q-27 74 -63 115q-65 73 -124 73t-107 -48q-140 -139 -142 -521q-2 -383 185 -383q94 0 155 52t62 171q0 70 -18 89q-37 38 -138 38h-33q-14 0 -24 -2q-12 72 -2 158q141 45 279 45q139 0 173 -29q30 -335 -18 -721
q-48 -12 -107 -12t-70 7t-16 24l-8 41q-103 -92 -278 -92q-222 0 -337 204q-100 176 -104 451q0 532 265 730q103 77 268 77zM399 1699q0 67 52 109t121 43q69 0 112 -39q43 -38 43 -104t-53 -111t-122 -45t-111 40t-42 107z" />
    <glyph glyph-name="Gcommaaccent" unicode="&#x122;" horiz-adv-x="1075" 
d="M584 1444q111 0 223 -70t145 -209v-2q0 -37 -166 -186q-27 74 -63 115q-65 73 -124 73t-107 -48q-140 -139 -142 -521q-2 -383 185 -383q94 0 155 52t62 171q0 70 -18 89q-37 38 -138 38h-33q-14 0 -24 -2q-12 72 -2 158q141 45 279 45q139 0 173 -29q30 -335 -18 -721
q-48 -12 -107 -12t-70 7t-16 24l-8 41q-103 -92 -278 -92q-222 0 -337 204q-100 176 -104 451q0 532 265 730q103 77 268 77zM754 -274q0 -186 -185 -304q-37 0 -51 19q28 29 52 67t16 82q-68 -11 -109 20q-60 41 -55 122q6 82 57 120t118 38t112 -47q45 -46 45 -117z" />
    <glyph glyph-name="gcommaaccent" unicode="&#x123;" horiz-adv-x="1075" 
d="M584 1444q111 0 223 -70t145 -209v-2q0 -37 -166 -186q-27 74 -63 115q-65 73 -124 73t-107 -48q-140 -139 -142 -521q-2 -383 185 -383q94 0 155 52t62 171q0 70 -18 89q-37 38 -138 38h-33q-14 0 -24 -2q-12 72 -2 158q141 45 279 45q139 0 173 -29q30 -335 -18 -721
q-48 -12 -107 -12t-70 7t-16 24l-8 41q-103 -92 -278 -92q-222 0 -337 204q-100 176 -104 451q0 532 265 730q103 77 268 77zM754 -274q0 -186 -185 -304q-37 0 -51 19q28 29 52 67t16 82q-68 -11 -109 20q-60 41 -55 122q6 82 57 120t118 38t112 -47q45 -46 45 -117z" />
    <glyph glyph-name="Hcircumflex" unicode="&#x124;" horiz-adv-x="1085" 
d="M342 266q0 -133 4 -258q-63 -25 -194 -18q-37 2 -68 8q-12 156 -12 340t10 546t8 517q81 24 162 24q82 0 102 -4t19 -28q-6 -158 -9 -320t-10 -315q180 13 359 4q20 541 18 655q89 27 160 24t97 -9t24 -25q-16 -338 -30 -680t-3 -700q-65 -26 -195 -19q-37 2 -67 8
q-22 247 -12 504q-97 6 -359 -4q-4 -117 -4 -250zM561 1706q-122 -122 -178 -184q-103 5 -162 30q33 63 123 171t131 151q82 6 164 0q195 -211 235 -277q15 -22 25 -36q-52 -27 -174 -37q-104 122 -164 182z" />
    <glyph glyph-name="hcircumflex" unicode="&#x125;" horiz-adv-x="1085" 
d="M342 266q0 -133 4 -258q-63 -25 -194 -18q-37 2 -68 8q-12 156 -12 340t10 546t8 517q81 24 162 24q82 0 102 -4t19 -28q-6 -158 -9 -320t-10 -315q180 13 359 4q20 541 18 655q89 27 160 24t97 -9t24 -25q-16 -338 -30 -680t-3 -700q-65 -26 -195 -19q-37 2 -67 8
q-22 247 -12 504q-97 6 -359 -4q-4 -117 -4 -250zM561 1706q-122 -122 -178 -184q-103 5 -162 30q33 63 123 171t131 151q82 6 164 0q195 -211 235 -277q15 -22 25 -36q-52 -27 -174 -37q-104 122 -164 182z" />
    <glyph glyph-name="Hbar" unicode="&#x126;" horiz-adv-x="1284" 
d="M451 758q179 13 358 4l8 215l-360 -2zM438 266q0 -133 4 -258q-63 -25 -147 -20.5t-115 10.5q-22 290 0 975h-112q-16 29 -23.5 82t8.5 94q22 4 131 8q2 66 2 81v163q81 24 163 24t102 -4t18 -28q-4 -57 -5 -113.5t-3 -114.5q86 2 178 2h184q4 132 4 250q89 27 160 24
q72 -3 97.5 -9.5t23.5 -24.5l-12 -246q60 0 112 -4q60 -75 15 -190l-136 6q-26 -607 -12 -946q-65 -26 -148 -21.5t-114 10.5q-21 230 -12 504q-97 6 -359 -4q-4 -117 -4 -250z" />
    <glyph glyph-name="hbar" unicode="&#x127;" horiz-adv-x="1284" 
d="M451 758q179 13 358 4l8 215l-360 -2zM438 266q0 -133 4 -258q-63 -25 -147 -20.5t-115 10.5q-22 290 0 975h-112q-16 29 -23.5 82t8.5 94q22 4 131 8q2 66 2 81v163q81 24 163 24t102 -4t18 -28q-4 -57 -5 -113.5t-3 -114.5q86 2 178 2h184q4 132 4 250q89 27 160 24
q72 -3 97.5 -9.5t23.5 -24.5l-12 -246q60 0 112 -4q60 -75 15 -190l-136 6q-26 -607 -12 -946q-65 -26 -148 -21.5t-114 10.5q-21 230 -12 504q-97 6 -359 -4q-4 -117 -4 -250z" />
    <glyph glyph-name="Itilde" unicode="&#x128;" horiz-adv-x="481" 
d="M328 1438q24 0 48 -4t21 -29q-16 -338 -30 -679t-2 -699q-65 -26 -200 -19q-38 2 -69 8q-21 235 -11 559q11 324 19 503t7 335q64 25 217 25zM176 1644q-40 40 -52 39q-12 0 -24 -3q-50 -12 -82 -146q-87 0 -129 20q-4 10 -4 20v21q4 119 70 194t159 75t187 -107
q31 -35 63 -46q78 -27 101 40q14 41 4 102q13 1 31 5q54 10 114 2q18 -48 18 -98q-1 -108 -44 -156q-63 -76 -181 -76q-117 0 -231 114z" />
    <glyph glyph-name="itilde" unicode="&#x129;" horiz-adv-x="481" 
d="M328 1438q24 0 48 -4t21 -29q-16 -338 -30 -679t-2 -699q-65 -26 -200 -19q-38 2 -69 8q-21 235 -11 559q11 324 19 503t7 335q64 25 217 25zM176 1644q-40 40 -52 39q-12 0 -24 -3q-50 -12 -82 -146q-87 0 -129 20q-4 10 -4 20v21q4 119 70 194t159 75t187 -107
q31 -35 63 -46q78 -27 101 40q14 41 4 102q13 1 31 5q54 10 114 2q18 -48 18 -98q-1 -108 -44 -156q-63 -76 -181 -76q-117 0 -231 114z" />
    <glyph glyph-name="uni012A" unicode="&#x12a;" horiz-adv-x="481" 
d="M328 1438q24 0 48 -4t21 -29q-16 -338 -30 -679t-2 -699q-65 -26 -200 -19q-38 2 -69 8q-21 235 -11 559q11 324 19 503t7 335q64 25 217 25zM340 1569q-182 0 -422 -6q-26 11 -32 71t14 101q387 14 531 8t179 -6q20 -23 20 -75t-18 -97q-90 4 -272 4z" />
    <glyph glyph-name="imacron" unicode="&#x12b;" horiz-adv-x="481" 
d="M328 1438q24 0 48 -4t21 -29q-16 -338 -30 -679t-2 -699q-65 -26 -200 -19q-38 2 -69 8q-21 235 -11 559q11 324 19 503t7 335q64 25 217 25zM340 1569q-182 0 -422 -6q-26 11 -32 71t14 101q387 14 531 8t179 -6q20 -23 20 -75t-18 -97q-90 4 -272 4z" />
    <glyph glyph-name="Ibreve" unicode="&#x12c;" horiz-adv-x="481" 
d="M328 1438q24 0 48 -4t21 -29q-16 -338 -30 -679t-2 -699q-65 -26 -200 -19q-38 2 -69 8q-21 235 -11 559q11 324 19 503t7 335q64 25 217 25zM397 1843q123 13 193 -6q4 -141 -95 -211t-247 -71q-149 -1 -240 71t-88 211q72 17 199 6q2 -78 40 -117q37 -38 99 -38t100 40
t39 115z" />
    <glyph glyph-name="uni012D" unicode="&#x12d;" horiz-adv-x="481" 
d="M328 1438q24 0 48 -4t21 -29q-16 -338 -30 -679t-2 -699q-65 -26 -200 -19q-38 2 -69 8q-21 235 -11 559q11 324 19 503t7 335q64 25 217 25zM397 1843q123 13 193 -6q4 -141 -95 -211t-247 -71q-149 -1 -240 71t-88 211q72 17 199 6q2 -78 40 -117q37 -38 99 -38t100 40
t39 115z" />
    <glyph glyph-name="Iogonek" unicode="&#x12e;" horiz-adv-x="481" 
d="M328 1425q25 0 48 -4t21 -28q-16 -338 -30.5 -674t-1.5 -694q-79 -17 -154 -79.5t-64 -160.5q4 -53 32 -73.5t86.5 -14t111.5 73.5l39 -117q-35 -57 -103.5 -89t-126.5 -32q-110 0 -178.5 52.5t-68.5 155.5t55 168.5t129 102.5l-27 4q-21 235 -10.5 555t19 497t6.5 333
q61 24 217 24z" />
    <glyph glyph-name="iogonek" unicode="&#x12f;" horiz-adv-x="481" 
d="M328 1425q25 0 48 -4t21 -28q-16 -338 -30.5 -674t-1.5 -694q-79 -17 -154 -79.5t-64 -160.5q4 -53 32 -73.5t86.5 -14t111.5 73.5l39 -117q-35 -57 -103.5 -89t-126.5 -32q-110 0 -178.5 52.5t-68.5 155.5t55 168.5t129 102.5l-27 4q-21 235 -10.5 555t19 497t6.5 333
q61 24 217 24z" />
    <glyph glyph-name="Idotaccent" unicode="&#x130;" horiz-adv-x="481" 
d="M328 1438q24 0 48 -4t21 -29q-16 -338 -30 -679t-2 -699q-65 -26 -200 -19q-38 2 -69 8q-21 235 -11 559q11 324 19 503t7 335q64 25 217 25zM92 1699q0 67 52 109t121 43q69 0 112 -39q43 -38 43 -104t-53 -111t-122 -45t-111 40t-42 107z" />
    <glyph glyph-name="dotlessi" unicode="&#x131;" horiz-adv-x="444" 
d="M90 875q0 64 -14 104q47 19 149 21t135 -27q3 -97 -10 -340.5t-10 -313.5q2 -69 2 -134.5t10 -151.5q-13 -21 -119 -28t-147 9q-17 78 -14 201q4 122 6 202.5t5 161t5 156.5t2 140z" />
    <glyph glyph-name="IJ" unicode="&#x132;" horiz-adv-x="1308" 
d="M328 1438q24 0 48 -4t21 -29q-16 -338 -30 -679t-2 -699q-65 -26 -200 -19q-38 2 -69 8q-21 235 -11 559q11 324 19 503t7 335q64 25 217 25zM973 562v169q-2 172 -17 341q-14 169 -14 325q59 32 150 28q92 0 145 -43q-12 -80 -5 -272q14 -397 7 -610t-56 -319
q-49 -107 -145 -155t-181 -46q-211 5 -314 128q-31 36 -47 72q0 48 27 134t57 128q102 -248 234 -252q70 -2 102 54q57 100 57 318z" />
    <glyph glyph-name="ij" unicode="&#x133;" horiz-adv-x="1308" 
d="M328 1438q24 0 48 -4t21 -29q-16 -338 -30 -679t-2 -699q-65 -26 -200 -19q-38 2 -69 8q-21 235 -11 559q11 324 19 503t7 335q64 25 217 25zM973 562v169q-2 172 -17 341q-14 169 -14 325q59 32 150 28q92 0 145 -43q-12 -80 -5 -272q14 -397 7 -610t-56 -319
q-49 -107 -145 -155t-181 -46q-211 5 -314 128q-31 36 -47 72q0 48 27 134t57 128q102 -248 234 -252q70 -2 102 54q57 100 57 318z" />
    <glyph glyph-name="Jcircumflex" unicode="&#x134;" horiz-adv-x="833" 
d="M467 1397q59 33 149 28q93 0 146 -43q-12 -80 -5 -272q14 -397 7 -610t-56 -319q-48 -107 -144 -155t-182 -46q-211 5 -314 128q-31 36 -48 72q0 45 27 131t57 131q100 -248 234 -252q70 -2 103 54q55 97 57 318v169q-2 172 -17 341q-14 169 -14 325zM618 1706
q-123 -123 -178 -184q-104 5 -161 30q59 114 253 322q82 6 164 0q198 -214 236 -277q14 -22 24 -36q-52 -27 -174 -37q-104 122 -164 182z" />
    <glyph glyph-name="jcircumflex" unicode="&#x135;" horiz-adv-x="833" 
d="M467 1397q59 33 149 28q93 0 146 -43q-12 -80 -5 -272q14 -397 7 -610t-56 -319q-48 -107 -144 -155t-182 -46q-211 5 -314 128q-31 36 -48 72q0 45 27 131t57 131q100 -248 234 -252q70 -2 103 54q55 97 57 318v169q-2 172 -17 341q-14 169 -14 325zM618 1706
q-123 -123 -178 -184q-104 5 -161 30q59 114 253 322q82 6 164 0q198 -214 236 -277q14 -22 24 -36q-52 -27 -174 -37q-104 122 -164 182z" />
    <glyph glyph-name="Kcommaaccent" unicode="&#x136;" horiz-adv-x="1013" 
d="M342 383q0 -158 14 -350q-163 -36 -272 -17q-19 242 -11 565q7 324 10 443t6 215t3 158q87 42 241 20q28 -4 46 -18q-2 -41 -5 -101t-6 -129q-2 -67 -6 -137t-4 -125q133 220 333 438q46 50 75 72q142 0 238 -63q-23 -33 -73 -93q-264 -317 -372 -491q137 -292 344 -581
q51 -71 72 -83q-101 -141 -232 -106q-147 118 -285 383q-38 74 -75 147zM657 -274q0 -187 -184 -304q-37 0 -51 19q27 29 51 67t16 82q-67 -11 -108 20q-60 41 -55 122q6 82 57 120t118 38t111 -47q44 -46 45 -117z" />
    <glyph glyph-name="kcommaaccent" unicode="&#x137;" horiz-adv-x="1013" 
d="M342 383q0 -158 14 -350q-163 -36 -272 -17q-19 242 -11 565q7 324 10 443t6 215t3 158q87 42 241 20q28 -4 46 -18q-2 -41 -5 -101t-6 -129q-2 -67 -6 -137t-4 -125q133 220 333 438q46 50 75 72q142 0 238 -63q-23 -33 -73 -93q-264 -317 -372 -491q137 -292 344 -581
q51 -71 72 -83q-101 -141 -232 -106q-147 118 -285 383q-38 74 -75 147zM657 -274q0 -187 -184 -304q-37 0 -51 19q27 29 51 67t16 82q-67 -11 -108 20q-60 41 -55 122q6 82 57 120t118 38t111 -47q44 -46 45 -117z" />
    <glyph glyph-name="kgreenlandic" unicode="&#x138;" horiz-adv-x="940" 
d="M328 186q0 -41 12 -170q-170 -29 -260 -14q-14 80 -14 320t9 407.5t1 265.5q58 15 136 15t132 -4q5 -90 -6 -338q136 129 276 333q145 9 260 -20q-47 -88 -114.5 -188.5t-188.5 -217.5q109 -156 198 -313.5t118 -208.5q-149 -53 -275 -53q-29 45 -108 189t-146 243
l-30 -35v-211z" />
    <glyph glyph-name="Lacute" unicode="&#x139;" horiz-adv-x="823" 
d="M271 1421q67 0 89 -5t23 -30q4 -249 -13 -628q-18 -379 -18 -504q284 5 408 -12q20 -77 20 -146q0 -70 -4 -88q-133 -2 -281 -3q-149 -1 -243 -4t-114 3t-48 27q-18 92 -18 221q0 188 13 581t13 562q106 26 173 26zM647 1878q-64 -86 -256 -257q-45 -40 -72 -60
q-97 -9 -159 6q16 33 93 156q77 122 122 167q30 10 136 9q105 0 136 -21z" />
    <glyph glyph-name="lacute" unicode="&#x13a;" horiz-adv-x="823" 
d="M271 1421q67 0 89 -5t23 -30q4 -249 -13 -628q-18 -379 -18 -504q284 5 408 -12q20 -77 20 -146q0 -70 -4 -88q-133 -2 -281 -3q-149 -1 -243 -4t-114 3t-48 27q-18 92 -18 221q0 188 13 581t13 562q106 26 173 26zM647 1878q-64 -86 -256 -257q-45 -40 -72 -60
q-97 -9 -159 6q16 33 93 156q77 122 122 167q30 10 136 9q105 0 136 -21z" />
    <glyph glyph-name="Lcommaaccent" unicode="&#x13b;" horiz-adv-x="823" 
d="M271 1421q67 0 89 -5t23 -30q4 -249 -13 -628q-18 -379 -18 -504q284 5 408 -12q20 -77 20 -146q0 -70 -4 -88q-133 -2 -281 -3q-149 -1 -243 -4t-114 3t-48 27q-18 92 -18 221q0 188 13 581t13 562q106 26 173 26zM604 -274q0 -126 -93 -229q-36 -40 -91 -75
q-37 0 -51 19q27 29 51 67t16 82q-67 -11 -108 20q-59 40 -55 122q5 82 57 120t118 38t111 -47q45 -46 45 -117z" />
    <glyph glyph-name="lcommaaccent" unicode="&#x13c;" horiz-adv-x="823" 
d="M271 1421q67 0 89 -5t23 -30q4 -249 -13 -628q-18 -379 -18 -504q284 5 408 -12q20 -77 20 -146q0 -70 -4 -88q-133 -2 -281 -3q-149 -1 -243 -4t-114 3t-48 27q-18 92 -18 221q0 188 13 581t13 562q106 26 173 26zM604 -274q0 -126 -93 -229q-36 -40 -91 -75
q-37 0 -51 19q27 29 51 67t16 82q-67 -11 -108 20q-59 40 -55 122q5 82 57 120t118 38t111 -47q45 -46 45 -117z" />
    <glyph glyph-name="Lcaron" unicode="&#x13d;" horiz-adv-x="944" 
d="M271 1421q67 0 89 -5t23 -30q4 -249 -13 -628q-18 -379 -18 -504q284 5 408 -12q20 -77 20 -146q0 -70 -4 -88q-133 -2 -281 -3q-149 -1 -243 -4t-114 3t-48 27q-18 92 -18 221q0 188 13 581t13 562q106 26 173 26zM847 1424q46 -50 46 -127t-34 -148q-65 -137 -161 -186
q-39 0 -53 18q46 46 73 127q7 24 1 47q-65 -13 -121 28q-55 40 -55 116q0 77 53 125t129 48q76 2 122 -48z" />
    <glyph glyph-name="lcaron" unicode="&#x13e;" horiz-adv-x="944" 
d="M271 1421q67 0 89 -5t23 -30q4 -249 -13 -628q-18 -379 -18 -504q284 5 408 -12q20 -77 20 -146q0 -70 -4 -88q-133 -2 -281 -3q-149 -1 -243 -4t-114 3t-48 27q-18 92 -18 221q0 188 13 581t13 562q106 26 173 26zM847 1424q46 -50 46 -127t-34 -148q-65 -137 -161 -186
q-39 0 -53 18q46 46 73 127q7 24 1 47q-65 -13 -121 28q-55 40 -55 116q0 77 53 125t129 48q76 2 122 -48z" />
    <glyph glyph-name="Ldot" unicode="&#x13f;" horiz-adv-x="1105" 
d="M271 1421q67 0 89 -5t23 -30q4 -249 -13 -628q-18 -379 -18 -504q284 5 408 -12q20 -77 20 -146q0 -70 -4 -88q-133 -2 -281 -3q-149 -1 -243 -4t-114 3t-48 27q-18 92 -18 221q0 188 13 581t13 562q106 26 173 26zM859 895q69 0 112 -39q43 -38 43 -104t-53 -111
t-122 -45t-111 40t-42 106t52 110q52 43 121 43z" />
    <glyph glyph-name="ldot" unicode="&#x140;" horiz-adv-x="1105" 
d="M271 1421q67 0 89 -5t23 -30q4 -249 -13 -628q-18 -379 -18 -504q284 5 408 -12q20 -77 20 -146q0 -70 -4 -88q-133 -2 -281 -3q-149 -1 -243 -4t-114 3t-48 27q-18 92 -18 221q0 188 13 581t13 562q106 26 173 26zM859 895q69 0 112 -39q43 -38 43 -104t-53 -111
t-122 -45t-111 40t-42 106t52 110q52 43 121 43z" />
    <glyph glyph-name="Lslash" unicode="&#x141;" horiz-adv-x="956" 
d="M404 1421q67 0 89.5 -5t22.5 -30q2 -120 -8 -436l256 144q28 0 25 -77t-9 -85q-53 -29 -126.5 -68t-153.5 -84q-15 -352 -15 -526q284 5 408 -12q20 -77 20 -146.5t-4 -87.5q-133 -2 -281.5 -3t-242.5 -4t-113.5 3t-48.5 27q-18 92 -18 242q0 151 6 345
q-111 -62 -154 -88q-9 12 -13.5 72.5t7.5 89.5q23 12 66 38t98 56q16 443 16 609q106 26 173 26z" />
    <glyph glyph-name="lslash" unicode="&#x142;" horiz-adv-x="956" 
d="M404 1421q67 0 89.5 -5t22.5 -30q2 -120 -8 -436l256 144q28 0 25 -77t-9 -85q-53 -29 -126.5 -68t-153.5 -84q-15 -352 -15 -526q284 5 408 -12q20 -77 20 -146.5t-4 -87.5q-133 -2 -281.5 -3t-242.5 -4t-113.5 3t-48.5 27q-18 92 -18 242q0 151 6 345
q-111 -62 -154 -88q-9 12 -13.5 72.5t7.5 89.5q23 12 66 38t98 56q16 443 16 609q106 26 173 26z" />
    <glyph glyph-name="Nacute" unicode="&#x143;" horiz-adv-x="1048" 
d="M208 6q-87 0 -116 4q-18 162 -18 404q0 457 12 704t25 283q68 20 139 18q72 -2 96 -6q127 -363 344 -772q-4 70 -4 175q0 428 29 591q57 16 130 16t132 -4q-15 -311 -23 -667t19 -732q-70 -24 -180 -24q-90 99 -185 261q-179 302 -262 527q-19 -355 16 -755
q-67 -23 -154 -23zM946 1878q-64 -86 -256 -257q-45 -40 -72 -60q-97 -9 -159 6q16 33 93 156q77 122 122 167q30 10 136 9q105 0 136 -21z" />
    <glyph glyph-name="nacute" unicode="&#x144;" horiz-adv-x="1048" 
d="M208 6q-87 0 -116 4q-18 162 -18 404q0 457 12 704t25 283q68 20 139 18q72 -2 96 -6q127 -363 344 -772q-4 70 -4 175q0 428 29 591q57 16 130 16t132 -4q-15 -311 -23 -667t19 -732q-70 -24 -180 -24q-90 99 -185 261q-179 302 -262 527q-19 -355 16 -755
q-67 -23 -154 -23zM946 1878q-64 -86 -256 -257q-45 -40 -72 -60q-97 -9 -159 6q16 33 93 156q77 122 122 167q30 10 136 9q105 0 136 -21z" />
    <glyph glyph-name="Ncommaaccent" unicode="&#x145;" horiz-adv-x="1048" 
d="M208 6q-87 0 -116 4q-18 162 -18 404q0 457 12 704t25 283q68 20 139 18q72 -2 96 -6q127 -363 344 -772q-4 70 -4 175q0 428 29 591q57 16 130 16t132 -4q-15 -311 -23 -667t19 -732q-70 -24 -180 -24q-90 99 -185 261q-179 302 -262 527q-19 -355 16 -755
q-67 -23 -154 -23zM711 -274q0 -186 -185 -304q-37 0 -51 19q27 29 51 67t17 82q-68 -11 -109 20q-60 41 -55 122q6 82 57 120t118 38t112 -47q45 -46 45 -117z" />
    <glyph glyph-name="ncommaaccent" unicode="&#x146;" horiz-adv-x="1048" 
d="M208 6q-87 0 -116 4q-18 162 -18 404q0 457 12 704t25 283q68 20 139 18q72 -2 96 -6q127 -363 344 -772q-4 70 -4 175q0 428 29 591q57 16 130 16t132 -4q-15 -311 -23 -667t19 -732q-70 -24 -180 -24q-90 99 -185 261q-179 302 -262 527q-19 -355 16 -755
q-67 -23 -154 -23zM711 -274q0 -186 -185 -304q-37 0 -51 19q27 29 51 67t17 82q-68 -11 -109 20q-60 41 -55 122q6 82 57 120t118 38t112 -47q45 -46 45 -117z" />
    <glyph glyph-name="Ncaron" unicode="&#x147;" horiz-adv-x="1048" 
d="M208 6q-87 0 -116 4q-18 162 -18 404q0 457 12 704t25 283q68 20 139 18q72 -2 96 -6q127 -363 344 -772q-4 70 -4 175q0 428 29 591q57 16 130 16t132 -4q-15 -311 -23 -667t19 -732q-70 -24 -180 -24q-90 99 -185 261q-179 302 -262 527q-19 -355 16 -755
q-67 -23 -154 -23zM543 1718q91 91 164 183q122 -10 174 -37q-57 -91 -260 -314q-82 -6 -164 0q-106 111 -174 205t-80 117q55 23 162 31q37 -41 84 -89z" />
    <glyph glyph-name="ncaron" unicode="&#x148;" horiz-adv-x="1048" 
d="M208 6q-87 0 -116 4q-18 162 -18 404q0 457 12 704t25 283q68 20 139 18q72 -2 96 -6q127 -363 344 -772q-4 70 -4 175q0 428 29 591q57 16 130 16t132 -4q-15 -311 -23 -667t19 -732q-70 -24 -180 -24q-90 99 -185 261q-179 302 -262 527q-19 -355 16 -755
q-67 -23 -154 -23zM543 1718q91 91 164 183q122 -10 174 -37q-57 -91 -260 -314q-82 -6 -164 0q-106 111 -174 205t-80 117q55 23 162 31q37 -41 84 -89z" />
    <glyph glyph-name="Eng" unicode="&#x14a;" horiz-adv-x="1054" 
d="M208.5 6q-87.5 0 -116.5 4q-18 162 -18 511.5t12 596.5t25 283q68 20 139.5 18t95.5 -6q160 -460 359 -835v172q0 172 -1.5 260t0 166.5t2.5 140t3 90.5q105 34 175 23t99 -23q-7 -171 -8.5 -315t-4.5 -262.5t-9 -459.5t-23 -558t-129.5 -249t-163.5 -32q-113 0 -186 47
q-25 64 -25 213q63 -51 136 -44t89 75q25 101 33 289q-179 262 -346 673q-19 -356 16 -755q-66 -23 -153.5 -23z" />
    <glyph glyph-name="eng" unicode="&#x14b;" horiz-adv-x="1054" 
d="M208.5 6q-87.5 0 -116.5 4q-18 162 -18 511.5t12 596.5t25 283q68 20 139.5 18t95.5 -6q160 -460 359 -835v172q0 172 -1.5 260t0 166.5t2.5 140t3 90.5q105 34 175 23t99 -23q-7 -171 -8.5 -315t-4.5 -262.5t-9 -459.5t-23 -558t-129.5 -249t-163.5 -32q-113 0 -186 47
q-25 64 -25 213q63 -51 136 -44t89 75q25 101 33 289q-179 262 -346 673q-19 -356 16 -755q-66 -23 -153.5 -23z" />
    <glyph glyph-name="Omacron" unicode="&#x14c;" horiz-adv-x="1130" 
d="M578 1454q17 -17 26 -39q226 0 351 -176q126 -176 124 -461q0 -340 -132 -559q-145 -241 -399 -240t-381 215q-112 187 -116 484q0 322 138 547q139 225 389 229zM344 653q0 -301 114 -401q40 -35 98 -36q110 -2 176 164q57 142 58 356t-43 318t-155 109q-60 -6 -108 -54
t-78 -121q-62 -146 -62 -335zM664 1569q-182 0 -422 -6q-44 19 -32 125q3 27 13 47q388 14 532 8t179 -6q20 -23 19 -75t-17 -97q-90 4 -272 4z" />
    <glyph glyph-name="omacron" unicode="&#x14d;" horiz-adv-x="1130" 
d="M578 1454q17 -17 26 -39q226 0 351 -176q126 -176 124 -461q0 -340 -132 -559q-145 -241 -399 -240t-381 215q-112 187 -116 484q0 322 138 547q139 225 389 229zM344 653q0 -301 114 -401q40 -35 98 -36q110 -2 176 164q57 142 58 356t-43 318t-155 109q-60 -6 -108 -54
t-78 -121q-62 -146 -62 -335zM664 1569q-182 0 -422 -6q-44 19 -32 125q3 27 13 47q388 14 532 8t179 -6q20 -23 19 -75t-17 -97q-90 4 -272 4z" />
    <glyph glyph-name="Obreve" unicode="&#x14e;" horiz-adv-x="1130" 
d="M578 1454q17 -17 26 -39q226 0 351 -176q126 -176 124 -461q0 -340 -132 -559q-145 -241 -399 -240t-381 215q-112 187 -116 484q0 322 138 547q139 225 389 229zM344 653q0 -301 114 -401q40 -35 98 -36q110 -2 176 164q57 142 58 356t-43 318t-155 109q-60 -6 -108 -54
t-78 -121q-62 -146 -62 -335zM725 1843q123 13 193 -6q4 -141 -95 -211t-250 -72q-232 0 -304 158q-24 53 -21 125q73 17 198 6q2 -78 40 -117q38 -38 100 -38t100 40t39 115z" />
    <glyph glyph-name="obreve" unicode="&#x14f;" horiz-adv-x="1130" 
d="M578 1454q17 -17 26 -39q226 0 351 -176q126 -176 124 -461q0 -340 -132 -559q-145 -241 -399 -240t-381 215q-112 187 -116 484q0 322 138 547q139 225 389 229zM344 653q0 -301 114 -401q40 -35 98 -36q110 -2 176 164q57 142 58 356t-43 318t-155 109q-60 -6 -108 -54
t-78 -121q-62 -146 -62 -335zM725 1843q123 13 193 -6q4 -141 -95 -211t-250 -72q-232 0 -304 158q-24 53 -21 125q73 17 198 6q2 -78 40 -117q38 -38 100 -38t100 40t39 115z" />
    <glyph glyph-name="Ohungarumlaut" unicode="&#x150;" horiz-adv-x="1130" 
d="M578 1454q17 -17 26 -39q226 0 351 -176q126 -176 124 -461q0 -340 -132 -559q-145 -241 -399 -240t-381 215q-112 187 -116 484q0 322 138 547q139 225 389 229zM344 653q0 -301 114 -401q40 -35 98 -36q110 -2 176 164q57 142 58 356t-43 318t-155 109q-60 -6 -108 -54
t-78 -121q-62 -146 -62 -335zM1178 1878q-64 -86 -256 -257q-45 -40 -72 -60q-96 -9 -160 6q16 33 93 156q77 122 122 167q30 10 136 9q106 0 137 -21zM788 1878q-40 -54 -151 -161t-176 -156q-96 -9 -160 6q16 33 93 156q77 122 122 167q30 10 136 9q105 0 136 -21z" />
    <glyph glyph-name="ohungarumlaut" unicode="&#x151;" horiz-adv-x="1130" 
d="M578 1454q17 -17 26 -39q226 0 351 -176q126 -176 124 -461q0 -340 -132 -559q-145 -241 -399 -240t-381 215q-112 187 -116 484q0 322 138 547q139 225 389 229zM344 653q0 -301 114 -401q40 -35 98 -36q110 -2 176 164q57 142 58 356t-43 318t-155 109q-60 -6 -108 -54
t-78 -121q-62 -146 -62 -335zM1178 1878q-64 -86 -256 -257q-45 -40 -72 -60q-96 -9 -160 6q16 33 93 156q77 122 122 167q30 10 136 9q106 0 137 -21zM788 1878q-40 -54 -151 -161t-176 -156q-96 -9 -160 6q16 33 93 156q77 122 122 167q30 10 136 9q105 0 136 -21z" />
    <glyph glyph-name="OE" unicode="&#x152;" horiz-adv-x="1591" 
d="M344 657q0 -300 90.5 -381.5t182.5 -65t125.5 48.5t41.5 80t8 83l-1 338q0 76 -8.5 212t-12.5 158q-6 37 -59 55.5t-117 11.5q-119 -13 -184.5 -182t-65.5 -358zM518 -20q-108 0 -200.5 58t-177.5 200.5t-89 439.5q0 324 142 548t391 228q17 -17 26 -39q47 4 107.5 -5
t99.5 -30q109 35 352.5 46.5t370.5 -25.5q0 -84 -16.5 -142.5t-22.5 -70.5q-266 37 -399 0q-19 -138 -19 -402l175 4q174 3 241 -16q0 -143 -35 -215q-172 19 -385 -4l-1 -126q-1 -126 9 -181l191 1q191 1 235 -3q27 -74 27 -234q-298 -4 -698 -18q-8 23 -12.5 32t-8.5 29
q-57 -47 -126 -61t-177 -14z" />
    <glyph glyph-name="oe" unicode="&#x153;" horiz-adv-x="1484" 
d="M935 730q-37 -85 -28 -185q94 6 163 8t101 6q10 92 -22.5 174t-104.5 82t-109 -85zM331 512.5q-1 -62.5 6 -136.5t44 -138t91 -59q96 9 133 128t22 284t-68 180t-96 11t-74 -47t-44 -101.5t-14 -121zM520 999q151 4 244 -94q100 111 280 113q127 0 204 -56.5
t131.5 -183.5t25.5 -366q-97 -25 -167 -25h-323q4 -211 154 -207q130 -4 203 137q64 -57 84 -96t18 -51q-39 -109 -129 -154t-190 -42q-187 6 -297 128q-94 -107 -254 -122q-190 -19 -299.5 100t-126.5 317q-26 264 76 444.5t333 184.5q19 -9 33 -27z" />
    <glyph glyph-name="Racute" unicode="&#x154;" horiz-adv-x="999" 
d="M417 735q41 0 93 30t92 73q86 95 85 178q-1 82 -58 131t-205 49q-23 0 -49 -6q-7 -145 -15 -257t-8 -194q24 -4 65 -4zM233 -2q-82 0 -135 27q-29 269 -18 618t31 594q-34 98 -39 129q121 70 338 72q387 0 495 -253q39 -89 39 -229t-90 -246q-90 -104 -233 -151
q189 -319 337 -487q-54 -39 -125 -56q-71 -18 -110 -18q-141 69 -373 502q-9 -183 17 -471q-52 -31 -134 -31zM907 1878q-64 -86 -256 -257q-45 -40 -71 -60q-96 -9 -160 6q16 33 93 156q77 122 122 167q30 10 136 9q105 0 136 -21z" />
    <glyph glyph-name="racute" unicode="&#x155;" horiz-adv-x="999" 
d="M417 735q41 0 93 30t92 73q86 95 85 178q-1 82 -58 131t-205 49q-23 0 -49 -6q-7 -145 -15 -257t-8 -194q24 -4 65 -4zM233 -2q-82 0 -135 27q-29 269 -18 618t31 594q-34 98 -39 129q121 70 338 72q387 0 495 -253q39 -89 39 -229t-90 -246q-90 -104 -233 -151
q189 -319 337 -487q-54 -39 -125 -56q-71 -18 -110 -18q-141 69 -373 502q-9 -183 17 -471q-52 -31 -134 -31zM907 1878q-64 -86 -256 -257q-45 -40 -71 -60q-96 -9 -160 6q16 33 93 156q77 122 122 167q30 10 136 9q105 0 136 -21z" />
    <glyph glyph-name="Rcommaaccent" unicode="&#x156;" horiz-adv-x="999" 
d="M417 735q41 0 93 30t92 73q86 95 85 178q-1 82 -58 131t-205 49q-23 0 -49 -6q-7 -145 -15 -257t-8 -194q24 -4 65 -4zM233 -2q-82 0 -135 27q-29 269 -18 618t31 594q-34 98 -39 129q121 70 338 72q387 0 495 -253q39 -89 39 -229t-90 -246q-90 -104 -233 -151
q189 -319 337 -487q-54 -39 -125 -56q-71 -18 -110 -18q-141 69 -373 502q-9 -183 17 -471q-52 -31 -134 -31zM688 -274q0 -126 -93 -229q-36 -40 -91 -75q-37 0 -51 19q27 29 51 67t16 82q-67 -11 -108 20q-59 40 -55 122q5 82 57 120t118 38t111 -47q45 -46 45 -117z" />
    <glyph glyph-name="rcommaaccent" unicode="&#x157;" horiz-adv-x="999" 
d="M417 735q41 0 93 30t92 73q86 95 85 178q-1 82 -58 131t-205 49q-23 0 -49 -6q-7 -145 -15 -257t-8 -194q24 -4 65 -4zM233 -2q-82 0 -135 27q-29 269 -18 618t31 594q-34 98 -39 129q121 70 338 72q387 0 495 -253q39 -89 39 -229t-90 -246q-90 -104 -233 -151
q189 -319 337 -487q-54 -39 -125 -56q-71 -18 -110 -18q-141 69 -373 502q-9 -183 17 -471q-52 -31 -134 -31zM688 -274q0 -126 -93 -229q-36 -40 -91 -75q-37 0 -51 19q27 29 51 67t16 82q-67 -11 -108 20q-59 40 -55 122q5 82 57 120t118 38t111 -47q45 -46 45 -117z" />
    <glyph glyph-name="Rcaron" unicode="&#x158;" horiz-adv-x="999" 
d="M417 735q41 0 93 30t92 73q86 95 85 178q-1 82 -58 131t-205 49q-23 0 -49 -6q-7 -145 -15 -257t-8 -194q24 -4 65 -4zM233 -2q-82 0 -135 27q-29 269 -18 618t31 594q-34 98 -39 129q121 70 338 72q387 0 495 -253q39 -89 39 -229t-90 -246q-90 -104 -233 -151
q189 -319 337 -487q-54 -39 -125 -56q-71 -18 -110 -18q-141 69 -373 502q-9 -183 17 -471q-52 -31 -134 -31zM500 1718q91 91 164 183q122 -10 174 -37q-57 -91 -260 -314q-82 -6 -164 0q-106 111 -174 205t-80 117q55 23 162 31q37 -41 84 -89z" />
    <glyph glyph-name="rcaron" unicode="&#x159;" horiz-adv-x="999" 
d="M417 735q41 0 93 30t92 73q86 95 85 178q-1 82 -58 131t-205 49q-23 0 -49 -6q-7 -145 -15 -257t-8 -194q24 -4 65 -4zM233 -2q-82 0 -135 27q-29 269 -18 618t31 594q-34 98 -39 129q121 70 338 72q387 0 495 -253q39 -89 39 -229t-90 -246q-90 -104 -233 -151
q189 -319 337 -487q-54 -39 -125 -56q-71 -18 -110 -18q-141 69 -373 502q-9 -183 17 -471q-52 -31 -134 -31zM500 1718q91 91 164 183q122 -10 174 -37q-57 -91 -260 -314q-82 -6 -164 0q-106 111 -174 205t-80 117q55 23 162 31q37 -41 84 -89z" />
    <glyph glyph-name="Sacute" unicode="&#x15a;" horiz-adv-x="956" 
d="M444 190q160 0 156 115q-3 93 -157 171q-63 32 -125 58q-264 110 -273 361q-8 215 113 359q121 145 322 181t336 -52q46 -30 68 -93t6 -152t-48 -157q-17 -28 -105 -48t-147 -18q31 68 45 189q6 54 -33 72t-88 5q-91 -24 -140 -107t-38 -157q19 -139 192 -217
q196 -91 257 -143q120 -104 122 -246q4 -185 -141 -267q-116 -67 -279 -68q-326 -2 -395 137q0 143 62 241q53 -82 131 -123t159 -41zM926 1878q-64 -86 -256 -257q-45 -40 -72 -60q-96 -9 -160 6q43 89 118 195t97 128q30 10 136 9q106 0 137 -21z" />
    <glyph glyph-name="sacute" unicode="&#x15b;" horiz-adv-x="956" 
d="M444 190q160 0 156 115q-3 93 -157 171q-63 32 -125 58q-264 110 -273 361q-8 215 113 359q121 145 322 181t336 -52q46 -30 68 -93t6 -152t-48 -157q-17 -28 -105 -48t-147 -18q31 68 45 189q6 54 -33 72t-88 5q-91 -24 -140 -107t-38 -157q19 -139 192 -217
q196 -91 257 -143q120 -104 122 -246q4 -185 -141 -267q-116 -67 -279 -68q-326 -2 -395 137q0 143 62 241q53 -82 131 -123t159 -41zM926 1878q-64 -86 -256 -257q-45 -40 -72 -60q-96 -9 -160 6q43 89 118 195t97 128q30 10 136 9q106 0 137 -21z" />
    <glyph glyph-name="Scircumflex" unicode="&#x15c;" horiz-adv-x="956" 
d="M444 190q160 0 156 115q-3 93 -157 171q-63 32 -125 58q-264 110 -273 361q-8 215 113 359q121 145 322 181t336 -52q46 -30 68 -93t6 -152t-48 -157q-17 -28 -105 -48t-147 -18q31 68 45 189q6 54 -33 72t-88 5q-91 -24 -140 -107t-38 -157q19 -139 192 -217
q196 -91 257 -143q120 -104 122 -246q4 -185 -141 -267q-116 -67 -279 -68q-326 -2 -395 137q0 143 62 241q53 -82 131 -123t159 -41zM555 1706q-123 -123 -178 -184q-103 5 -162 30q15 30 93 132q77 102 161 190q82 6 164 0q195 -211 235 -277q15 -22 25 -36
q-52 -27 -174 -37q-103 121 -164 182z" />
    <glyph glyph-name="scircumflex" unicode="&#x15d;" horiz-adv-x="956" 
d="M444 190q160 0 156 115q-3 93 -157 171q-63 32 -125 58q-264 110 -273 361q-8 215 113 359q121 145 322 181t336 -52q46 -30 68 -93t6 -152t-48 -157q-17 -28 -105 -48t-147 -18q31 68 45 189q6 54 -33 72t-88 5q-91 -24 -140 -107t-38 -157q19 -139 192 -217
q196 -91 257 -143q120 -104 122 -246q4 -185 -141 -267q-116 -67 -279 -68q-326 -2 -395 137q0 143 62 241q53 -82 131 -123t159 -41zM555 1706q-123 -123 -178 -184q-103 5 -162 30q15 30 93 132q77 102 161 190q82 6 164 0q195 -211 235 -277q15 -22 25 -36
q-52 -27 -174 -37q-103 121 -164 182z" />
    <glyph glyph-name="Scedilla" unicode="&#x15e;" horiz-adv-x="956" 
d="M582 -119q61 0 110 -48.5t49 -114.5q0 -114 -80.5 -181t-195.5 -67q-162 0 -223 90l43 82q18 -14 61 -31t83 -17t79 26t39 67q0 128 -187 88l-53 45q31 65 119 155q-121 4 -214 39.5t-120 98.5q0 141 62 241q53 -82 130.5 -123t159.5 -41q160 0 156 115q-3 93 -111 148
t-211.5 97.5t-166 142t-66.5 205.5q-8 213 113.5 357t330.5 183q117 20 199 -2.5t128 -52t68 -93.5t5 -152.5t-47 -156.5q-28 -44 -128 -56t-124 -10q34 75 45 189q6 53 -33 71.5t-88 5.5q-90 -24 -139 -107t-39 -158q19 -138 202 -221q183 -84 245.5 -137.5t92 -111
t31.5 -138.5q4 -151 -93 -229.5t-253 -96.5q-16 -23 -32.5 -50.5t-39.5 -62.5q32 12 93 12z" />
    <glyph glyph-name="scedilla" unicode="&#x15f;" horiz-adv-x="956" 
d="M582 -119q61 0 110 -48.5t49 -114.5q0 -114 -80.5 -181t-195.5 -67q-162 0 -223 90l43 82q18 -14 61 -31t83 -17t79 26t39 67q0 128 -187 88l-53 45q31 65 119 155q-121 4 -214 39.5t-120 98.5q0 141 62 241q53 -82 130.5 -123t159.5 -41q160 0 156 115q-3 93 -111 148
t-211.5 97.5t-166 142t-66.5 205.5q-8 213 113.5 357t330.5 183q117 20 199 -2.5t128 -52t68 -93.5t5 -152.5t-47 -156.5q-28 -44 -128 -56t-124 -10q34 75 45 189q6 53 -33 71.5t-88 5.5q-90 -24 -139 -107t-39 -158q19 -138 202 -221q183 -84 245.5 -137.5t92 -111
t31.5 -138.5q4 -151 -93 -229.5t-253 -96.5q-16 -23 -32.5 -50.5t-39.5 -62.5q32 12 93 12z" />
    <glyph glyph-name="Scaron" unicode="&#x160;" horiz-adv-x="956" 
d="M444 190q160 0 156 115q-3 93 -157 171q-63 32 -125 58q-264 110 -273 361q-8 215 113 359q121 145 322 181t336 -52q46 -30 68 -93t6 -152t-48 -157q-17 -28 -105 -48t-147 -18q31 68 45 189q6 54 -33 72t-88 5q-91 -24 -140 -107t-38 -157q19 -139 192 -217
q196 -91 257 -143q120 -104 122 -246q4 -185 -141 -267q-116 -67 -279 -68q-326 -2 -395 137q0 143 62 241q53 -82 131 -123t159 -41zM528 1718q104 104 164 183q122 -10 174 -37q-63 -100 -260 -314q-82 -6 -164 0q-89 93 -165 195t-89 127q55 23 162 31q37 -41 84 -89z
" />
    <glyph glyph-name="scaron" unicode="&#x161;" horiz-adv-x="866" 
d="M475 1298q91 91 164 183q122 -10 174 -37q-63 -100 -260 -314q-82 -6 -164 0q-98 103 -170 201.5t-84 120.5q62 26 162 31q37 -41 84 -89zM410 166q38 0 70 20.5t31 57.5t-57 63.5t-120 50.5q-127 49 -196 123t-75 185q0 160 130 259t309 99q135 0 219 -41t88 -135
t-31 -150q-33 -33 -127 -43t-119 -10q40 62 38 119t-85 53t-119 -54t-25 -116t146 -110q68 -27 191.5 -74.5t127.5 -201.5q5 -154 -105.5 -222t-277.5 -68t-236 45t-85 72q-15 102 52 211q60 -93 139 -113t117 -20z" />
    <glyph glyph-name="Tcommaaccent" unicode="&#x162;" horiz-adv-x="917" 
d="M66 1415q112 11 355 15t431 -11q17 -92 12 -229q-57 0 -136 3t-142 -1q-27 -571 8 -1161q-113 -50 -283 -17q-10 152 -10 308t3 308t6 295q3 142 1 265q-131 0 -258 -10q-2 20 -2 98t15 137zM616 -274q0 -187 -184 -304q-37 0 -51 19q27 29 51 67t17 82q-68 -11 -109 20
q-60 41 -55 122q6 82 57 120t118 38q68 0 112 -47q44 -46 44 -117z" />
    <glyph glyph-name="tcommaaccent" unicode="&#x163;" horiz-adv-x="917" 
d="M66 1415q112 11 355 15t431 -11q17 -92 12 -229q-57 0 -136 3t-142 -1q-27 -571 8 -1161q-113 -50 -283 -17q-10 152 -10 308t3 308t6 295q3 142 1 265q-131 0 -258 -10q-2 20 -2 98t15 137zM616 -274q0 -187 -184 -304q-37 0 -51 19q27 29 51 67t17 82q-68 -11 -109 20
q-60 41 -55 122q6 82 57 120t118 38q68 0 112 -47q44 -46 44 -117z" />
    <glyph glyph-name="Tcaron" unicode="&#x164;" horiz-adv-x="917" 
d="M66 1415q112 11 355 15t431 -11q17 -92 12 -229q-57 0 -136 3t-142 -1q-27 -571 8 -1161q-113 -50 -283 -17q-10 152 -10 308t3 308t6 295q3 142 1 265q-131 0 -258 -10q-2 20 -2 98t15 137zM451 1718q100 100 163 183q122 -10 174 -37q-63 -100 -260 -314q-82 -6 -163 0
q-106 111 -174 205t-80 117q55 23 161 31q56 -62 179 -185z" />
    <glyph glyph-name="tcaron" unicode="&#x165;" horiz-adv-x="917" 
d="M66 1415q112 11 355 15t431 -11q17 -92 12 -229q-57 0 -136 3t-142 -1q-27 -571 8 -1161q-113 -50 -283 -17q-10 152 -10 308t3 308t6 295q3 142 1 265q-131 0 -258 -10q-2 20 -2 98t15 137zM451 1718q100 100 163 183q122 -10 174 -37q-63 -100 -260 -314q-82 -6 -163 0
q-106 111 -174 205t-80 117q55 23 161 31q56 -62 179 -185z" />
    <glyph glyph-name="Tbar" unicode="&#x166;" horiz-adv-x="917" 
d="M66 1415q244 25 476 17.5t310 -13.5q17 -92 12 -229q-57 0 -136 3t-142 -1q-7 -139 -13 -436q120 0 242 -8q61 -76 14 -191q-90 8 -254 12q2 -268 19 -538q-112 -50 -283 -17q-17 236 -8 555l-223 -6q-16 29 -20.5 82t12.5 94q60 9 235 17q2 117 4 226.5t0 207.5
q-131 0 -258 -10q-2 20 -2 97.5t15 137.5z" />
    <glyph glyph-name="tbar" unicode="&#x167;" horiz-adv-x="917" 
d="M66 1415q244 25 476 17.5t310 -13.5q17 -92 12 -229q-57 0 -136 3t-142 -1q-7 -139 -13 -436q120 0 242 -8q61 -76 14 -191q-90 8 -254 12q2 -268 19 -538q-112 -50 -283 -17q-17 236 -8 555l-223 -6q-16 29 -20.5 82t12.5 94q60 9 235 17q2 117 4 226.5t0 207.5
q-131 0 -258 -10q-2 20 -2 97.5t15 137.5z" />
    <glyph glyph-name="Utilde" unicode="&#x168;" 
d="M922 25q-72 -31 -211 -15q-35 4 -49 13q-2 23 -2 57t-3 53q-27 -59 -93 -100t-136 -45q-333 -15 -351 395q-11 250 17 580t25 458q170 12 268 2q1 -145 -21 -397t-25 -378t7 -232t46 -147q36 -40 82 -41t94 34t81 100q34 380 15 1033q128 27 272 6q0 -223 -14 -707
q-13 -483 -2 -669zM448 1644q-40 40 -52 39q-72 0 -105 -149q-89 0 -129 20q-4 10 -4 20v21q4 119 69 194q66 75 159 75t187 -107q31 -35 63 -46q78 -27 101 40q14 41 4 102q13 1 31 5q52 10 115 2q18 -48 17 -98q-2 -109 -44 -156q-63 -76 -180 -76t-232 114z" />
    <glyph glyph-name="utilde" unicode="&#x169;" 
d="M922 25q-72 -31 -211 -15q-35 4 -49 13q-2 23 -2 57t-3 53q-27 -59 -93 -100t-136 -45q-333 -15 -351 395q-11 250 17 580t25 458q170 12 268 2q1 -145 -21 -397t-25 -378t7 -232t46 -147q36 -40 82 -41t94 34t81 100q34 380 15 1033q128 27 272 6q0 -223 -14 -707
q-13 -483 -2 -669zM448 1644q-40 40 -52 39q-72 0 -105 -149q-89 0 -129 20q-4 10 -4 20v21q4 119 69 194q66 75 159 75t187 -107q31 -35 63 -46q78 -27 101 40q14 41 4 102q13 1 31 5q52 10 115 2q18 -48 17 -98q-2 -109 -44 -156q-63 -76 -180 -76t-232 114z" />
    <glyph glyph-name="Umacron" unicode="&#x16a;" 
d="M922 25q-72 -31 -211 -15q-35 4 -49 13q-2 23 -2 57t-3 53q-27 -59 -93 -100t-136 -45q-333 -15 -351 395q-11 250 17 580t25 458q170 12 268 2q1 -145 -21 -397t-25 -378t7 -232t46 -147q36 -40 82 -41t94 34t81 100q34 380 15 1033q128 27 272 6q0 -223 -14 -707
q-13 -483 -2 -669zM610 1569q-181 0 -424 -6q-43 18 -31 125q3 27 13 47q388 14 532 8t179 -6q20 -23 19 -75t-17 -97q-90 4 -271 4z" />
    <glyph glyph-name="umacron" unicode="&#x16b;" 
d="M922 25q-72 -31 -211 -15q-35 4 -49 13q-2 23 -2 57t-3 53q-27 -59 -93 -100t-136 -45q-333 -15 -351 395q-11 250 17 580t25 458q170 12 268 2q1 -145 -21 -397t-25 -378t7 -232t46 -147q36 -40 82 -41t94 34t81 100q34 380 15 1033q128 27 272 6q0 -223 -14 -707
q-13 -483 -2 -669zM610 1569q-181 0 -424 -6q-43 18 -31 125q3 27 13 47q388 14 532 8t179 -6q20 -23 19 -75t-17 -97q-90 4 -271 4z" />
    <glyph glyph-name="Ubreve" unicode="&#x16c;" 
d="M922 25q-72 -31 -211 -15q-35 4 -49 13q-2 23 -2 57t-3 53q-27 -59 -93 -100t-136 -45q-333 -15 -351 395q-11 250 17 580t25 458q170 12 268 2q1 -145 -21 -397t-25 -378t7 -232t46 -147q36 -40 82 -41t94 34t81 100q34 380 15 1033q128 27 272 6q0 -223 -14 -707
q-13 -483 -2 -669zM668 1843q122 13 192 -6q4 -142 -94 -211t-250 -72q-232 0 -304 158q-24 53 -22 125q73 17 199 6q2 -78 40 -117q37 -38 99 -38t101 40t39 115z" />
    <glyph glyph-name="ubreve" unicode="&#x16d;" 
d="M922 25q-72 -31 -211 -15q-35 4 -49 13q-2 23 -2 57t-3 53q-27 -59 -93 -100t-136 -45q-333 -15 -351 395q-11 250 17 580t25 458q170 12 268 2q1 -145 -21 -397t-25 -378t7 -232t46 -147q36 -40 82 -41t94 34t81 100q34 380 15 1033q128 27 272 6q0 -223 -14 -707
q-13 -483 -2 -669zM668 1843q122 13 192 -6q4 -142 -94 -211t-250 -72q-232 0 -304 158q-24 53 -22 125q73 17 199 6q2 -78 40 -117q37 -38 99 -38t101 40t39 115z" />
    <glyph glyph-name="Uring" unicode="&#x16e;" 
d="M922 25q-72 -31 -211 -15q-35 4 -49 13q-2 23 -2 57t-3 53q-27 -59 -93 -100t-136 -45q-333 -15 -351 395q-11 250 17 580t25 458q170 12 268 2q1 -145 -21 -397t-25 -378t7 -232t46 -147q36 -40 82 -41t94 34t81 100q34 380 15 1033q128 27 272 6q0 -223 -14 -707
q-13 -483 -2 -669zM322 1747v12q6 90 69 147q65 56 163 55t153 -59t55 -145t-66 -148t-159 -62t-154 58t-61 142zM614 1756q0 28 -17 50t-57 21q-40 0 -60 -26t-17 -56q10 -65 72 -65q39 0 59 24t20 52z" />
    <glyph glyph-name="uring" unicode="&#x16f;" 
d="M922 25q-72 -31 -211 -15q-35 4 -49 13q-2 23 -2 57t-3 53q-27 -59 -93 -100t-136 -45q-333 -15 -351 395q-11 250 17 580t25 458q170 12 268 2q1 -145 -21 -397t-25 -378t7 -232t46 -147q36 -40 82 -41t94 34t81 100q34 380 15 1033q128 27 272 6q0 -223 -14 -707
q-13 -483 -2 -669zM322 1747v12q6 90 69 147q65 56 163 55t153 -59t55 -145t-66 -148t-159 -62t-154 58t-61 142zM614 1756q0 28 -17 50t-57 21q-40 0 -60 -26t-17 -56q10 -65 72 -65q39 0 59 24t20 52z" />
    <glyph glyph-name="Uhungarumlaut" unicode="&#x170;" 
d="M922 25q-72 -31 -211 -15q-35 4 -49 13q-2 23 -2 57t-3 53q-27 -59 -93 -100t-136 -45q-333 -15 -351 395q-11 250 17 580t25 458q170 12 268 2q1 -145 -21 -397t-25 -378t7 -232t46 -147q36 -40 82 -41t94 34t81 100q34 380 15 1033q128 27 272 6q0 -223 -14 -707
q-13 -483 -2 -669zM1128 1878q-40 -54 -151 -161t-176 -156q-96 -9 -160 6q16 33 93 156q77 122 122 167q30 10 136 9q105 0 136 -21zM739 1878q-40 -54 -151 -161t-176 -156q-96 -9 -160 6q16 33 93 156q77 122 122 167q30 10 136 9q105 0 136 -21z" />
    <glyph glyph-name="uhungarumlaut" unicode="&#x171;" 
d="M922 25q-72 -31 -211 -15q-35 4 -49 13q-2 23 -2 57t-3 53q-27 -59 -93 -100t-136 -45q-333 -15 -351 395q-11 250 17 580t25 458q170 12 268 2q1 -145 -21 -397t-25 -378t7 -232t46 -147q36 -40 82 -41t94 34t81 100q34 380 15 1033q128 27 272 6q0 -223 -14 -707
q-13 -483 -2 -669zM1128 1878q-40 -54 -151 -161t-176 -156q-96 -9 -160 6q16 33 93 156q77 122 122 167q30 10 136 9q105 0 136 -21zM739 1878q-40 -54 -151 -161t-176 -156q-96 -9 -160 6q16 33 93 156q77 122 122 167q30 10 136 9q105 0 136 -21z" />
    <glyph glyph-name="Uogonek" unicode="&#x172;" 
d="M738 -469q-112 0 -179 53t-67 164q0 170 182 268l-12 7q-2 23 -2 57t-3 53q-27 -59 -93 -100t-136 -45q-333 -15 -351 395q-11 250 17 580t25 458q170 12 268 2q1 -145 -21 -397t-25 -378t7 -232t46 -147q36 -40 82 -41t94 34t81 100q34 380 15 1033q128 27 272 6
q0 -223 -14 -707t-2 -669q-79 -18 -129 -59q-104 -86 -93 -183q4 -53 32 -73q55 -40 138 8q37 22 60 51l39 -117q-35 -57 -104 -89t-127 -32z" />
    <glyph glyph-name="uogonek" unicode="&#x173;" 
d="M738 -469q-112 0 -179 53t-67 164q0 170 182 268l-12 7q-2 23 -2 57t-3 53q-27 -59 -93 -100t-136 -45q-333 -15 -351 395q-11 250 17 580t25 458q170 12 268 2q1 -145 -21 -397t-25 -378t7 -232t46 -147q36 -40 82 -41t94 34t81 100q34 380 15 1033q128 27 272 6
q0 -223 -14 -707t-2 -669q-79 -18 -129 -59q-104 -86 -93 -183q4 -53 32 -73q55 -40 138 8q37 22 60 51l39 -117q-35 -57 -104 -89t-127 -32z" />
    <glyph glyph-name="Wcircumflex" unicode="&#x174;" horiz-adv-x="1517" 
d="M41 1434q190 22 274 -19q-1 -220 27 -433q28 -214 59 -404q77 366 206 730q34 93 52 126q135 14 209 -29q33 -458 99 -766q16 -80 28 -111q27 212 108 520t122 382q159 0 252 -60q-151 -399 -256 -942q-39 -201 -62 -410q-96 -20 -149 -17t-80 3q-108 227 -172 536
q-29 134 -56 318q-125 -475 -184 -852q-138 -15 -231 4q-90 240 -200 970q-46 293 -46 454zM756 1706q-123 -123 -178 -184q-103 5 -162 30q15 30 93 132q77 102 161 190q82 6 164 0q195 -211 235 -277q15 -22 25 -36q-52 -27 -174 -37q-48 56 -164 182z" />
    <glyph glyph-name="wcircumflex" unicode="&#x175;" horiz-adv-x="1517" 
d="M41 1434q190 22 274 -19q-1 -220 27 -433q28 -214 59 -404q77 366 206 730q34 93 52 126q135 14 209 -29q33 -458 99 -766q16 -80 28 -111q27 212 108 520t122 382q159 0 252 -60q-151 -399 -256 -942q-39 -201 -62 -410q-96 -20 -149 -17t-80 3q-108 227 -172 536
q-29 134 -56 318q-125 -475 -184 -852q-138 -15 -231 4q-90 240 -200 970q-46 293 -46 454zM756 1706q-123 -123 -178 -184q-103 5 -162 30q15 30 93 132q77 102 161 190q82 6 164 0q195 -211 235 -277q15 -22 25 -36q-52 -27 -174 -37q-48 56 -164 182z" />
    <glyph glyph-name="Ycircumflex" unicode="&#x176;" horiz-adv-x="1136" 
d="M442 35q26 216 19 424q-95 287 -314 701q-61 118 -112 216q80 38 159 53t109 15q140 -259 199 -404t98 -262q113 372 160 483t82 185q147 0 260 -60q-130 -288 -210 -520q-79 -233 -136 -407q-2 -41 -4 -183t-23 -262q-224 -24 -287 21zM752 1524q-48 56 -164 182
q-122 -122 -178 -184q-103 5 -162 30q15 30 93 132q77 102 161 190q82 6 164 0q195 -211 235 -277q15 -22 25 -36q-52 -27 -174 -37z" />
    <glyph glyph-name="ycircumflex" unicode="&#x177;" horiz-adv-x="1136" 
d="M442 35q26 216 19 424q-95 287 -314 701q-61 118 -112 216q80 38 159 53t109 15q140 -259 199 -404t98 -262q113 372 160 483t82 185q147 0 260 -60q-130 -288 -210 -520q-79 -233 -136 -407q-2 -41 -4 -183t-23 -262q-224 -24 -287 21zM752 1524q-48 56 -164 182
q-122 -122 -178 -184q-103 5 -162 30q15 30 93 132q77 102 161 190q82 6 164 0q195 -211 235 -277q15 -22 25 -36q-52 -27 -174 -37z" />
    <glyph glyph-name="Ydieresis" unicode="&#x178;" horiz-adv-x="1136" 
d="M442 35q26 216 19 424q-95 287 -314 701q-61 118 -112 216q80 38 159 53t109 15q140 -259 199 -404t98 -262q113 372 160 483t82 185q147 0 260 -60q-130 -288 -210 -520q-79 -233 -136 -407q-2 -41 -4 -183t-23 -262q-224 -24 -287 21zM190 1695q0 67 52 109t122 43
q70 0 112 -39q42 -38 42 -104t-53 -111t-122 -45t-111 40t-42 107zM773 1548q-69 0 -111 40t-41 107q0 67 52 109t121 43q70 0 112 -39q42 -38 42 -104t-53 -111t-122 -45z" />
    <glyph glyph-name="Zacute" unicode="&#x179;" horiz-adv-x="993" 
d="M616 1204q-283 15 -495 -14q0 126 49 213q378 47 739 4q74 -88 -15 -240q-24 -41 -44 -73q-32 -52 -134 -231q-278 -486 -331 -630q39 0 109 1q301 4 376 -54q0 -111 -26 -168q-263 14 -742 -6q-49 49 -51 156q106 291 565 1042zM934 1878q-64 -86 -256 -257
q-45 -40 -72 -60q-96 -9 -160 6q43 89 118 195t98 128q30 10 136 9q105 0 136 -21z" />
    <glyph glyph-name="zacute" unicode="&#x17a;" horiz-adv-x="993" 
d="M616 1204q-283 15 -495 -14q0 126 49 213q378 47 739 4q74 -88 -15 -240q-24 -41 -44 -73q-32 -52 -134 -231q-278 -486 -331 -630q39 0 109 1q301 4 376 -54q0 -111 -26 -168q-263 14 -742 -6q-49 49 -51 156q106 291 565 1042zM934 1878q-64 -86 -256 -257
q-45 -40 -72 -60q-96 -9 -160 6q43 89 118 195t98 128q30 10 136 9q105 0 136 -21z" />
    <glyph glyph-name="Zdotaccent" unicode="&#x17b;" horiz-adv-x="993" 
d="M616 1204q-283 15 -495 -14q0 126 49 213q378 47 739 4q74 -88 -15 -240q-24 -41 -44 -73q-32 -52 -134 -231q-278 -486 -331 -630q39 0 109 1q301 4 376 -54q0 -111 -26 -168q-263 14 -742 -6q-49 49 -51 156q106 291 565 1042zM385 1699q0 67 52 109t121 43
q69 0 112 -39q43 -38 43 -104q1 -66 -53 -111t-122 -45t-111 40q-42 40 -42 107z" />
    <glyph glyph-name="zdotaccent" unicode="&#x17c;" horiz-adv-x="993" 
d="M616 1204q-283 15 -495 -14q0 126 49 213q378 47 739 4q74 -88 -15 -240q-24 -41 -44 -73q-32 -52 -134 -231q-278 -486 -331 -630q39 0 109 1q301 4 376 -54q0 -111 -26 -168q-263 14 -742 -6q-49 49 -51 156q106 291 565 1042zM385 1699q0 67 52 109t121 43
q69 0 112 -39q43 -38 43 -104q1 -66 -53 -111t-122 -45t-111 40q-42 40 -42 107z" />
    <glyph glyph-name="florin" unicode="&#x192;" horiz-adv-x="1138" 
d="M332 813q0 53 20.5 109.5t42.5 85.5q29 7 99 16q40 193 157 319.5t301 122.5q145 -6 201 -86q-34 -88 -125 -188q-12 16 -45 30.5t-63 14.5q-65 0 -103.5 -59.5t-52.5 -147.5q14 2 24 2h107q97 0 139 -6q-33 -111 -59.5 -153t-38.5 -48h-227q-51 -193 -102.5 -387
t-106.5 -352t-157.5 -233.5t-236.5 -71.5q-98 0 -137 41t-45 63q2 23 21.5 59t56.5 60q53 -47 112.5 -37t92.5 90q103 253 233 760q-58 -4 -108 -4z" />
    <glyph glyph-name="Ohorn" unicode="&#x1a0;" horiz-adv-x="1386" 
d="M395.5 339.5q51.5 -120.5 161.5 -122.5q109 -2 171.5 154.5t62.5 367.5t-44 315.5t-155 108.5q-61 -6 -108.5 -54t-93.5 -158t-46 -301q0 -190 51.5 -310.5zM1135 1310q0 48 -7 128q14 2 106 2t120 -15q9 -178 -55.5 -268t-262.5 -94q43 -123 43 -285q0 -344 -135.5 -571
t-389.5 -227t-376.5 199t-126.5 499q0 323 99.5 485t199 225.5t228.5 65.5q17 -17 26 -39q131 0 227.5 -61.5t145.5 -153.5q59 -2 93 4t49.5 32t15.5 74z" />
    <glyph glyph-name="ohorn" unicode="&#x1a1;" horiz-adv-x="1386" 
d="M395.5 339.5q51.5 -120.5 161.5 -122.5q109 -2 171.5 154.5t62.5 367.5t-44 315.5t-155 108.5q-61 -6 -108.5 -54t-93.5 -158t-46 -301q0 -190 51.5 -310.5zM1135 1310q0 48 -7 128q14 2 106 2t120 -15q9 -178 -55.5 -268t-262.5 -94q43 -123 43 -285q0 -344 -135.5 -571
t-389.5 -227t-376.5 199t-126.5 499q0 323 99.5 485t199 225.5t228.5 65.5q17 -17 26 -39q131 0 227.5 -61.5t145.5 -153.5q59 -2 93 4t49.5 32t15.5 74z" />
    <glyph glyph-name="Uhorn" unicode="&#x1af;" horiz-adv-x="1236" 
d="M922 25q-72 -31 -159 -21t-101 19q-2 23 -1 57.5t-4 52.5q-27 -59 -92 -100t-137 -45q-333 -15 -348 320t13.5 652t25.5 461q170 12 268 2q0 -139 -11 -268t-28.5 -338t2.5 -426q8 -82 44 -122t82 -41t94 34t81 100q34 380 15 1033q104 17 247 2q93 -4 119.5 39t18.5 206
q61 9 133.5 1.5t85.5 -13.5q9 -184 -55.5 -278.5t-276.5 -83.5q-3 -263 -16.5 -648.5t0.5 -594.5z" />
    <glyph glyph-name="uhorn" unicode="&#x1b0;" horiz-adv-x="1236" 
d="M922 25q-72 -31 -159 -21t-101 19q-2 23 -1 57.5t-4 52.5q-27 -59 -92 -100t-137 -45q-333 -15 -348 320t13.5 652t25.5 461q170 12 268 2q0 -139 -11 -268t-28.5 -338t2.5 -426q8 -82 44 -122t82 -41t94 34t81 100q34 380 15 1033q104 17 247 2q93 -4 119.5 39t18.5 206
q61 9 133.5 1.5t85.5 -13.5q9 -184 -55.5 -278.5t-276.5 -83.5q-3 -263 -16.5 -648.5t0.5 -594.5z" />
    <glyph glyph-name="Aringacute" unicode="&#x1fa;" horiz-adv-x="1058" 
d="M532 1145q-96 -374 -137 -606q115 8 228 4q-60 304 -91 602zM348 297q-27 -82 -39 -281q-19 -6 -127 -6q-136 0 -145 45q22 285 220 978q68 237 120 386q108 17 205 17q96 0 149 -25q98 -649 163 -930q66 -282 124 -444q-89 -39 -232 -39q-42 26 -68 91q-26 66 -52 214
q-12 2 -95 2t-223 -8zM325 1675v11q6 80 64 130q57 50 147 48q90 0 141 -52t51 -127t-62 -133q-58 -52 -143 -53t-142 51q-56 52 -56 125zM520 1616q34 0 54 22q19 22 19 46t-16 43q-17 19 -53 19t-54 -23t-16 -49q9 -58 66 -58zM882 2168q-54 -72 -227 -228
q-40 -35 -64 -53q-81 -9 -142 5q20 39 85 143q65 103 106 144q33 10 124 8q92 -2 118 -19z" />
    <glyph glyph-name="aringacute" unicode="&#x1fb;" horiz-adv-x="1058" 
d="M532 1145q-96 -374 -137 -606q115 8 228 4q-60 304 -91 602zM348 297q-27 -82 -39 -281q-19 -6 -127 -6q-136 0 -145 45q22 285 220 978q68 237 120 386q108 17 205 17q96 0 149 -25q98 -649 163 -930q66 -282 124 -444q-89 -39 -232 -39q-42 26 -68 91q-26 66 -52 214
q-12 2 -95 2t-223 -8zM325 1675v11q6 80 64 130q57 50 147 48q90 0 141 -52t51 -127t-62 -133q-58 -52 -143 -53t-142 51q-56 52 -56 125zM520 1616q34 0 54 22q19 22 19 46t-16 43q-17 19 -53 19t-54 -23t-16 -49q9 -58 66 -58zM882 2168q-54 -72 -227 -228
q-40 -35 -64 -53q-81 -9 -142 5q20 39 85 143q65 103 106 144q33 10 124 8q92 -2 118 -19z" />
    <glyph glyph-name="AEacute" unicode="&#x1fc;" horiz-adv-x="1519" 
d="M498 539q119 8 231 4q5 333 23 602q-158 -350 -254 -606zM725 303q-12 2 -97 2t-225 -8q-40 -73 -92 -285q-18 -6 -133 -6q-143 0 -143 45q40 158 130 361q302 689 470 985q63 19 269 23q206 5 340 3t222 -22q0 -87 -15 -143t-21 -68q-149 21 -260 16q-111 -4 -142 -10
q-18 -130 -18 -410l208 7q140 0 207 -19q0 -141 -34 -215q-172 19 -385 -4l-2 -154q0 -98 10 -153l228 2q152 0 198 -4q31 -85 26 -234q-280 -3 -686 -18q-31 31 -43 91t-12 218zM1407 1878q-64 -86 -256 -257q-45 -40 -72 -60q-97 -9 -159 6q45 94 119 197q73 104 96 126
q30 10 136 9q105 0 136 -21z" />
    <glyph glyph-name="aeacute" unicode="&#x1fd;" horiz-adv-x="1519" 
d="M498 539q119 8 231 4q5 333 23 602q-158 -350 -254 -606zM725 303q-12 2 -97 2t-225 -8q-40 -73 -92 -285q-18 -6 -133 -6q-143 0 -143 45q40 158 130 361q302 689 470 985q63 19 269 23q206 5 340 3t222 -22q0 -87 -15 -143t-21 -68q-149 21 -260 16q-111 -4 -142 -10
q-18 -130 -18 -410l208 7q140 0 207 -19q0 -141 -34 -215q-172 19 -385 -4l-2 -154q0 -98 10 -153l228 2q152 0 198 -4q31 -85 26 -234q-280 -3 -686 -18q-31 31 -43 91t-12 218zM1407 1878q-64 -86 -256 -257q-45 -40 -72 -60q-97 -9 -159 6q45 94 119 197q73 104 96 126
q30 10 136 9q105 0 136 -21z" />
    <glyph glyph-name="Oslashacute" unicode="&#x1fe;" horiz-adv-x="1134" 
d="M555 215q113 0 175 152t64 355q1 203 -42 325q-45 -139 -76 -235t-59 -182t-55 -178t-66 -221q32 -16 59 -16zM588 1163q-44 0 -85 -36q-42 -36 -74 -91q-62 -106 -79 -243q-20 -200 17 -367q12 -57 34 -100l252 823q-22 14 -65 14zM51 664q0 300 112 517q59 117 161 193
t254 80q14 -14 26 -39q74 0 123 -14q60 123 76 147q55 -8 115 -37l-66 -168q114 -67 172 -221q59 -154 59 -334q0 -356 -140 -581t-396 -225q-66 0 -123 14q-31 -103 -51 -141q-70 0 -103 30q7 66 39 156q-116 74 -187 245t-71 378zM995 1878q-40 -54 -151 -161t-176 -156
q-96 -9 -160 6q16 33 93 156q77 122 122 167q30 10 136 9q105 0 136 -21z" />
    <glyph glyph-name="oslashacute" unicode="&#x1ff;" horiz-adv-x="1134" 
d="M555 215q113 0 175 152t64 355q1 203 -42 325q-45 -139 -76 -235t-59 -182t-55 -178t-66 -221q32 -16 59 -16zM588 1163q-44 0 -85 -36q-42 -36 -74 -91q-62 -106 -79 -243q-20 -200 17 -367q12 -57 34 -100l252 823q-22 14 -65 14zM51 664q0 300 112 517q59 117 161 193
t254 80q14 -14 26 -39q74 0 123 -14q60 123 76 147q55 -8 115 -37l-66 -168q114 -67 172 -221q59 -154 59 -334q0 -356 -140 -581t-396 -225q-66 0 -123 14q-31 -103 -51 -141q-70 0 -103 30q7 66 39 156q-116 74 -187 245t-71 378zM995 1878q-40 -54 -151 -161t-176 -156
q-96 -9 -160 6q16 33 93 156q77 122 122 167q30 10 136 9q105 0 136 -21z" />
    <glyph glyph-name="uni0200" unicode="&#x200;" horiz-adv-x="1052" 
d="M526 1145q-96 -374 -137 -606q115 8 227 4q-12 59 -43 258q-32 200 -47 344zM342 297q-30 -91 -39 -281q-19 -6 -127 -6q-136 0 -145 45q27 350 287 1206q32 101 53 158q108 17 204 17q95 0 150 -25q98 -649 163 -930q66 -282 124 -444q-89 -39 -232 -39q-45 27 -68 91
q-24 64 -53 214q-12 2 -94 2q-83 0 -223 -8zM-45 1878q26 17 129 21t143 -9q75 -75 176 -254q27 -45 39 -69q-64 -15 -159 -6q-108 80 -261 240q-44 46 -67 77zM344 1878q26 17 129 21t143 -9q68 -68 177 -254q27 -45 38 -69q-64 -15 -159 -6q-108 80 -261 240
q-44 46 -67 77z" />
    <glyph glyph-name="uni0201" unicode="&#x201;" horiz-adv-x="1052" 
d="M526 1145q-96 -374 -137 -606q115 8 227 4q-12 59 -43 258q-32 200 -47 344zM342 297q-30 -91 -39 -281q-19 -6 -127 -6q-136 0 -145 45q27 350 287 1206q32 101 53 158q108 17 204 17q95 0 150 -25q98 -649 163 -930q66 -282 124 -444q-89 -39 -232 -39q-45 27 -68 91
q-24 64 -53 214q-12 2 -94 2q-83 0 -223 -8zM-45 1878q26 17 129 21t143 -9q75 -75 176 -254q27 -45 39 -69q-64 -15 -159 -6q-108 80 -261 240q-44 46 -67 77zM344 1878q26 17 129 21t143 -9q68 -68 177 -254q27 -45 38 -69q-64 -15 -159 -6q-108 80 -261 240
q-44 46 -67 77z" />
    <glyph glyph-name="uni0202" unicode="&#x202;" horiz-adv-x="1052" 
d="M526 1145q-96 -374 -137 -606q115 8 227 4q-12 59 -43 258q-32 200 -47 344zM342 297q-30 -91 -39 -281q-19 -6 -127 -6q-136 0 -145 45q27 350 287 1206q32 101 53 158q108 17 204 17q95 0 150 -25q98 -649 163 -930q66 -282 124 -444q-89 -39 -232 -39q-45 27 -68 91
q-24 64 -53 214q-12 2 -94 2q-83 0 -223 -8zM539 1706q-61 0 -99 -39t-41 -117q-125 -11 -198 6q-4 143 89 213t236 70q238 0 319 -153q28 -53 25 -130q-70 -19 -192 -6q0 74 -39 115t-100 41z" />
    <glyph glyph-name="uni0203" unicode="&#x203;" horiz-adv-x="1052" 
d="M526 1145q-96 -374 -137 -606q115 8 227 4q-12 59 -43 258q-32 200 -47 344zM342 297q-30 -91 -39 -281q-19 -6 -127 -6q-136 0 -145 45q27 350 287 1206q32 101 53 158q108 17 204 17q95 0 150 -25q98 -649 163 -930q66 -282 124 -444q-89 -39 -232 -39q-45 27 -68 91
q-24 64 -53 214q-12 2 -94 2q-83 0 -223 -8zM539 1706q-61 0 -99 -39t-41 -117q-125 -11 -198 6q-4 143 89 213t236 70q238 0 319 -153q28 -53 25 -130q-70 -19 -192 -6q0 74 -39 115t-100 41z" />
    <glyph glyph-name="uni0204" unicode="&#x204;" horiz-adv-x="862" 
d="M735 559q-171 19 -385 -4l-2 -154q0 -98 10 -153l229 2q153 0 197 -4q27 -74 27 -234q-283 -3 -688 -18q-37 121 -42 181q-5 61 -5 110q-8 463 26 899q-20 83 -30 198q90 36 351 46t388 -27q-1 -90 -17 -145q-16 -56 -22 -68q-266 37 -399 0q-19 -138 -19 -402l208 7
q142 0 208 -19q0 -143 -35 -215zM-147 1878q26 17 129 21t143 -9q75 -75 176 -254q27 -45 39 -69q-64 -15 -160 -6q-108 80 -206 183t-121 134zM242 1878q26 17 129 21t143 -9q75 -75 176 -254q27 -45 39 -69q-64 -15 -160 -6q-108 80 -206 183t-121 134z" />
    <glyph glyph-name="uni0205" unicode="&#x205;" horiz-adv-x="862" 
d="M735 559q-171 19 -385 -4l-2 -154q0 -98 10 -153l229 2q153 0 197 -4q27 -74 27 -234q-283 -3 -688 -18q-37 121 -42 181q-5 61 -5 110q-8 463 26 899q-20 83 -30 198q90 36 351 46t388 -27q-1 -90 -17 -145q-16 -56 -22 -68q-266 37 -399 0q-19 -138 -19 -402l208 7
q142 0 208 -19q0 -143 -35 -215zM-147 1878q26 17 129 21t143 -9q75 -75 176 -254q27 -45 39 -69q-64 -15 -160 -6q-108 80 -206 183t-121 134zM242 1878q26 17 129 21t143 -9q75 -75 176 -254q27 -45 39 -69q-64 -15 -160 -6q-108 80 -206 183t-121 134z" />
    <glyph glyph-name="uni0206" unicode="&#x206;" horiz-adv-x="862" 
d="M735 559q-171 19 -385 -4l-2 -154q0 -98 10 -153l229 2q153 0 197 -4q27 -74 27 -234q-283 -3 -688 -18q-37 121 -42 181q-5 61 -5 110q-8 463 26 899q-20 83 -30 198q90 36 351 46t388 -27q-1 -90 -17 -145q-16 -56 -22 -68q-266 37 -399 0q-19 -138 -19 -402l208 7
q142 0 208 -19q0 -143 -35 -215zM450 1706q-62 0 -99 -39q-38 -39 -40 -117q-125 -11 -198 6q-4 143 89 213t236 70q238 0 319 -153q28 -53 25 -130q-70 -19 -192 -6q0 74 -39 115t-101 41z" />
    <glyph glyph-name="uni0207" unicode="&#x207;" horiz-adv-x="862" 
d="M735 559q-171 19 -385 -4l-2 -154q0 -98 10 -153l229 2q153 0 197 -4q27 -74 27 -234q-283 -3 -688 -18q-37 121 -42 181q-5 61 -5 110q-8 463 26 899q-20 83 -30 198q90 36 351 46t388 -27q-1 -90 -17 -145q-16 -56 -22 -68q-266 37 -399 0q-19 -138 -19 -402l208 7
q142 0 208 -19q0 -143 -35 -215zM450 1706q-62 0 -99 -39q-38 -39 -40 -117q-125 -11 -198 6q-4 143 89 213t236 70q238 0 319 -153q28 -53 25 -130q-70 -19 -192 -6q0 74 -39 115t-101 41z" />
    <glyph glyph-name="uni0208" unicode="&#x208;" horiz-adv-x="518" 
d="M328 1438q24 0 48 -4t21 -29q-16 -338 -30 -679t-2 -699q-65 -26 -200 -19q-38 2 -69 8q-21 235 -11 559q11 324 19 503t7 335q64 25 217 25zM-311 1878q26 17 129 21t143 -9q75 -75 176 -254q27 -45 39 -69q-64 -15 -160 -6q-108 80 -206 183t-121 134zM78 1878
q26 17 129 21t143 -9q75 -75 176 -254q27 -45 39 -69q-64 -15 -159 -6q-99 73 -262 240q-43 46 -66 77z" />
    <glyph glyph-name="uni0209" unicode="&#x209;" horiz-adv-x="518" 
d="M328 1438q24 0 48 -4t21 -29q-16 -338 -30 -679t-2 -699q-65 -26 -200 -19q-38 2 -69 8q-21 235 -11 559q11 324 19 503t7 335q64 25 217 25zM-311 1878q26 17 129 21t143 -9q75 -75 176 -254q27 -45 39 -69q-64 -15 -160 -6q-108 80 -206 183t-121 134zM78 1878
q26 17 129 21t143 -9q75 -75 176 -254q27 -45 39 -69q-64 -15 -159 -6q-99 73 -262 240q-43 46 -66 77z" />
    <glyph glyph-name="uni020A" unicode="&#x20a;" horiz-adv-x="481" 
d="M328 1438q24 0 48 -4t21 -29q-16 -338 -30 -679t-2 -699q-65 -26 -200 -19q-38 2 -69 8q-21 235 -11 559q11 324 19 503t7 335q64 25 217 25zM256 1706q-61 0 -99 -39t-40 -117q-126 -11 -199 6q-4 143 89 213t237 70q237 0 318 -153q28 -53 26 -130q-70 -19 -193 -6
q0 74 -39 115t-100 41z" />
    <glyph glyph-name="uni020B" unicode="&#x20b;" horiz-adv-x="481" 
d="M328 1438q24 0 48 -4t21 -29q-16 -338 -30 -679t-2 -699q-65 -26 -200 -19q-38 2 -69 8q-21 235 -11 559q11 324 19 503t7 335q64 25 217 25zM256 1706q-61 0 -99 -39t-40 -117q-126 -11 -199 6q-4 143 89 213t237 70q237 0 318 -153q28 -53 26 -130q-70 -19 -193 -6
q0 74 -39 115t-100 41z" />
    <glyph glyph-name="uni020C" unicode="&#x20c;" horiz-adv-x="1130" 
d="M578 1454q17 -17 26 -39q226 0 351 -176q126 -176 124 -461q0 -340 -132 -559q-145 -241 -399 -240t-381 215q-112 187 -116 484q0 322 138 547q139 225 389 229zM344 653q0 -301 114 -401q40 -35 98 -36q110 -2 176 164q57 142 58 356t-43 318t-155 109q-60 -6 -108 -54
t-78 -121q-62 -146 -62 -335zM-4 1878q26 17 129 21t143 -9q75 -75 176 -254q27 -45 39 -69q-64 -15 -159 -6q-99 73 -262 240q-43 46 -66 77zM385 1878q26 17 129 21t143 -9q68 -68 177 -254q27 -45 38 -69q-64 -15 -159 -6q-108 80 -261 240q-44 46 -67 77z" />
    <glyph glyph-name="uni020D" unicode="&#x20d;" horiz-adv-x="1130" 
d="M578 1454q17 -17 26 -39q226 0 351 -176q126 -176 124 -461q0 -340 -132 -559q-145 -241 -399 -240t-381 215q-112 187 -116 484q0 322 138 547q139 225 389 229zM344 653q0 -301 114 -401q40 -35 98 -36q110 -2 176 164q57 142 58 356t-43 318t-155 109q-60 -6 -108 -54
t-78 -121q-62 -146 -62 -335zM-4 1878q26 17 129 21t143 -9q75 -75 176 -254q27 -45 39 -69q-64 -15 -159 -6q-99 73 -262 240q-43 46 -66 77zM385 1878q26 17 129 21t143 -9q68 -68 177 -254q27 -45 38 -69q-64 -15 -159 -6q-108 80 -261 240q-44 46 -67 77z" />
    <glyph glyph-name="uni020E" unicode="&#x20e;" horiz-adv-x="1130" 
d="M578 1454q17 -17 26 -39q226 0 351 -176q126 -176 124 -461q0 -340 -132 -559q-145 -241 -399 -240t-381 215q-112 187 -116 484q0 322 138 547q139 225 389 229zM344 653q0 -301 114 -401q40 -35 98 -36q110 -2 176 164q57 142 58 356t-43 318t-155 109q-60 -6 -108 -54
t-78 -121q-62 -146 -62 -335zM582 1706q-62 0 -100 -39t-40 -117q-125 -11 -198 6q-4 143 89 213t236 70q238 0 319 -153q28 -53 25 -130q-70 -19 -192 -6q0 74 -39 115t-100 41z" />
    <glyph glyph-name="uni020F" unicode="&#x20f;" horiz-adv-x="1130" 
d="M578 1454q17 -17 26 -39q226 0 351 -176q126 -176 124 -461q0 -340 -132 -559q-145 -241 -399 -240t-381 215q-112 187 -116 484q0 322 138 547q139 225 389 229zM344 653q0 -301 114 -401q40 -35 98 -36q110 -2 176 164q57 142 58 356t-43 318t-155 109q-60 -6 -108 -54
t-78 -121q-62 -146 -62 -335zM582 1706q-62 0 -100 -39t-40 -117q-125 -11 -198 6q-4 143 89 213t236 70q238 0 319 -153q28 -53 25 -130q-70 -19 -192 -6q0 74 -39 115t-100 41z" />
    <glyph glyph-name="uni0210" unicode="&#x210;" horiz-adv-x="999" 
d="M417 735q41 0 93 30t92 73q86 95 85 178q-1 82 -58 131t-205 49q-23 0 -49 -6q-7 -145 -15 -257t-8 -194q24 -4 65 -4zM233 -2q-82 0 -135 27q-29 269 -18 618t31 594q-34 98 -39 129q121 70 338 72q387 0 495 -253q39 -89 39 -229t-90 -246q-90 -104 -233 -151
q189 -319 337 -487q-54 -39 -125 -56q-71 -18 -110 -18q-141 69 -373 502q-9 -183 17 -471q-52 -31 -134 -31zM-127 1878q26 17 129 21t143 -9q68 -68 177 -254q27 -45 38 -69q-64 -15 -159 -6q-108 80 -261 240q-44 46 -67 77zM262 1878q26 17 129 21t144 -9
q65 -65 176 -254q27 -45 39 -69q-64 -15 -160 -6q-108 80 -261 240q-44 46 -67 77z" />
    <glyph glyph-name="uni0211" unicode="&#x211;" horiz-adv-x="999" 
d="M417 735q41 0 93 30t92 73q86 95 85 178q-1 82 -58 131t-205 49q-23 0 -49 -6q-7 -145 -15 -257t-8 -194q24 -4 65 -4zM233 -2q-82 0 -135 27q-29 269 -18 618t31 594q-34 98 -39 129q121 70 338 72q387 0 495 -253q39 -89 39 -229t-90 -246q-90 -104 -233 -151
q189 -319 337 -487q-54 -39 -125 -56q-71 -18 -110 -18q-141 69 -373 502q-9 -183 17 -471q-52 -31 -134 -31zM-127 1878q26 17 129 21t143 -9q68 -68 177 -254q27 -45 38 -69q-64 -15 -159 -6q-108 80 -261 240q-44 46 -67 77zM262 1878q26 17 129 21t144 -9
q65 -65 176 -254q27 -45 39 -69q-64 -15 -160 -6q-108 80 -261 240q-44 46 -67 77z" />
    <glyph glyph-name="uni0212" unicode="&#x212;" horiz-adv-x="999" 
d="M417 735q41 0 93 30t92 73q86 95 85 178q-1 82 -58 131t-205 49q-23 0 -49 -6q-7 -145 -15 -257t-8 -194q24 -4 65 -4zM233 -2q-82 0 -135 27q-29 269 -18 618t31 594q-34 98 -39 129q121 70 338 72q387 0 495 -253q39 -89 39 -229t-90 -246q-90 -104 -233 -151
q189 -319 337 -487q-54 -39 -125 -56q-71 -18 -110 -18q-141 69 -373 502q-9 -183 17 -471q-52 -31 -134 -31zM490 1706q-62 0 -100 -39t-40 -117q-125 -11 -198 6q-4 143 89 213t236 70q238 0 319 -153q28 -53 25 -130q-70 -19 -192 -6q0 74 -39 115q-38 41 -100 41z" />
    <glyph glyph-name="uni0213" unicode="&#x213;" horiz-adv-x="999" 
d="M417 735q41 0 93 30t92 73q86 95 85 178q-1 82 -58 131t-205 49q-23 0 -49 -6q-7 -145 -15 -257t-8 -194q24 -4 65 -4zM233 -2q-82 0 -135 27q-29 269 -18 618t31 594q-34 98 -39 129q121 70 338 72q387 0 495 -253q39 -89 39 -229t-90 -246q-90 -104 -233 -151
q189 -319 337 -487q-54 -39 -125 -56q-71 -18 -110 -18q-141 69 -373 502q-9 -183 17 -471q-52 -31 -134 -31zM490 1706q-62 0 -100 -39t-40 -117q-125 -11 -198 6q-4 143 89 213t236 70q238 0 319 -153q28 -53 25 -130q-70 -19 -192 -6q0 74 -39 115q-38 41 -100 41z" />
    <glyph glyph-name="uni0214" unicode="&#x214;" 
d="M922 25q-72 -31 -211 -15q-35 4 -49 13q-2 23 -2 57t-3 53q-27 -59 -93 -100t-136 -45q-333 -15 -351 395q-11 250 17 580t25 458q170 12 268 2q1 -145 -21 -397t-25 -378t7 -232t46 -147q36 -40 82 -41t94 34t81 100q34 380 15 1033q128 27 272 6q0 -223 -14 -707
q-13 -483 -2 -669zM-66 1878q26 17 129 21t144 -9q75 -75 176 -254q27 -45 39 -69q-64 -15 -160 -6q-108 80 -261 240q-44 46 -67 77zM324 1878q26 17 129 21t143 -9q75 -75 176 -254q27 -45 39 -69q-64 -15 -160 -6q-108 80 -206 183t-121 134z" />
    <glyph glyph-name="uni0215" unicode="&#x215;" 
d="M922 25q-72 -31 -211 -15q-35 4 -49 13q-2 23 -2 57t-3 53q-27 -59 -93 -100t-136 -45q-333 -15 -351 395q-11 250 17 580t25 458q170 12 268 2q1 -145 -21 -397t-25 -378t7 -232t46 -147q36 -40 82 -41t94 34t81 100q34 380 15 1033q128 27 272 6q0 -223 -14 -707
q-13 -483 -2 -669zM-66 1878q26 17 129 21t144 -9q75 -75 176 -254q27 -45 39 -69q-64 -15 -160 -6q-108 80 -261 240q-44 46 -67 77zM324 1878q26 17 129 21t143 -9q75 -75 176 -254q27 -45 39 -69q-64 -15 -160 -6q-108 80 -206 183t-121 134z" />
    <glyph glyph-name="uni0216" unicode="&#x216;" 
d="M922 25q-72 -31 -211 -15q-35 4 -49 13q-2 23 -2 57t-3 53q-27 -59 -93 -100t-136 -45q-333 -15 -351 395q-11 250 17 580t25 458q170 12 268 2q1 -145 -21 -397t-25 -378t7 -232t46 -147q36 -40 82 -41t94 34t81 100q34 380 15 1033q128 27 272 6q0 -223 -14 -707
q-13 -483 -2 -669zM534 1706q-62 0 -99 -39q-38 -39 -40 -117q-125 -11 -198 6q-4 143 89 213t236 70q238 0 319 -153q28 -53 25 -130q-70 -19 -192 -6q0 74 -39 115t-101 41z" />
    <glyph glyph-name="uni0217" unicode="&#x217;" 
d="M922 25q-72 -31 -211 -15q-35 4 -49 13q-2 23 -2 57t-3 53q-27 -59 -93 -100t-136 -45q-333 -15 -351 395q-11 250 17 580t25 458q170 12 268 2q1 -145 -21 -397t-25 -378t7 -232t46 -147q36 -40 82 -41t94 34t81 100q34 380 15 1033q128 27 272 6q0 -223 -14 -707
q-13 -483 -2 -669zM534 1706q-62 0 -99 -39q-38 -39 -40 -117q-125 -11 -198 6q-4 143 89 213t236 70q238 0 319 -153q28 -53 25 -130q-70 -19 -192 -6q0 74 -39 115t-101 41z" />
    <glyph glyph-name="Scommaaccent" unicode="&#x218;" horiz-adv-x="956" 
d="M444 190q160 0 156 115q-3 93 -157 171q-63 32 -125 58q-264 110 -273 361q-8 215 113 359q121 145 322 181t336 -52q46 -30 68 -93t6 -152t-48 -157q-17 -28 -105 -48t-147 -18q31 68 45 189q6 54 -33 72t-88 5q-91 -24 -140 -107t-38 -157q19 -139 192 -217
q196 -91 257 -143q120 -104 122 -246q4 -185 -141 -267q-116 -67 -279 -68q-326 -2 -395 137q0 143 62 241q53 -82 131 -123t159 -41zM653 -274q0 -126 -93 -229q-36 -40 -91 -75q-37 0 -51 19q27 29 51 67t16 82q-67 -11 -108 20q-60 41 -55 122q6 82 57 120t118 38
t111 -47q44 -46 45 -117z" />
    <glyph glyph-name="scommaaccent" unicode="&#x219;" horiz-adv-x="956" 
d="M444 190q160 0 156 115q-3 93 -157 171q-63 32 -125 58q-264 110 -273 361q-8 215 113 359q121 145 322 181t336 -52q46 -30 68 -93t6 -152t-48 -157q-17 -28 -105 -48t-147 -18q31 68 45 189q6 54 -33 72t-88 5q-91 -24 -140 -107t-38 -157q19 -139 192 -217
q196 -91 257 -143q120 -104 122 -246q4 -185 -141 -267q-116 -67 -279 -68q-326 -2 -395 137q0 143 62 241q53 -82 131 -123t159 -41zM653 -274q0 -126 -93 -229q-36 -40 -91 -75q-37 0 -51 19q27 29 51 67t16 82q-67 -11 -108 20q-60 41 -55 122q6 82 57 120t118 38
t111 -47q44 -46 45 -117z" />
    <glyph glyph-name="uni021A" unicode="&#x21a;" horiz-adv-x="917" 
d="M66 1415q112 11 355 15t431 -11q17 -92 12 -229q-57 0 -136 3t-142 -1q-27 -571 8 -1161q-113 -50 -283 -17q-10 152 -10 308t3 308t6 295q3 142 1 265q-131 0 -258 -10q-2 20 -2 98t15 137zM612 -274q0 -126 -93 -229q-36 -40 -91 -75q-37 0 -51 19q27 29 51 67t16 82
q-67 -11 -108 20q-60 41 -55 122q6 82 57 120t118 38q68 0 112 -47q44 -46 44 -117z" />
    <glyph glyph-name="uni021B" unicode="&#x21b;" horiz-adv-x="917" 
d="M66 1415q112 11 355 15t431 -11q17 -92 12 -229q-57 0 -136 3t-142 -1q-27 -571 8 -1161q-113 -50 -283 -17q-10 152 -10 308t3 308t6 295q3 142 1 265q-131 0 -258 -10q-2 20 -2 98t15 137zM612 -274q0 -126 -93 -229q-36 -40 -91 -75q-37 0 -51 19q27 29 51 67t16 82
q-67 -11 -108 20q-60 41 -55 122q6 82 57 120t118 38q68 0 112 -47q44 -46 44 -117z" />
    <glyph glyph-name="uni0232" unicode="&#x232;" horiz-adv-x="1136" 
d="M442 35q26 216 19 424q-95 287 -314 701q-61 118 -112 216q80 38 159 53t109 15q140 -259 199 -404t98 -262q113 372 160 483t82 185q147 0 260 -60q-130 -288 -210 -520q-79 -233 -136 -407q-2 -41 -4 -183t-23 -262q-224 -24 -287 21zM666 1569q-182 0 -422 -6
q-44 19 -32 125q3 27 13 47q388 14 532 8t179 -6q20 -23 19 -75t-17 -97q-90 4 -272 4z" />
    <glyph glyph-name="uni0233" unicode="&#x233;" horiz-adv-x="1136" 
d="M442 35q26 216 19 424q-95 287 -314 701q-61 118 -112 216q80 38 159 53t109 15q140 -259 199 -404t98 -262q113 372 160 483t82 185q147 0 260 -60q-130 -288 -210 -520q-79 -233 -136 -407q-2 -41 -4 -183t-23 -262q-224 -24 -287 21zM666 1569q-182 0 -422 -6
q-44 19 -32 125q3 27 13 47q388 14 532 8t179 -6q20 -23 19 -75t-17 -97q-90 4 -272 4z" />
    <glyph glyph-name="dotlessj" unicode="&#x237;" horiz-adv-x="833" 
d="M498 400v331q-2 172 -16.5 341t-14.5 325q59 32 149 28q93 0 146 -43q-12 -80 -1.5 -374t3.5 -505.5t-56 -319.5q-48 -109 -144.5 -157t-181.5 -46q-149 4 -236.5 61t-125.5 139q0 44 27 130t57 132q100 -248 234 -252q70 -2 115 76.5t45 133.5z" />
    <glyph glyph-name="uni02BB" unicode="&#x2bb;" horiz-adv-x="493" 
d="M240 1008q-76 0 -122 49t-46 127q0 133 108 262q37 43 88 72q37 0 54 -19q-51 -51 -73 -127q-7 -24 -1 -47q64 12 119 -28q55 -41 55 -117t-53 -124t-129 -48z" />
    <glyph glyph-name="circumflex" unicode="&#x2c6;" horiz-adv-x="841" 
d="M422 1706q-123 -123 -178 -184q-103 5 -162 30q39 74 126 176.5t128 145.5q82 6 164 0q190 -206 220 -252.5t40 -60.5q-52 -27 -174 -37q-103 121 -164 182z" />
    <glyph glyph-name="caron" unicode="&#x2c7;" horiz-adv-x="841" 
d="M422 1694q95 95 164 182q122 -10 174 -37q-55 -87 -260 -313q-82 -6 -164 0q-112 117 -177 208t-77 113q62 26 162 31q55 -61 178 -184z" />
    <glyph glyph-name="breve" unicode="&#x2d8;" horiz-adv-x="843" 
d="M563 1843q123 13 193 -6q4 -141 -95 -211t-247 -71q-149 -1 -240 71t-88 211q72 17 199 6q2 -78 40 -117q37 -38 99 -38t100 40t39 115z" />
    <glyph glyph-name="dotaccent" unicode="&#x2d9;" horiz-adv-x="471" 
d="M245 1837q69 0 111 -39q42 -38 43 -104q0 -66 -53 -111t-122 -45q-68 0 -110 40t-42 106t52 110q52 43 121 43z" />
    <glyph glyph-name="ring" unicode="&#x2da;" horiz-adv-x="645" 
d="M102 1745v12q6 90 70 146.5t162 55.5t153.5 -59.5t55.5 -144.5t-67.5 -148.5t-159.5 -62.5t-153 59t-61 142zM395 1754q0 28 -17.5 49.5t-57.5 21.5t-59 -25.5t-16 -54.5q7 -68 68 -68q41 0 61.5 24.5t20.5 52.5z" />
    <glyph glyph-name="ogonek" unicode="&#x2db;" horiz-adv-x="600" 
d="M308 -465q-110 0 -178.5 53t-68.5 154q0 100 47.5 162.5t140.5 120.5t238 75v-73q-139 -31 -181 -108t-37 -131t33 -74.5t64.5 -16.5t73.5 25.5t60 50.5l39 -117q-35 -57 -104 -89t-127 -32z" />
    <glyph glyph-name="tilde" unicode="&#x2dc;" horiz-adv-x="913" 
d="M316 1415q-30 0 -57 -27.5t-48 -121.5q-89 0 -129 20q-4 10 -4 12v29q4 119 69.5 193.5t159.5 74.5t187 -106q31 -35 85.5 -54t73.5 35t9 115q86 14 145 6q18 -49 17 -98q-2 -108 -44 -156q-63 -75 -181 -75t-231 113q-40 40 -52 40z" />
    <glyph glyph-name="hungarumlaut" unicode="&#x2dd;" horiz-adv-x="1021" 
d="M954 1878q-40 -54 -151 -161t-176 -156q-96 -9 -160 6q16 33 93 156q77 122 122 167q30 10 136 9q105 0 136 -21zM565 1878q-64 -86 -256 -257q-45 -40 -71 -60q-96 -9 -160 6q16 33 93 156q77 122 122 167q30 10 136 9q105 0 136 -21z" />
    <glyph glyph-name="doublegrave" unicode="&#x30f;" horiz-adv-x="1021" 
d="M68 1878q26 17 129 21t143 -9q75 -75 176 -254q27 -45 39 -69q-64 -15 -160 -6q-108 80 -206 183t-121 134zM457 1878q26 17 129 21t143 -9q75 -75 176 -254q27 -45 39 -69q-64 -15 -160 -6q-108 80 -206 183t-121 134z" />
    <glyph glyph-name="invertedbreve" unicode="&#x311;" horiz-adv-x="837" 
d="M422 1716q-61 0 -99 -39t-40 -116q-126 -11 -199 6q-4 143 89 212.5t237 69.5q238 0 292 -103.5t52 -178.5q-70 -19 -193 -6q0 74 -39 114.5t-100 40.5z" />
    <glyph glyph-name="horn" unicode="&#x31b;" horiz-adv-x="567" 
d="M295 1309q0 49 -6 129q16 2 105.5 2t119.5 -15q9 -182 -67 -287t-404 -73l-4 141q27 -2 52 -3t65 -4t74 4t49.5 32t15.5 74z" />
    <glyph glyph-name="commaaccent" unicode="&#x326;" horiz-adv-x="473" 
d="M247 -102q67 0 111.5 -46.5t44.5 -117.5q0 -126 -64.5 -197.5t-119.5 -105.5q-37 0 -51 18q27 29 51.5 67t16.5 83q-107 -17 -136.5 41t-25.5 120t55 100t118 38z" />
    <glyph glyph-name="uni1E9E" unicode="&#x1e9e;" horiz-adv-x="1075" 
d="M1004 383q0 -419 -231.5 -407t-278.5 28q-12 28 -7 110t23 93q116 -29 170.5 26t54.5 151q0 95 -11 145.5t-53 85t-212 30.5q217 322 243 524q-48 74 -167 70q-129 0 -149.5 -84t-23.5 -123q-23 -262 -13.5 -515t20.5 -507q-90 -27 -171 -12t-104 27q-10 281 -19 545
t7 520q11 198 143.5 285t331.5 87q330 -8 447 -237q-94 -310 -201 -461q180 -15 190.5 -167.5t10.5 -213.5z" />
    <glyph glyph-name="endash" unicode="&#x2013;" horiz-adv-x="1003" 
d="M844 535q-129 6 -188 6l-552 -2q-23 70 -10.5 129t29 86.5t48.5 28.5t91.5 2t135 2t262.5 -1.5t217 -5.5q27 -27 22 -134t-55 -111z" />
    <glyph glyph-name="emdash" unicode="&#x2014;" horiz-adv-x="1439" 
d="M100 528q-28 64 -26 132.5t12 97.5q76 15 516.5 22t716.5 -12q67 -102 16 -248q-138 18 -393.5 15t-377.5 -4t-241 -2t-223 -1z" />
    <glyph glyph-name="quoteleft" unicode="&#x2018;" horiz-adv-x="493" 
d="M239.5 1008q-75.5 0 -121.5 49t-46 128t51.5 179.5t144.5 153.5q37 0 54 -19q-52 -52 -66 -101.5t-8 -72.5q64 12 119 -29t55 -117q0 -75 -53.5 -123t-129 -48z" />
    <glyph glyph-name="quoteright" unicode="&#x2019;" horiz-adv-x="493" 
d="M254 1473q76 0 122 -49.5t46 -124.5t-49.5 -181.5t-145.5 -154.5q-39 0 -53 18q52 52 66 101.5t8 72.5q-63 -12 -119.5 28t-56.5 117q0 76 53 124.5t129 48.5z" />
    <glyph glyph-name="quotesinglbase" unicode="&#x201a;" horiz-adv-x="473" 
d="M247 299q67 0 111.5 -46t44.5 -118q0 -125 -64.5 -196.5t-119.5 -106.5q-37 0 -51 18q27 29 51.5 67t16.5 83q-107 -17 -136.5 41.5t-25.5 120.5t55 99.5t118 37.5z" />
    <glyph glyph-name="quotedblleft" unicode="&#x201c;" horiz-adv-x="923" 
d="M239.5 1008q-75.5 0 -121.5 49t-46 128t51.5 179.5t144.5 153.5q37 0 54 -19q-52 -52 -66 -101.5t-8 -72.5q64 12 119 -29t55 -117q0 -75 -53.5 -123t-129 -48zM669.5 1008q-75.5 0 -121.5 49t-46 126t33.5 148.5t70.5 114.5t90 72q37 0 54 -19q-52 -52 -66 -101.5
t-8 -72.5q63 12 119.5 -28.5t56.5 -116.5t-53.5 -124t-129 -48z" />
    <glyph glyph-name="quotedblright" unicode="&#x201d;" horiz-adv-x="923" 
d="M684 1473q76 0 122 -49.5t46 -126.5t-36 -148.5t-72.5 -115.5t-88.5 -70q-39 0 -53 18q52 52 66 101.5t8 72.5q-64 -12 -119 28.5t-55 116.5t53 124.5t129 48.5zM254 1473q76 0 122 -49.5t46 -124.5t-49.5 -181.5t-145.5 -154.5q-39 0 -53 18q52 52 66 101.5t8 72.5
q-63 -12 -119.5 28t-56.5 117q0 76 53 124.5t129 48.5z" />
    <glyph glyph-name="quotedblbase" unicode="&#x201e;" horiz-adv-x="935" 
d="M247 299q67 0 111.5 -46t44.5 -118q0 -125 -64.5 -196.5t-119.5 -106.5q-37 0 -51 18q27 29 51.5 67t16.5 83q-107 -17 -136.5 41.5t-25.5 120.5t55 99.5t118 37.5zM708 299q66 0 111 -46t45 -118q0 -125 -64.5 -196.5t-119.5 -106.5q-37 0 -51 18q27 29 51 67t16 83
q-105 -17 -135.5 41.5t-26.5 120.5t56 99.5t118 37.5z" />
    <glyph glyph-name="dagger" unicode="&#x2020;" horiz-adv-x="962" 
d="M410 824q0 50 -40 75t-78 1t-74 -34t-66.5 -3t-50 32t-19.5 88.5t68 77t137 -30.5q20 -12 41.5 -12t63.5 20.5t20.5 100t-37 120.5t-15.5 62q0 66 37 94.5t84 28.5t84 -29t37 -94q0 -20 -10 -48t-30 -88t-17 -88q4 -28 17 -44.5t31.5 -25.5t40 -9t48.5 16t62.5 24.5
t66.5 2.5t50.5 -28.5t19.5 -88t-66.5 -80.5t-123.5 22q-58 38 -98 13t-40 -75t30.5 -87t75.5 -45q-110 -119 -110 -737q-9 -54 -68 -113q-58 58 -67 113q0 613 -111 737q45 8 76 45t31 87z" />
    <glyph glyph-name="daggerdbl" unicode="&#x2021;" horiz-adv-x="962" 
d="M481 1444q47 0 84 -29t37 -94q0 -20 -10 -48t-30 -88t-17 -88q4 -28 17 -44.5t31.5 -25.5t40 -9t48.5 16t62.5 24.5t66.5 2.5t50.5 -28.5t19.5 -88t-66.5 -80.5t-123.5 22q-58 38 -98 13t-40 -75t30.5 -87t75.5 -45q-45 -8 -75.5 -45t-30.5 -87t40 -74.5t78 -0.5
t73.5 33.5t66.5 2.5t50.5 -31.5t19.5 -89t-65 -78t-140 31.5q-41 25 -83 3.5t-46 -56.5t5 -66.5t19.5 -63.5t20.5 -59.5t10 -48.5q0 -66 -37 -94t-84 -28t-84 28.5t-37 93.5q0 20 10.5 48t29.5 88t15 87q-3 27 -15.5 44.5t-31 27t-40.5 9t-48 -16.5t-62 -25.5t-66.5 -3
t-50 30t-19.5 88.5t66 80t124 -22q58 -38 98 -13t40 75t-31 87t-76 45q45 8 76 45t31 87t-40 75t-78 1t-74 -34t-66.5 -3t-50 32t-19.5 88.5t68 77t137 -30.5q20 -12 41.5 -12t63.5 20.5t20.5 100t-37 120.5t-15.5 62q0 66 37 94.5t84 28.5z" />
    <glyph glyph-name="bullet" unicode="&#x2022;" horiz-adv-x="784" 
d="M678 710q0 -60 -21.5 -112.5t-59.5 -91.5t-91 -62.5t-114.5 -23.5t-114 22.5t-90 61.5t-60.5 92t-23 112.5t23 112.5t60.5 92t90 61.5t114 22.5t113.5 -22.5t91 -61.5t60.5 -91t21.5 -112z" />
    <glyph glyph-name="ellipsis" unicode="&#x2026;" horiz-adv-x="1413" 
d="M1187 281q69 0 111.5 -39t42.5 -105t-53 -110.5t-122 -44.5t-110.5 39.5t-41.5 106.5t52 110t121 43zM716 281q69 0 111.5 -39t42.5 -105t-53 -110.5t-122 -44.5t-110.5 39.5t-41.5 106.5t52 110t121 43zM245 281q69 0 111.5 -39t42.5 -105t-53 -110.5t-122 -44.5
t-110.5 39.5t-41.5 106.5t52 110t121 43z" />
    <glyph glyph-name="perthousand" unicode="&#x2030;" horiz-adv-x="2306" 
d="M362 -31q302 750 691 1520q85 0 163 -10.5t99 -16.5q-399 -716 -750 -1509q-141 0 -203 16zM1243.5 532q-95.5 0 -104.5 -204q-4 -104 21.5 -158.5t73.5 -55.5q87 -2 96 208t-86.5 210zM1232 -25q-144 0 -227 93.5t-78 257.5t88 254t230 90t225 -96t73 -255t-86 -251.5
t-225 -92.5zM385.5 901q68.5 0 77.5 197q4 111 -23.5 164t-72.5 53t-72 -54.5t-31 -153.5t24.5 -152.5t97 -53.5zM353 762q-144 0 -225 93t-74 257t88 253t227 88t228.5 -96t76.5 -254t-91.5 -250t-229.5 -91zM1960 532q-96 0 -105 -204q-4 -104 22 -158.5t74 -55.5
q87 -2 96 208t-87 210zM1949 -25q-144 0 -227.5 93.5t-78.5 257.5t88.5 254t229.5 90t225 -95.5t74 -255.5q-5 -159 -86 -251.5t-225 -92.5z" />
    <glyph glyph-name="guilsinglleft" unicode="&#x2039;" horiz-adv-x="675" 
d="M84 570v122q115 115 426 510q78 -121 82 -278q-49 -86 -146.5 -183.5t-134.5 -136.5q202 -202 281 -319q4 -175 -66 -287q-263 325 -436 514q-6 50 -6 58z" />
    <glyph glyph-name="guilsinglright" unicode="&#x203a;" horiz-adv-x="677" 
d="M154 4q-72 132 -72 283q42 78 104 143.5t100 104t70 75.5q-98 104 -171.5 196.5t-96.5 129.5q0 152 74 281q166 -214 428 -508q6 -61 4 -98.5t-4 -88.5q-295 -338 -436 -518z" />
    <glyph glyph-name="Euro" unicode="&#x20ac;" horiz-adv-x="1067" 
d="M418 580q312 0 393 -9q0 -51 -13.5 -102t-19.5 -59q-84 2 -167 4t-179 2q43 -195 184 -207q166 -11 217.5 65t69.5 117q59 -102 78 -221q-113 -190 -383 -190t-353 171t-100 261l-71 -2q-27 82 -4 163l59 2q-2 59 0 121l-63 -2q-15 15 -15 74.5t15 89.5l73 2
q40 420 215.5 501t288.5 81q186 0 274 -83.5t93 -191.5q-46 -91 -148 -182q-45 109 -92 149t-113 37q-171 -24 -219 -309q240 0 428 -8q-9 -89 -30 -162l-414 8q-4 -50 -4 -120z" />
    <glyph glyph-name="trademark" unicode="&#x2122;" horiz-adv-x="1355" 
d="M733 735h-123v750h166l178 -522l176 522h164v-750h-118v533l-177 -516h-90l-176 516v-533zM530 1384h-170v-649h-124v649h-175v101h469v-101z" />
    <glyph glyph-name="Mr.Smiley" unicode="&#xf8ff;" horiz-adv-x="1583" 
d="M1384 125h31l19 -78l18 78h29v-100h-19v77l-20 -77h-19l-20 77v-77h-19v100zM1321 102h-31v23h84v-23h-31v-77h-22v77zM1130 1063q4 4 -11 18.5t-54.5 40.5t-50.5 11q-39 -49 -55.5 -110.5t-40.5 -119.5q-7 -4 23.5 -20.5t41.5 -8.5zM602 874q12 -12 40 7.5t28 21.5
q-29 57 -47.5 118.5t-53.5 111.5q-11 15 -69.5 -23.5t-48.5 -46.5zM870 731l-77 187l-78 -187h155zM442 487q346 -80 699 0l110 177h-921zM982.5 304.5q86.5 66.5 135.5 152.5q-318 -83 -655 0q52 -90 137.5 -154.5t190.5 -64.5t191.5 66.5zM790 147q-236 0 -409.5 170
t-173.5 412q0 241 171.5 410.5t412.5 169.5t411 -170t170 -408q0 -121 -46 -227.5t-125 -185t-185 -125t-226 -46.5zM792 104q130 0 243.5 49.5t197.5 135.5t133 199.5t49 306.5t-182 377t-440 184t-443.5 -183t-185.5 -441.5t184.5 -443t443.5 -184.5zM790.5 6
q-149.5 0 -281.5 57.5t-230.5 155.5t-154.5 230.5t-56 282t56 281.5t154.5 230t230.5 155.5t281.5 57.5t281.5 -57.5t230.5 -155.5t156 -230t57.5 -281.5t-57.5 -282t-156 -230.5t-230.5 -155.5t-281.5 -57.5z" />
    </font>
</defs>
</svg>
